STARTFONT 2.1
COMMENT
COMMENT Converted from OpenType font "Q:\font stuff\winfont\Luftwaffe Regular.ttf" by "otf2bdf 3.0".
COMMENT
FONT -FreeType-Luftwaffe-Medium-R-Normal--96-960-72-72-P-298-ISO10646-1
SIZE 96 72 72
FONTBOUNDINGBOX 111 99 -14 -21
STARTPROPERTIES 19
FOUNDRY "FreeType"
FAMILY_NAME "Luftwaffe"
WEIGHT_NAME "Medium"
SLANT "R"
SETWIDTH_NAME "Normal"
ADD_STYLE_NAME ""
PIXEL_SIZE 96
POINT_SIZE 960
RESOLUTION_X 72
RESOLUTION_Y 72
SPACING "P"
AVERAGE_WIDTH 298
CHARSET_REGISTRY "ISO10646"
CHARSET_ENCODING "1"
FONT_ASCENT 79
FONT_DESCENT 21
COPYRIGHT "More KeyFonts TM SoftKey Software Products, Inc.  Copyright (c)1992 W.S.I.  All Rights Reserved.  Redistribution strictly prohibited.  RWE"
_OTF_FONTFILE "Q:\font stuff\winfont\Luftwaffe Regular.ttf"
_OTF_PSNAME "Luftwaffe"
ENDPROPERTIES
CHARS 231
STARTCHAR 0020
ENCODING 32
SWIDTH 322 0
DWIDTH 31 0
BBX 0 0 0 0
BITMAP
ENDCHAR
STARTCHAR 0021
ENCODING 33
SWIDTH 364 0
DWIDTH 35 0
BBX 19 67 8 -1
BITMAP
03F000
0FFC00
1FFE00
3FFE00
7FFF00
7FFF00
7FFF00
7FFF00
7FFF80
7FFF80
7FFF80
7FFF80
7FFF80
7FFF80
7FFF00
7FFF00
3FFF00
3FFF00
3FFF00
3FFF00
1FFF00
1FFE00
1FFE00
1FFE00
0FFE00
0FFE00
0FFC00
07FC00
07FC00
07FC00
07F800
03F800
03F800
03F800
01F000
01F000
01F000
01F000
00E000
00E000
00E000
00E000
004000
004000
000000
000000
000000
000000
00C000
00C000
01E000
01F000
03F000
07F800
0FFC00
3FFF00
FFFFC0
FFFFE0
7FFFC0
1FFF00
0FFC00
07F800
03F000
01F000
01E000
00C000
00C000
ENDCHAR
STARTCHAR 0022
ENCODING 34
SWIDTH 447 0
DWIDTH 43 0
BBX 33 30 5 36
BITMAP
018000C000
01C000E000
01C000E000
03C001E000
03E001F000
07F003F800
0FF807FC00
1FFC0FFE00
FFFF7FFF80
FFFF7FFF80
3FFE1FFF00
1FFC0FFE00
1FFC0FFE00
0FF807FC00
0FF807FC00
07F003F800
07F003F800
07F003F800
03E001F000
03E001F000
03E001F000
03E001F000
01E000F000
01C000E000
01C000E000
01C000E000
01C000E000
00C0006000
00C0006000
0080004000
ENDCHAR
STARTCHAR 0023
ENCODING 35
SWIDTH 635 0
DWIDTH 61 0
BBX 43 63 9 0
BITMAP
0007FC03FE00
000FFC03FE00
000FF803FE00
000FF807FE00
000FF807FC00
000FF807FC00
000FF807FC00
000FF807FC00
001FF807FC00
001FF007FC00
001FF00FFC00
001FF00FF800
001FF00FF800
001FF00FF800
001FF00FF800
003FF00FF800
003FE00FF800
1FFFFFFFFFE0
1FFFFFFFFFE0
1FFFFFFFFFE0
1FFFFFFFFFE0
1FFFFFFFFFE0
1FFFFFFFFFE0
1FFFFFFFFFE0
1FFFFFFFFFE0
007FC01FE000
007FC01FE000
007FC01FE000
007FC01FE000
00FFC01FE000
00FFC01FE000
00FF801FE000
00FF803FE000
00FF803FC000
00FF803FC000
00FF803FC000
00FF803FC000
FFFFFFFFFF00
FFFFFFFFFF00
FFFFFFFFFF00
FFFFFFFFFF00
FFFFFFFFFF00
FFFFFFFFFF00
FFFFFFFFFF00
FFFFFFFFFF00
03FE007F8000
03FE00FF8000
03FE00FF0000
03FE00FF0000
03FE00FF0000
03FE00FF0000
07FE00FF0000
07FE00FF0000
07FC01FF0000
07FC01FE0000
07FC01FE0000
07FC01FE0000
07FC01FE0000
0FFC01FE0000
0FFC01FE0000
0FF803FE0000
0FF803FC0000
0FF803FC0000
ENDCHAR
STARTCHAR 0024
ENCODING 36
SWIDTH 635 0
DWIDTH 61 0
BBX 49 93 6 -15
BITMAP
000000C0000000
000000C0000000
000000C0000000
000000C0000000
000000C0000000
000000C0000000
000000C0000000
000000C0000000
000000C0000000
000000C0000000
00001FF8000000
0001FFFFC00000
0007F0C3F80000
001FC0C07E0000
003F00C00F8000
00FE00C003E000
01FC00C001F000
03F800C001F800
07F000C001FC00
0FF000C007FE00
0FF000C01FFE00
1FE000C07FFF00
1FE000C0FFFF00
3FE000C1FFFF00
3FE000C1FFFF00
3FF000C3FFFF00
3FF000C3FFFF00
7FF800C3FFFF00
7FF800C1FFFF00
7FFC00C1FFFF00
7FFF00C1FFFE00
7FFF80C0FFFC00
7FFFE0C07FF800
3FFFF8C01FF000
3FFFFFC0000000
3FFFFFE0000000
3FFFFFF8000000
1FFFFFFF000000
1FFFFFFFC00000
0FFFFFFFF00000
0FFFFFFFFC0000
07FFFFFFFF0000
03FFFFFFFF8000
01FFFFFFFFE000
00FFFFFFFFF000
003FFFFFFFF800
001FFFFFFFFC00
0007FFFFFFFE00
0001FFFFFFFE00
00007FFFFFFF00
00001FFFFFFF00
000007FFFFFF80
000001FFFFFF80
03F800DFFFFF80
0FFE00C3FFFF80
1FFF00C0FFFF80
3FFF80C03FFF80
7FFF80C01FFF80
7FFFC0C007FF80
7FFFC0C003FF80
FFFFC0C003FF80
FFFFC0C001FF80
FFFFC0C000FF80
FFFFC0C000FF80
FFFFC0C000FF00
7FFF80C000FF00
7FFF80C000FE00
7FFE00C000FE00
3FE000C000FC00
3FC000C000FC00
1F8000C001F800
0FC000C001F000
07C000C003E000
01E000C007C000
00F800C01F8000
003F00C07E0000
000FE0C1F80000
0003FFFFE00000
00003FFE000000
000000C0000000
000000C0000000
000000C0000000
000000C0000000
000000C0000000
000000C0000000
000000C0000000
000000C0000000
000000C0000000
000000C0000000
000000C0000000
000000C0000000
000000C0000000
000000C0000000
ENDCHAR
STARTCHAR 0025
ENCODING 37
SWIDTH 802 0
DWIDTH 77 0
BBX 71 65 3 0
BITMAP
000000000000040000
000FF00000000F0000
007FFE0000001F0000
01F81F8000001E0000
03F00FE000003E0000
07F007F000007C0000
0FF007F80000780000
1FF007FC0000F80000
3FF007FC0000F00000
3FF007FE0001F00000
7FF007FE0003E00000
7FF007FF0003C00000
FFF007FF0007C00000
FFF007FF000F800000
FFF007FF800F000000
FFF007FF801F000000
FFF007FF801E000000
FFF007FF803E000000
FFF007FF807C000000
FFF007FF8078000000
FFF007FF00F8000000
FFF007FF01F0000000
7FF007FF01E0000000
7FF007FE03E0000000
3FF007FE03C0000000
3FF007FC07C0000000
1FF007FC0F80000000
0FF007F80F00000000
07F007F01F00000000
03F00FE03E00000000
01F81F803C00000000
007FFE007C00000000
000FF800F8003FC000
00000000F801FFF800
00000001F007F07E00
00000001E00FC03F00
00000003E01FC01FC0
00000007C03FC01FE0
00000007807FC01FE0
0000000F80FFC01FF0
0000001F00FFC01FF8
0000001E01FFC01FF8
0000003E01FFC01FFC
0000003C03FFC01FFC
0000007C03FFC01FFC
000000F803FFC01FFE
000000F003FFC01FFE
000001F003FFC01FFE
000003E003FFC01FFE
000003C003FFC01FFE
000007C003FFC01FFE
00000F8003FFC01FFE
00000F8003FFC01FFC
00001F0003FFC01FFC
00001E0001FFC01FFC
00003E0001FFC01FF8
00007C0000FFC01FF8
0000780000FFC01FF0
0000F800007FC01FE0
0001F000003FC01FE0
0001F000001FC01FC0
0003E000000FC03F00
0003C0000007E07E00
0000C0000001FFF800
0000000000003FC000
ENDCHAR
STARTCHAR 0026
ENCODING 38
SWIDTH 802 0
DWIDTH 77 0
BBX 75 72 3 -6
BITMAP
0000000FF80000000000
0000007FFE0000000000
000001FF838000000000
000007FF00C000000000
00000FFE006000000000
00003FFC007000000000
00007FF8007000000000
0000FFF8003800000000
0000FFF8003800000000
0001FFF80038000FE000
0001FFF8007C007FF800
0003FFF8007C00E0FE00
0003FFF8007C01807F00
0007FFF800780300FF80
0007FFF800F80601FF80
0007FFFC00F80C03FFC0
0007FFFC01F00C07FFC0
0007FFFE01E0180FFFC0
0007FFFF03E0181FFFE0
0007FFFF8780301FFFE0
0007FFFFCF00301FFFE0
0007FFFFF800201FFFC0
0007FFFFF800601FFFC0
0007FFFFFE00601FFFC0
0003FFFFFF00401FFFC0
0003FFFFFF80C01FFF80
0001FFFFFFE0C00FFF00
0001FFFFFFF08007FE00
0003FFFFFFFC8001F800
000E7FFFFFFF80000000
001C3FFFFFFF80000000
00781FFFFFFFC0000000
00F80FFFFFFFE0000000
03F007FFFFFFF0000000
07F003FFFFFFFC000000
0FF000FFFFFFFE000000
0FF0007FFFFFFF000000
1FF0003FFFFFFF800000
3FF0000FFFFFFFC00000
3FF00007FFFFFFC00000
7FF00003FFFFFFE00000
7FF80000FFFFFFF00000
FFF800007FFFFFF00000
FFFC00003FFFFFF00000
FFFE00000FFFFFF80000
FFFF000007FFFFF80000
FFFF800001FFFFF80000
FFFFC00000FFFFF80000
FFFFE000007FFFF80000
FFFFF000006FFFFC0000
FFFFFC0000CFFFFC0000
FFFFFF0001C7FFFC0000
FFFFFFC00383FFFC0000
FFFFFFF80F83FFF80000
7FFFFFFFFF01FFF80000
7FFFFFFFFF01FFF80000
3FFFFFFFFE01FFF80000
3FFFFFFFFC00FFF80000
1FFFFFFFFC00FFF80000
0FFFFFFFF800FFF00000
07FFFFFFF001FFF00000
03FFFFFFE001FFE00000
01FFFFFFC001FFE00000
007FFFFF8001FFC00000
003FFFFE0003FF800000
000FFFF80003FF800000
0000FF800007FF000000
00000000000FFC000000
00000000001FF8000000
0000000000FFE0000000
000000001FFF80000000
000000001FF800000000
ENDCHAR
STARTCHAR 0027
ENCODING 39
SWIDTH 281 0
DWIDTH 27 0
BBX 16 30 5 36
BITMAP
0180
0180
03C0
03C0
07E0
0FE0
1FF0
3FFC
FFFF
FFFF
7FFE
3FFC
1FF8
1FF8
0FF0
0FF0
0FF0
07E0
07E0
07E0
03E0
03C0
03C0
03C0
01C0
01C0
0180
0180
0180
0180
ENDCHAR
STARTCHAR 0028
ENCODING 40
SWIDTH 343 0
DWIDTH 33 0
BBX 32 87 1 -21
BITMAP
00000001
0000000F
0000003C
000000F0
000003E0
000007C0
00001F80
00003F00
00007F00
0001FE00
0003FE00
0007FC00
000FFC00
000FF800
001FF800
003FF800
007FF800
00FFF000
00FFF000
01FFF000
03FFF000
03FFF000
07FFE000
07FFE000
0FFFE000
0FFFE000
1FFFE000
1FFFE000
1FFFE000
3FFFE000
3FFFE000
3FFFE000
7FFFE000
7FFFE000
7FFFE000
7FFFE000
7FFFE000
FFFFE000
FFFFE000
FFFFE000
FFFFE000
FFFFE000
FFFFE000
FFFFE000
FFFFE000
FFFFE000
FFFFE000
FFFFE000
FFFFE000
FFFFE000
7FFFE000
7FFFE000
7FFFE000
7FFFE000
7FFFE000
3FFFE000
3FFFE000
3FFFE000
1FFFE000
1FFFE000
1FFFE000
0FFFE000
0FFFE000
07FFE000
07FFF000
03FFF000
03FFF000
01FFF000
00FFF000
00FFF000
007FF000
003FF800
001FF800
001FF800
000FFC00
0007FC00
0003FE00
0001FE00
0000FF00
00003F00
00001F80
00000FC0
000003E0
000000F0
0000003C
0000000F
00000001
ENDCHAR
STARTCHAR 0029
ENCODING 41
SWIDTH 343 0
DWIDTH 33 0
BBX 32 87 0 -21
BITMAP
C0000000
F0000000
3C000000
0F000000
07C00000
03E00000
01F80000
00FC0000
00FE0000
007F0000
007FC000
003FC000
003FE000
001FF000
001FF800
001FFC00
000FFE00
000FFE00
000FFF00
000FFF80
000FFF80
000FFFC0
000FFFE0
0007FFE0
0007FFF0
0007FFF0
0007FFF8
0007FFF8
0007FFF8
0007FFFC
0007FFFC
0007FFFC
0007FFFE
0007FFFE
0007FFFE
0007FFFE
0007FFFE
0007FFFF
0007FFFF
0007FFFF
0007FFFF
0007FFFF
0007FFFF
0007FFFF
0007FFFF
0007FFFF
0007FFFF
0007FFFF
0007FFFF
0007FFFF
0007FFFE
0007FFFE
0007FFFE
0007FFFE
0007FFFE
0007FFFC
0007FFFC
0007FFFC
0007FFF8
0007FFF8
0007FFF8
0007FFF0
0007FFF0
0007FFE0
000FFFE0
000FFFC0
000FFFC0
000FFF80
000FFF00
000FFF00
001FFE00
001FFC00
001FF800
001FF000
003FF000
003FE000
007FC000
007F8000
00FE0000
00FC0000
01F80000
03F00000
07C00000
0F000000
3C000000
F0000000
C0000000
ENDCHAR
STARTCHAR 002A
ENCODING 42
SWIDTH 395 0
DWIDTH 38 0
BBX 31 33 3 33
BITMAP
0007C000
000FE000
001FF000
001FF000
001FF000
001FF000
3C0FF078
7E0FE0FC
FF0FE1FE
FF87E3FE
FFC7C7FE
FFE3CFFE
7FF39FFE
7FFBBFFC
3FFDBFF0
07FF7C00
000F8000
0007F000
1FFF7FF8
7FFD3FFC
7FFB9FFE
FFF38FFE
FFE7C7FE
FFC7C3FE
7F87E1FE
7E0FE0FC
3C0FF038
001FF000
001FF000
001FF000
001FF000
000FE000
0007C000
ENDCHAR
STARTCHAR 002B
ENCODING 43
SWIDTH 572 0
DWIDTH 55 0
BBX 46 46 4 0
BITMAP
00003FF00000
00003FF00000
00003FF00000
00003FF00000
00003FF00000
00003FF00000
00003FF00000
00003FF00000
00003FF00000
00003FF00000
00003FF00000
00003FF00000
00003FF00000
00003FF00000
00003FF00000
00003FF00000
00003FF00000
00003FF00000
FFFFFFFFFFFC
FFFFFFFFFFFC
FFFFFFFFFFFC
FFFFFFFFFFFC
FFFFFFFFFFFC
FFFFFFFFFFFC
FFFFFFFFFFFC
FFFFFFFFFFFC
FFFFFFFFFFFC
FFFFFFFFFFFC
00003FF00000
00003FF00000
00003FF00000
00003FF00000
00003FF00000
00003FF00000
00003FF00000
00003FF00000
00003FF00000
00003FF00000
00003FF00000
00003FF00000
00003FF00000
00003FF00000
00003FF00000
00003FF00000
00003FF00000
00003FF00000
ENDCHAR
STARTCHAR 002C
ENCODING 44
SWIDTH 312 0
DWIDTH 30 0
BBX 19 37 5 -19
BITMAP
00C000
00C000
01E000
01F000
03F000
07F800
0FFE00
3FFF00
FFFFC0
FFFFE0
FFFFC0
3FFF00
1FFE00
0FFC00
07FC00
07F800
03F000
03F000
03E000
03E000
03E000
03C000
03C000
03C000
038000
038000
030000
070000
060000
060000
0C0000
0C0000
180000
300000
600000
C00000
800000
ENDCHAR
STARTCHAR 002D
ENCODING 45
SWIDTH 395 0
DWIDTH 38 0
BBX 25 8 6 21
BITMAP
FFFFFF80
FFFFFF80
FFFFFF80
FFFFFF80
FFFFFF80
FFFFFF80
FFFFFF80
FFFFFF80
ENDCHAR
STARTCHAR 002E
ENCODING 46
SWIDTH 312 0
DWIDTH 30 0
BBX 19 19 5 -1
BITMAP
00C000
00C000
01E000
01F000
03F000
07F800
0FFE00
3FFF00
FFFFC0
FFFFE0
FFFFC0
3FFF00
0FFC00
07F800
03F800
01F000
01E000
00E000
00C000
ENDCHAR
STARTCHAR 002F
ENCODING 47
SWIDTH 250 0
DWIDTH 24 0
BBX 26 67 -1 -2
BITMAP
00001FC0
00001FC0
00003FC0
00003FC0
00003F80
00003F80
00007F80
00007F00
00007F00
0000FF00
0000FF00
0000FE00
0000FE00
0001FE00
0001FC00
0001FC00
0003FC00
0003FC00
0003F800
0003F800
0007F800
0007F000
0007F000
000FF000
000FF000
000FE000
000FE000
001FE000
001FC000
001FC000
003FC000
003F8000
003F8000
003F8000
007F8000
007F0000
007F0000
00FF0000
00FE0000
00FE0000
00FE0000
01FE0000
01FC0000
01FC0000
03FC0000
03F80000
03F80000
03F80000
07F80000
07F00000
07F00000
0FF00000
0FE00000
0FE00000
0FE00000
1FE00000
1FC00000
1FC00000
3FC00000
3F800000
3F800000
3F800000
7F800000
7F000000
7F000000
FF000000
FE000000
ENDCHAR
STARTCHAR 0030
ENCODING 48
SWIDTH 614 0
DWIDTH 59 0
BBX 55 64 2 -1
BITMAP
000003FF000000
00001FFFF00000
0000FF83FC0000
0001FE00FF0000
0007FC007FC000
000FFC007FE000
001FF8003FF000
007FF8003FF800
00FFF8003FFC00
00FFF8003FFE00
01FFF8003FFF00
03FFF8003FFF80
07FFF8003FFFC0
07FFF8003FFFC0
0FFFF8003FFFE0
1FFFF8003FFFE0
1FFFF8003FFFF0
3FFFF8003FFFF0
3FFFF8003FFFF8
3FFFF8003FFFF8
7FFFF8003FFFF8
7FFFF8003FFFFC
7FFFF8003FFFFC
7FFFF8003FFFFC
FFFFF8003FFFFC
FFFFF8003FFFFE
FFFFF8003FFFFE
FFFFF8003FFFFE
FFFFF8003FFFFE
FFFFF8003FFFFE
FFFFF8003FFFFE
FFFFF8003FFFFE
FFFFF8003FFFFE
FFFFF8003FFFFE
FFFFF8003FFFFE
FFFFF8003FFFFE
FFFFF8003FFFFE
FFFFF8003FFFFE
FFFFF8003FFFFE
FFFFF8003FFFFC
7FFFF8003FFFFC
7FFFF8003FFFFC
7FFFF8003FFFFC
7FFFF8003FFFF8
3FFFF8003FFFF8
3FFFF8003FFFF8
3FFFF8003FFFF0
1FFFF8003FFFF0
1FFFF8003FFFE0
0FFFF8003FFFE0
07FFF8003FFFC0
07FFF8003FFF80
03FFF8003FFF80
01FFF8003FFF00
00FFF8003FFE00
007FF8003FFC00
003FF8003FF800
001FF8003FF000
000FFC007FE000
0007FC007FC000
0001FE00FF0000
00007F03FC0000
00001FFFF00000
000003FF800000
ENDCHAR
STARTCHAR 0031
ENCODING 49
SWIDTH 625 0
DWIDTH 60 0
BBX 42 63 10 0
BITMAP
000001FC0000
000001FC0000
000003FC0000
000007FC0000
000007FC0000
00000FFC0000
00001FFC0000
00003FFC0000
00007FFC0000
0001FFFC0000
0003FFFC0000
000FFFFC0000
007FFFFC0000
FFFFFFFC0000
FFFFFFFC0000
003FFFFC0000
001FFFFC0000
000FFFFC0000
000FFFFC0000
000FFFFC0000
000FFFFC0000
000FFFFC0000
000FFFFC0000
000FFFFC0000
000FFFFC0000
000FFFFC0000
000FFFFC0000
000FFFFC0000
000FFFFC0000
000FFFFC0000
000FFFFC0000
000FFFFC0000
000FFFFC0000
000FFFFC0000
000FFFFC0000
000FFFFC0000
000FFFFC0000
000FFFFC0000
000FFFFC0000
000FFFFC0000
000FFFFC0000
000FFFFC0000
000FFFFC0000
000FFFFC0000
000FFFFC0000
000FFFFC0000
000FFFFC0000
000FFFFC0000
000FFFFC0000
000FFFFC0000
000FFFFC0000
000FFFFC0000
000FFFFC0000
000FFFFC0000
000FFFFC0000
000FFFFC0000
000FFFFC0000
000FFFFC0000
000FFFFC0000
001FFFFC0000
001FFFFE0000
7FFFFFFFFFC0
7FFFFFFFFFC0
ENDCHAR
STARTCHAR 0032
ENCODING 50
SWIDTH 625 0
DWIDTH 60 0
BBX 50 64 4 -1
BITMAP
0000FFF8000000
000FFFFFC00000
007803FFF80000
01C000FFFE0000
0300003FFF8000
0E00001FFFC000
1E00000FFFF000
3E000007FFF800
3E000007FFFC00
7F000003FFFC00
7FFC0003FFFE00
FFFF0003FFFF00
FFFF8003FFFF00
FFFFC001FFFF80
FFFFC001FFFF80
FFFFC003FFFF80
FFFFE003FFFF80
FFFFE003FFFF80
FFFFC003FFFFC0
FFFFC003FFFFC0
FFFFC003FFFFC0
7FFFC007FFFF80
3FFF8007FFFF80
1FFF0007FFFF80
0FFE000FFFFF80
03F8001FFFFF80
0000001FFFFF00
0000003FFFFF00
0000007FFFFE00
000000FFFFFC00
000001FFFFFC00
000003FFFFF800
000007FFFFE000
00000FFFFFC000
00001FFFFF0000
00003FFFFC0000
00007FFFF00000
0001FFFF8000C0
0003FFF80000C0
0007FFC00000C0
000FFC00000180
001FC000000180
003E0000000180
00700000000180
00C00000000380
01800000000780
031FFFF8003F80
07FFFFFFFFFF80
0FFFFFFFFFFF80
0C7FFFFFFFFF00
181FFFFFFFFF00
180FFFFFFFFF00
1803FFFFFFFF00
3801FFFFFFFE00
3800FFFFFFFE00
3C007FFFFFFC00
3E003FFFFFFC00
3E001FFFFFF800
3F000FFFFFF800
3F0003FFFFF000
3F8001FFFFE000
3F80007FFF8000
1F00001FFF0000
04000007F80000
ENDCHAR
STARTCHAR 0033
ENCODING 51
SWIDTH 625 0
DWIDTH 60 0
BBX 51 64 5 -1
BITMAP
00003FFE000000
0007FFFFE00000
003F00FFFC0000
007C003FFF0000
01F8001FFFC000
03F8000FFFE000
07F8000FFFF000
0FFE0007FFF800
0FFF8007FFFC00
1FFFE007FFFE00
1FFFF007FFFE00
1FFFF803FFFE00
1FFFF803FFFF00
1FFFFC03FFFF00
1FFFFC03FFFF00
1FFFFC03FFFF00
1FFFF803FFFF00
0FFFF803FFFF00
0FFFF003FFFE00
07FFF003FFFE00
01FFC003FFFE00
007F0003FFFC00
00000007FFFC00
00000007FFF800
00000007FFF000
00000007FFE000
0000000FFF8000
0000001FFE0000
000000FFF80000
001FFFFF800000
001FFFFFE00000
000000FFFC0000
0000001FFF8000
0000000FFFE000
00000007FFF800
00000003FFFC00
00000003FFFE00
00000001FFFF00
00000001FFFF80
00000001FFFF80
00000001FFFFC0
03F80001FFFFC0
0FFF0000FFFFC0
3FFF8000FFFFE0
7FFFC000FFFFE0
7FFFC000FFFFE0
FFFFE000FFFFE0
FFFFE000FFFFE0
FFFFE000FFFFE0
FFFFE000FFFFE0
FFFFE000FFFFC0
FFFFC000FFFFC0
FFFF8001FFFFC0
FFFF8001FFFF80
7FFE0001FFFF00
7FFC0001FFFF00
3FF80003FFFE00
1FE00003FFFC00
0FC00007FFF000
07C0000FFFE000
01E0001FFF8000
007C00FFFC0000
001FFFFFE00000
0000FFFC000000
ENDCHAR
STARTCHAR 0034
ENCODING 52
SWIDTH 614 0
DWIDTH 59 0
BBX 54 63 2 0
BITMAP
00000000FFE000
00000001FFE000
00000003FFE000
00000003FFE000
00000007FFE000
0000000FFFE000
0000001FFFE000
0000001FFFE000
0000003FFFE000
0000007FFFE000
0000007FFFE000
000000FFFFE000
000001FFFFE000
000003FFFFE000
0000037FFFE000
0000077FFFE000
00000E7FFFE000
00000C7FFFE000
00001C7FFFE000
0000387FFFE000
0000707FFFE000
0000607FFFE000
0000E07FFFE000
0001C07FFFE000
0001807FFFE000
0003807FFFE000
0007007FFFE000
000E007FFFE000
000C007FFFE000
001C007FFFE000
0038007FFFE000
0030007FFFE000
0060007FFFE000
00E0007FFFE000
01C0007FFFE000
0180007FFFE000
0380007FFFE000
0700007FFFE000
0600007FFFE000
0C00007FFFE000
1C00007FFFE000
3800007FFFE000
3000007FFFE000
7FFFFFFFFFFFFC
FFFFFFFFFFFFFC
FFFFFFFFFFFFFC
FFFFFFFFFFFFFC
FFFFFFFFFFFFFC
0000007FFFE000
0000007FFFE000
0000007FFFE000
0000007FFFE000
0000007FFFE000
0000007FFFE000
0000007FFFE000
0000007FFFE000
0000007FFFE000
0000007FFFE000
0000007FFFE000
0000007FFFE000
000000FFFFF000
0001FFFFFFFFFC
0001FFFFFFFFFC
ENDCHAR
STARTCHAR 0035
ENCODING 53
SWIDTH 625 0
DWIDTH 60 0
BBX 52 67 5 -1
BITMAP
00000000002000
00000000002000
00000000006000
07000000004000
07FF000001C000
07FFFF8007C000
07FFFFFFFFC000
07FFFFFFFFC000
07FFFFFFFF8000
07FFFFFFFF8000
07FFFFFFFF0000
07FFFFFFFF0000
07FFFFFFFE0000
07FFFFFFFC0000
07FFFFFFF80000
07FFFFFFF00000
07FFFFFFC00000
07FFFFFF000000
067FFFFC000000
0600FFC0000000
06000000000000
06000000000000
06000000000000
060007FF800000
06007FFFF80000
0601C07FFF0000
0607001FFFC000
061C000FFFE000
06380007FFF800
06700003FFFC00
06E00003FFFE00
06C00001FFFF00
07800001FFFF00
07000000FFFF80
07000000FFFFC0
0E000000FFFFC0
0E000000FFFFC0
0C000000FFFFE0
00000000FFFFE0
000000007FFFE0
000000007FFFE0
000000007FFFF0
000000007FFFF0
03F800007FFFF0
0FFE00007FFFF0
3FFF80007FFFF0
7FFF80007FFFF0
7FFFC0007FFFE0
FFFFC0007FFFE0
FFFFE0007FFFE0
FFFFE000FFFFE0
FFFFE000FFFFC0
FFFFE000FFFFC0
FFFFC000FFFF80
FFFFC000FFFF80
FFFF8000FFFF00
FFFF0001FFFE00
7FFE0001FFFE00
7FF80001FFFC00
3FF00003FFF000
1FC00003FFE000
0FC00007FFC000
07E0000FFF0000
01F0003FFC0000
00FE00FFF00000
001FFFFF000000
0001FFE0000000
ENDCHAR
STARTCHAR 0036
ENCODING 54
SWIDTH 625 0
DWIDTH 60 0
BBX 51 64 5 -1
BITMAP
000000FFE00000
00000FFFFE0000
00007FC03F8000
0001FF001FE000
0007FE001FF000
000FFC001FF800
001FF8003FFC00
003FF8007FFE00
007FF800FFFE00
00FFF001FFFE00
01FFF003FFFE00
03FFF003FFFF00
07FFF003FFFE00
07FFF003FFFE00
0FFFF003FFFE00
0FFFF003FFFC00
1FFFF001FFFC00
1FFFF000FFF000
3FFFF0003FC000
3FFFF000000000
3FFFF000000000
7FFFF000000000
7FFFF000000000
7FFFF000000000
FFFFF01FF00000
FFFFF07FFF0000
FFFFF187FFC000
FFFFF203FFE000
FFFFF603FFF800
FFFFF401FFFC00
FFFFFC01FFFE00
FFFFF801FFFE00
FFFFF801FFFF00
FFFFF801FFFF80
FFFFF001FFFF80
FFFFF001FFFF80
FFFFF001FFFFC0
FFFFF001FFFFC0
FFFFF001FFFFC0
FFFFF001FFFFC0
FFFFF001FFFFC0
FFFFF001FFFFC0
7FFFF001FFFFE0
7FFFF001FFFFC0
7FFFF001FFFFC0
3FFFF001FFFFC0
3FFFF001FFFFC0
3FFFF001FFFFC0
1FFFF001FFFFC0
1FFFF001FFFF80
0FFFF001FFFF80
07FFF001FFFF80
07FFF001FFFF00
03FFF001FFFE00
01FFF001FFFE00
00FFF001FFFC00
00FFF001FFF800
007FF001FFF000
001FF803FFE000
000FF803FF8000
0007FC07FF0000
0001FE0FFC0000
00007FFFE00000
000007FE000000
ENDCHAR
STARTCHAR 0037
ENCODING 55
SWIDTH 625 0
DWIDTH 60 0
BBX 47 64 7 -1
BITMAP
E000FE0001E0
F007FF8003F0
F00FFFE003F8
F81FFFF003FC
F83FFFF803FC
F87FFFFE01FC
F0FFFFFF00FC
F1FFFFFF807C
F1FFFFFFC03E
F3FFFFFFE03E
F3FFFFFFF01E
F7FFFFFFFC0E
F7FFFFFFFE1E
FFFFFFFFFF3C
EFFFFFFFFFF4
EFFFFFFFFFEC
FFFFFFFFFFCC
FF01FFFFFF98
FC0007FFFE18
F000000FC038
F00000000070
E000000000E0
E000000001E0
C000000003C0
C00000000F80
C00000001F80
C00000007F00
C0000001FE00
C0000007FE00
C000001FFC00
0000007FF800
000001FFF800
000003FFF000
00000FFFF000
00001FFFE000
00003FFFE000
0000FFFFC000
0001FFFFC000
0003FFFFC000
0003FFFFC000
0007FFFF8000
000FFFFF8000
000FFFFF8000
001FFFFF8000
001FFFFF8000
003FFFFF8000
003FFFFF8000
003FFFFF8000
007FFFFF8000
007FFFFF8000
007FFFFF8000
007FFFFF8000
007FFFFF8000
007FFFFF0000
007FFFFF0000
007FFFFF0000
003FFFFF0000
003FFFFF0000
003FFFFE0000
001FFFFE0000
000FFFFC0000
0007FFF80000
0003FFF00000
00007F800000
ENDCHAR
STARTCHAR 0038
ENCODING 56
SWIDTH 625 0
DWIDTH 60 0
BBX 55 64 3 -1
BITMAP
00000FFF800000
0001FFFFFC0000
0007F800FFC000
001FC0000FF000
007F000003FC00
01FC000001FE00
03F80000007F80
07F80000007FC0
0FF00000003FC0
0FF00000003FE0
1FF00000001FE0
3FF00000001FF0
3FF00000001FF0
3FF80000001FF0
7FFC0000001FF0
7FFE0000001FF0
7FFF0000003FE0
7FFFE000003FE0
7FFFFC00003FC0
7FFFFF80007F80
7FFFFFF000FF00
7FFFFFFF01FC00
7FFFFFFFE3F000
7FFFFFFFFF8000
3FFFFFFFFF8000
3FFFFFFFFFE000
3FFFFFFFFFF800
1FFFFFFFFFFE00
0FFFFFFFFFFF80
0FFFFFFFFFFFC0
07FFFFFFFFFFE0
03FFFFFFFFFFF0
00FFFFFFFFFFF0
007FFFFFFFFFF8
001FFFFFFFFFF8
0007FFFFFFFFFC
001FFFFFFFFFFC
00FC7FFFFFFFFC
03F80FFFFFFFFE
0FF001FFFFFFFE
1FE0001FFFFFFE
3FE00003FFFFFE
7FC000003FFFFE
7FC0000007FFFE
FFC0000001FFFE
FF80000000FFFE
FF800000007FFE
FF800000003FFC
FF800000001FFC
FF800000001FFC
FF800000000FF8
FF800000000FF8
7F800000000FF0
7F800000000FF0
3FC00000000FE0
1FC00000001FC0
1FE00000001F80
07F00000003F00
03F80000007E00
01FE000000FC00
007FC00003F000
000FF8003FC000
0001FFFFFE0000
00000FFFE00000
ENDCHAR
STARTCHAR 0039
ENCODING 57
SWIDTH 625 0
DWIDTH 60 0
BBX 52 64 4 -1
BITMAP
00000FFE000000
0000FFFFC00000
0007FE0FF00000
001FFC07FC0000
003FF803FE0000
00FFF803FF8000
01FFF803FFC000
03FFF001FFE000
07FFF001FFF000
0FFFF001FFF800
1FFFF001FFF800
1FFFF001FFFC00
3FFFF001FFFE00
3FFFF001FFFE00
7FFFF001FFFF00
7FFFE001FFFF80
7FFFE001FFFF80
7FFFE001FFFF80
7FFFE001FFFFC0
FFFFE001FFFFC0
FFFFE001FFFFE0
FFFFE001FFFFE0
FFFFE001FFFFE0
7FFFE001FFFFE0
7FFFE001FFFFE0
7FFFE001FFFFF0
7FFFF001FFFFF0
7FFFF001FFFFF0
3FFFF001FFFFF0
3FFFF003FFFFF0
1FFFF003FFFFF0
1FFFF003FFFFF0
0FFFF007FFFFF0
07FFF005FFFFF0
03FFF80DFFFFF0
01FFF809FFFFF0
007FFC31FFFFF0
001FFFC1FFFFE0
0003FF01FFFFE0
00000001FFFFE0
00000001FFFFE0
00000001FFFFE0
00000001FFFFC0
00000001FFFFC0
007F0001FFFFC0
01FFE001FFFF80
07FFF001FFFF80
07FFF801FFFF00
0FFFF801FFFF00
0FFFF801FFFE00
0FFFF801FFFE00
1FFFF801FFFC00
1FFFF801FFF800
0FFFF801FFF800
0FFFF001FFF000
0FFFE003FFE000
0FFFC003FFC000
07FF8007FF8000
03FF0007FF0000
01FE000FFC0000
00FF001FF80000
003F807FE00000
000FFFFF000000
0000FFF0000000
ENDCHAR
STARTCHAR 003A
ENCODING 58
SWIDTH 312 0
DWIDTH 30 0
BBX 19 49 5 -1
BITMAP
00C000
00C000
01E000
01F000
03F800
07FC00
0FFE00
3FFF00
7FFFC0
FFFFE0
FFFFC0
3FFF00
0FFC00
07F800
03F800
03F000
01E000
00E000
00C000
000000
000000
000000
000000
000000
000000
000000
000000
000000
000000
000000
00C000
00C000
01E000
01F000
03F000
07F800
0FFE00
3FFF00
FFFFC0
FFFFE0
FFFFC0
3FFF00
0FFC00
07F800
03F800
01F000
01E000
00E000
00C000
ENDCHAR
STARTCHAR 003B
ENCODING 59
SWIDTH 312 0
DWIDTH 30 0
BBX 19 67 5 -19
BITMAP
00C000
00C000
01E000
01F000
03F800
07FC00
0FFE00
3FFF00
7FFFC0
FFFFE0
FFFFC0
3FFF00
0FFE00
07FC00
03F800
03F000
01E000
00E000
00C000
000000
000000
000000
000000
000000
000000
000000
000000
000000
000000
000000
00C000
00C000
01E000
01F000
03F000
07F800
0FFE00
1FFF00
FFFFC0
FFFFE0
FFFFC0
3FFF00
1FFE00
0FFC00
07FC00
07F800
03F000
03F000
03F000
03E000
03E000
03C000
03C000
03C000
038000
038000
030000
030000
030000
060000
040000
0C0000
180000
300000
600000
C00000
800000
ENDCHAR
STARTCHAR 003C
ENCODING 60
SWIDTH 552 0
DWIDTH 53 0
BBX 44 48 4 0
BITMAP
000000000020
0000000000E0
0000000007E0
000000001FE0
000000007FE0
00000001FFE0
00000007FFE0
0000001FFFE0
0000007FFFE0
000001FFFFE0
000007FFFFC0
00003FFFFE00
0000FFFFF800
0003FFFFE000
000FFFFF8000
003FFFFE0000
00FFFFF80000
03FFFFE00000
0FFFFF800000
3FFFFE000000
FFFFF8000000
FFFFC0000000
FFFF00000000
FFFC00000000
FFFE00000000
FFFF80000000
FFFFE0000000
FFFFF8000000
FFFFFE000000
3FFFFFC00000
0FFFFFF00000
03FFFFFC0000
00FFFFFF0000
001FFFFFC000
0007FFFFF000
0001FFFFFC00
00007FFFFF80
00001FFFFFE0
000007FFFFF0
000001FFFFF0
0000003FFFF0
0000000FFFE0
00000003FFE0
00000000FFE0
000000003FE0
000000000FE0
0000000003E0
000000000060
ENDCHAR
STARTCHAR 003D
ENCODING 61
SWIDTH 583 0
DWIDTH 56 0
BBX 48 31 4 8
BITMAP
FFFFFFFFFFFF
FFFFFFFFFFFF
FFFFFFFFFFFF
FFFFFFFFFFFF
FFFFFFFFFFFF
FFFFFFFFFFFF
FFFFFFFFFFFF
FFFFFFFFFFFF
FFFFFFFFFFFF
FFFFFFFFFFFF
000000000000
000000000000
000000000000
000000000000
000000000000
000000000000
000000000000
000000000000
000000000000
000000000000
000000000000
FFFFFFFFFFFF
FFFFFFFFFFFF
FFFFFFFFFFFF
FFFFFFFFFFFF
FFFFFFFFFFFF
FFFFFFFFFFFF
FFFFFFFFFFFF
FFFFFFFFFFFF
FFFFFFFFFFFF
FFFFFFFFFFFF
ENDCHAR
STARTCHAR 003E
ENCODING 62
SWIDTH 552 0
DWIDTH 53 0
BBX 43 49 4 0
BITMAP
C00000000000
F00000000000
FC0000000000
FF0000000000
FFC000000000
FFF000000000
FFFC00000000
FFFF00000000
FFFFE0000000
7FFFF8000000
3FFFFE000000
0FFFFF800000
03FFFFE00000
00FFFFF80000
003FFFFE0000
000FFFFF8000
0003FFFFE000
00007FFFF800
00001FFFFE00
000007FFFF80
000001FFFFE0
0000007FFFE0
0000001FFFE0
00000007FFE0
0000000FFFE0
0000003FFFE0
000000FFFFE0
000003FFFFE0
00000FFFFFE0
00003FFFFF80
0001FFFFFE00
0007FFFFF800
001FFFFFE000
007FFFFF8000
01FFFFFE0000
07FFFFF00000
1FFFFFC00000
7FFFFF000000
FFFFFC000000
FFFFF0000000
FFFFC0000000
FFFF00000000
FFFC00000000
FFE000000000
FF8000000000
FE0000000000
F80000000000
E00000000000
800000000000
ENDCHAR
STARTCHAR 003F
ENCODING 63
SWIDTH 437 0
DWIDTH 42 0
BBX 37 67 1 -1
BITMAP
0007FE0000
007FFFE000
01C1FFF800
03007FFE00
0C001FFF00
1C000FFF80
38000FFFC0
3C0007FFE0
7FE007FFF0
7FF807FFF0
7FFC07FFF8
FFFE07FFF8
FFFE07FFF8
FFFE07FFF8
7FFE07FFF8
7FFE0FFFF8
7FFE0FFFF8
3FFE0FFFF8
3FFC1FFFF8
1FF81FFFF0
07E03FFFF0
00003FFFE0
00007FFFC0
00007FFF80
0000FFFF00
0000FFFE00
0000FFF800
0001FFE000
0001FFC000
0003FF0000
0003FC0000
0007F80000
0007E01800
0007C01800
0007801800
000F801800
000F001800
0007001800
0006001800
0007003800
0007003000
0003807000
0003C1E000
0001FFC000
00007F0000
0000000000
0000000000
0000000000
0000100000
0000380000
00003C0000
00007C0000
0000FE0000
0001FF0000
0003FF8000
0007FFE000
003FFFF800
003FFFF800
001FFFF000
000FFFE000
0003FF8000
0001FF0000
0000FE0000
00007C0000
00007C0000
0000380000
0000180000
ENDCHAR
STARTCHAR 0040
ENCODING 64
SWIDTH 781 0
DWIDTH 75 0
BBX 66 67 5 -1
BITMAP
0000001FFF00000000
000001FFFFF8000000
00000FFFFFFF000000
00007FFFFFFFC00000
0001FFFFFFFFF00000
0003FFFFFFFFFC0000
000FFFF8007FFE0000
001FFF800007FF0000
003FFC000001FF8000
007FF80000007FC000
00FFE00000001FE000
01FFC00000000FF000
03FF0000000007F800
03FE0000080003FC00
07FC00001C0001FC00
0FFC00007E0001FE00
0FF80001FF8000FE00
1FF00007FFC000FF00
1FE0001FFFF0007F00
3FE0007FFFFC007F00
3FC001FDFFFF807F80
3FC003FCFFFF803F80
7FC00FFC7FFE003F80
7F800FFC1FFE003F80
7F801FFC0FFE003F80
FF801FFC0FFE003F80
FF001FFC0FFE003F80
FF001FFC0FFE003F80
FF001FFC0FFE001FC0
FF001FFC0FFE003F80
FF001FFC0FFE003F80
FF001FFC0FFE003F80
FF001FFC0FFE003F80
FF001FFC0FFE007F80
FF001FFC0FFE007F00
FF001FFC0FFE00FF00
FF001FFC0FFE00FE00
FF001FFC0FFE01FE00
FF001FFC0FFE03FC00
FF001FFC0FFE03FC00
FF001FFC0FFE07F800
FF001FFC0FFE0FF800
FF001FFC0FFE0FF000
7F801FFC1FFE1FE000
7F801FFC6FFE3FE000
7F801FFFCFFF7FC000
7FC01FFF0FFFFF8000
3FC00FFE07FFFF0000
3FE00FFC03FFFC0000
1FE003F001FFC00000
1FF001E000FE000000
0FF800C00070000000
0FF800000000000000
07FC00000000000000
03FE00000000000000
01FF00000000000000
00FF80000000040000
007FC00000001C0000
003FF00000007C0000
001FFC000003FC0000
000FFF00000FFE0000
0003FFF000FFF80000
0001FFFFFFFFE00000
00007FFFFFFF000000
00000FFFFFFC000000
000001FFFFE0000000
0000000FFE00000000
ENDCHAR
STARTCHAR 0041
ENCODING 65
SWIDTH 750 0
DWIDTH 72 0
BBX 69 67 1 -1
BITMAP
0001FF8000200000F8
001FFFF80060000FF8
007FFFFE0030007FC0
00FFFFFF803801FF00
0181FFFFC01807FE00
02007FFFE01C0FFC00
04003FFFF00C3FFC00
0C001FFFF00C7FF800
18000FFFF80EFFF800
18000FFFFC0EFFF800
380007FFFC07FFF800
7C0007FFFC07FFF800
7E0007FFFE07FFF800
7F0003FFFE07FFF800
FF8003FFFE07FFF800
FFC003FFFE07FFF800
FFF003FFFE07FFF800
FFF803FFFF07FFF800
FFFC03FFFF07FFF800
FFFE03FFFF07FFF800
FFFE01FFFF07FFF800
FFFF01FFFF07FFF800
FFFF01FFFF07FFF800
FFFF81FFFF07FFF800
FFFF81FFFF07FFF800
FFFF81FFFF07FFF800
7FFFC1FFFF07FFF800
7FFFC1FFFF07FFF800
3FFFC1FFFE07FFF800
3FFFC1FFFE07FFF800
0FFFC1FFFE07FFF800
07FFC1FFFE07FFF800
00FFC1FFFE07FFF800
007F81FFFC07FFF800
001F81FFFC07FFF800
000F81FFF807FFF800
000701FFF007FFF800
000701FFE007FFF800
000E01FFC007FFF800
001C01FF0007FFF800
003803FE0007FFF800
00F003F80007FFF800
07C003E00007FFF800
070003C00007FFF800
000007000007FFF800
00000C000007FFF800
00003F000007FFF800
00007FE00007FFF800
0001FFFC0007FFF800
0003FFFE000FFFF800
0007FFFF8017FFF800
000FFFFFC027FFF800
001FFFFFE047FFF808
003FFFFFF087FFFC18
007FFFFFF907FFFC30
00FFFFFFFE07FFFFE0
01FFFFFFFC07FFFF80
01C0FFFFF803FFFF00
03001FFFF003FFFE00
06000FFFE003FFFC00
060003FFC001FFF800
0C0001FF8001FFF000
080000FF0000FFE000
1800007E00007F8000
0000003C00003F0000
0000003800001E0000
000000100000040000
ENDCHAR
STARTCHAR 0042
ENCODING 66
SWIDTH 812 0
DWIDTH 78 0
BBX 73 67 1 -1
BITMAP
00007FE00001FF800000
0003FFFC000FFFF00000
001FFFFF001FFFF80000
003FFFFFC061FFFE0000
00C1FFFFE0C0FFFE0000
01807FFFF0807FFF0000
07001FFFF9807FFF8000
0E001FFFFD807FFF8000
0C000FFFFD003FFF8000
1E0007FFFF003FFFC000
3E0007FFFF003FFFC000
3F0003FFFF001FFFC000
7F8003FFFF001FFFC000
7FC003FFFF001FFFC000
7FE003FFFF001FFFC000
FFF001FFFF001FFFC000
FFF801FFFF000FFFC000
FFFC01FFFF000FFFC000
FFFE01FFFF0007FFC000
FFFE01FFFF0007FFE000
7FFF01FFFF0001FFE000
7FFF01FFFF0000FFF800
7FFF81FFFF00003FFF80
7FFF81FFFF000003FC00
3FFF81FFFF00003F8000
3FFF81FFFF0003FC0000
1FFF81FFFF003FFE0000
0FFF81FFFF03FFFF0000
07FF81FFFF3FFFFFC000
07FF81FFFFFFFFFFE000
03FF81FFFFFFFFFFF000
01FF01FFFE1FFFFFF800
00FF01FFFC03FFFFF800
007F01FFFC00FFFFFC00
003E03FFF8003FFFFC00
003C03FFE0001FFFFE00
003803FFC0000FFFFE00
007003FF800007FFFE00
03E003FE000003FFFE00
1F8003FC000001FFFE00
1E0003F0000000FFFE00
000003C00000007FFE00
000007000000003FFE00
00007F800000001FFE00
0007FFF00000001FFE00
001FFFFC0000000FFC00
003FFFFE0000000FFC00
007FFFFF80000007FC00
01FFFFFFC0000007F800
01FFFFFFE0000007F800
03FFFFFFF8000007F000
07FFFFFFFC000007E000
0787FFFFFE000007E000
0E03FFFFFF800007C000
0C00FFFFFFC000078000
0C007FFFFFE0000F0000
0C001FFFFFF8000E0000
18000FFFFFFC001C0000
180007FFFFFF00380000
000001FFFFFFC0E00000
000000FFFFFFFFC00000
0000007FFFFFFF000000
0000001FFFFFFE000000
0000000FFFFFF8000000
00000003FFFFE0000000
00000000FFFF00000000
000000001FF000000000
ENDCHAR
STARTCHAR 0043
ENCODING 67
SWIDTH 729 0
DWIDTH 70 0
BBX 70 67 2 0
BITMAP
000001FFC0000C0000
00001FFFF0001E0000
00007FF81C007E0000
0001FFF00E00FF0000
0007FFC00203FF8000
000FFFC00307FF8004
001FFF80011FFFE00C
003FFF0000BFFFF83C
007FFF0000FFFFFFF8
00FFFE00018FFFFFF0
01FFFE000307FFFFE0
03FFFE000703FFFFE0
07FFFC000F01FFFFC0
07FFFC001F007FFF00
0FFFFC003F803FFE00
0FFFFC007F8007F000
1FFFF800FFC0000000
1FFFF801FFE0000000
3FFFF803FFE0000000
3FFFF807FFF0000000
3FFFF807FFF8000000
7FFFF807FFF8000000
7FFFF80FFFFC000000
7FFFF80FFFFE000000
7FFFF00FFFFF000000
FFFFF00FFFFF000000
FFFFF00FFFFF800000
FFFFF007FFFFC00000
FFFFF007FFFFC00000
FFFFF007FFFFE00000
FFFFF003FFFFF00000
FFFFF003FFFFF00000
FFFFF001FFFFF80000
FFFFF001FFFFF80000
FFFFF000FFFFFC0000
FFFFF0007FFFFC0000
FFFFF0007FFFFC0000
7FFFF0303FFFFE0000
7FFFF0301FFFFE0000
7FFFF0301FFFFE0000
7FFFF0100FFFFE0000
7FFFF01807FFFE0000
3FFFF01803FFFE0000
3FFFF81803FFFE0000
3FFFF80C01FFFE0010
1FFFF80C01FFFE0030
1FFFF80C00FFFC0030
0FFFF80600FFFC0030
0FFFF803007FF80060
07FFFC03007FF00060
07FFFC01807FE000C0
03FFFC00C0FFC000C0
01FFFE0061FF800180
01FFFE003FFE000180
00FFFE0007F8000300
007FFF000000000700
003FFF000000000600
001FFF800000000C00
000FFFC00000001800
0007FFE00000007000
0001FFF0000000E000
0000FFF80000018000
00003FFE0000070000
00000FFF80001C0000
000001FFF001F00000
0000003FFFFF800000
00000001FFF0000000
ENDCHAR
STARTCHAR 0044
ENCODING 68
SWIDTH 781 0
DWIDTH 75 0
BBX 70 67 1 -1
BITMAP
0000007FFC00000000
00000FFFFFF0000000
00007FFFFFFE000000
0001FFFFFFFF800000
0007FFFFFFFFE00000
001FFFFFFFFFF80000
003FFFFFFFFFFE0000
00FFFFFFFFFFFF0000
01FFFFFFFFFFFFC000
03FFFFFFFFFFFFE000
07FFFFFFFFFFFFF000
0FFFFFFFFFFFFFF800
0FFFFFFFFFFFFFFC00
1FFFFFFFFFFFFFFE00
3FFFFFFFFFFFFFFF00
3FFFFFFFFFFFFFFF00
3FFFF00301FFFFFF80
7FFC0006000FFFFFC0
7FE000060001FFFFC0
7F00000C00007FFFE0
7E00000F00000FFFE0
F800001FC00007FFF0
F000003FF00001FFF0
F000003FFC00007FF0
E000007FFF00003FF8
E000007FFF80001FF8
400000FFFFE0000FF8
400000FFFFF00007FC
400000FFFFF80003FC
600001FFFFFC0001FC
200001FFFFFE0000FC
200001FFFFFF00007C
100000FFFFFF00007C
180000FFFFFF00003C
0E00007FFFFF00003C
0780F07FFFFF00003C
01FFE03FFFFF00001C
007E000FFFFF00001C
00000007FFFF00001C
00000003FFFE00001C
00000000FFFE00001C
000000003FFC00001C
000000000FFC00001C
0000000007F8000018
0000000001F0000018
00003FE000E0000018
0001FFFC00C0000018
0007FFFF80C0000030
001FFFFFE180000030
003FFFFFFB00000060
007FFFFFFF00000060
00FFFFFFFFC00000C0
01FFFFFFFFE00001C0
01FFFFFFFFF8000380
03FFFFFFFFFE000F00
07FFFFFFFFFFC03F00
0707FFFFFFFFFFFE00
0E01FFFFFFFFFFFC00
0C007FFFFFFFFFF800
0C001FFFFFFFFFF000
180003FFFFFFFFE000
180000FFFFFFFFC000
1800003FFFFFFF0000
0800000FFFFFFE0000
00000003FFFFF80000
000000007FFFC00000
000000000FFC000000
ENDCHAR
STARTCHAR 0045
ENCODING 69
SWIDTH 781 0
DWIDTH 75 0
BBX 72 68 2 0
BITMAP
000000000000030000
000001FFC000070000
00001FFFF8001F8000
00007FF07E007FC000
0001FFC00F01FFC001
0007FF800787FFF003
000FFF0003CFFFFC0F
001FFF0001FFFFFFFE
003FFE0001FFFFFFFC
007FFE00039FFFFFF8
00FFFC000F07FFFFF0
01FFFC001F03FFFFE0
03FFFC003F00FFFF80
03FFF8007F003FFE00
07FFF800FF800FF000
0FFFF801FFC0000000
0FFFF803FFC0000000
1FFFF807FFE0000000
1FFFF00FFFF0000000
3FFFF00FFFF0000000
3FFFF00FFFF8003F80
3FFFF01FFFFC00FFE0
7FFFF01FFFFC010FF0
7FFFF01FFFFE0207F8
7FFFF01FFFFF020FFC
7FFFF01FFFFF041FFC
7FFFF00FFFFF841FFE
FFFFE00FFFFFC43FFE
FFFFE00FFFFFC83FFE
FFFFE007FFFFE87FFE
FFFFE007FFFFF87FFE
FFFFE003FFFFF87FFE
FFFFE001FFFFF87FFE
FFFFE001FFFFF83FFC
FFFFE000FFFFFC3FFC
FFFFE0007FFFFC1FF8
FFFFE0007FFFFC07E0
7FFFE0603FFFFC0000
7FFFE0601FFFFE0000
7FFFE0601FFFFE0000
7FFFE0600FFFFE0000
7FFFE07007FFFE0000
7FFFE03003FFFE0000
3FFFE03003FFFE0000
3FFFE03801FFFE0000
3FFFF01800FFFE0000
1FFFF01800FFFC0000
1FFFF00C007FFC0000
0FFFF00E007FF80000
0FFFF006007FF00000
07FFF003007FF00000
07FFF801C07FC00080
03FFF800E0FF8000C0
01FFF8007FFE0001C0
01FFF8001FF0000180
00FFFC000000000380
007FFC000000000700
003FFE000000000600
001FFE000000000C00
000FFF000000003C00
0003FF800000007000
0001FFC0000000E000
0000FFE0000003C000
00003FF800000F0000
00000FFE00007C0000
000001FFC007F00000
0000003FFFFF800000
00000001FFF0000000
ENDCHAR
STARTCHAR 0046
ENCODING 70
SWIDTH 729 0
DWIDTH 70 0
BBX 66 87 1 -21
BITMAP
00003FF80000000000
0003FFFF8000000000
001FFFFFF000038000
007FFFFFFC0001F000
00FFFFFFFF00003C00
01FFFFFFFFC0000E00
07FFFFFFFFF0000700
07FFFFFFFFFC000180
0FFFFFFFFFFF0001C0
1FFFFFFFFFFF8000C0
3FFFFFFFFFFFE000C0
3FFFFFFFFFFFF800C0
7FFFFFFFFFFFFE00C0
7FFFFFFFFFFFFF83C0
7F807FFFFFFFFFFFC0
7E0007FFFFFFFFFFC0
F800007FFFFFFFFF80
F000000FFFFFFFFF80
E0000003FFFFFFFF00
E00000007FFFFFFE00
E00000000FFFFFFC00
C000000003FFFFF800
40000000007FFFE000
40000000003FFF0000
600000000070000000
6000000C00E0000000
3000000C01E0000000
3800003803C003F800
1C00007007C00FFE00
0E0000E007E018FF00
070003C00FE030FF80
03E01F801FE061FFC0
00FFFE003FF063FFC0
003FF0003FF067FFC0
000000007FF8C7FFC0
000000007FFCCFFFC0
000000007FFCCFFFC0
000000007FFE4FFFC0
00000000FFFF67FF80
000FF000FFFFE7FF80
007FFC00FFFFE3FF00
00FFFF00FFFFE0FC00
03C3FF80FFFFF00000
0701FFC07FFFF00000
0E01FFE07FFFF80000
0C01FFF07FFFFC0000
1803FFF07FFFFC0000
3003FFF83FFFFE0000
3007FFF83FFFFF0000
6007FFF83FFFFF0000
400FFFF81FFFFF8000
401FFFF80FFFFFC000
001FFFF80FFFFFC000
003FFFF807FFFFE000
003FFFF803FFFFE000
007FFFF803FFFFF000
00FFFFF001FFFFF000
00FFFFF000FFFFF000
01FFFFE0007FFFF800
01FFFFE0003FFFF800
03FFFFC0003FFFF800
03FFFFC0001FFFF800
03FFFF80000FFFF800
03FFFF000007FFF800
07FFFF000007FFF800
07FFFE000003FFF800
07FFFE000003FFF800
07FFFC000003FFF800
07FFFC000001FFF800
03FFF8000001FFF000
03FFF8000001FFF000
03FFF0000001FFF000
01FFF0000001FFE000
01FFF0000001FFE000
00FFE0000001FFC000
00FFE0000001FF8000
007FE0000001FF8000
003FF0000003FF0000
001FF0000003FE0000
000FF8000007FC0000
0007F800000FF00000
0003FC00001FE00000
0000FF00003FC00000
00003F8000FF000000
00000FF007FC000000
000001FFFFE0000000
0000001FFE00000000
ENDCHAR
STARTCHAR 0047
ENCODING 71
SWIDTH 875 0
DWIDTH 84 0
BBX 77 67 3 -1
BITMAP
0000007FF00040000E00
000007FFFE00C000FE00
00001FF807838007E000
00007FE000E6001F8000
0001FF80003C003F0000
0003FF00007C00FF0000
000FFE0000EC01FFE000
001FFE0003C603FFF000
003FFC00078707FFFC00
007FFC000F8307FFFE00
00FFFC001F018FFFFE00
01FFF8003F018FFFFF00
01FFF8007F000FFFFF00
03FFF800FF800FFFFF00
07FFF801FF8007FFFF00
07FFF003FFC007FFFF00
0FFFF003FFC003FFFF00
0FFFF007FFE003FFFE00
1FFFF007FFE001FFFE00
1FFFF00FFFF000FFFC00
3FFFF00FFFF000FFF800
3FFFF01FFFF8007FE000
3FFFF01FFFF8007FC000
7FFFE01FFFFC00FE0000
7FFFE01FFFFC01FFE000
7FFFE01FFFFE03FFF800
7FFFE01FFFFE07FFFE00
7FFFE01FFFFF1FFFFF00
FFFFE01FFFFF71FFFF80
FFFFE00FFFFFC0FFFFC0
FFFFE00FFFFF807FFFE0
FFFFE00FFFFFC07FFFE0
FFFFE007FFFFC07FFFF0
FFFFE007FFFFE03FFFF0
FFFFE003FFFFF03FFFF8
FFFFE003FFFFF03FFFF8
FFFFE001FFFFF03FFFF8
FFFFE001FFFFF83FFFF8
7FFFE000FFFFF83FFFF8
7FFFE000FFFFF83FFFF8
7FFFE0007FFFF83FFFF8
7FFFE0C07FFFF83FFFF8
7FFFF0C03FFFF83FFFF8
3FFFF0403FFFF83FFFF8
3FFFF0601FFFF83FFFF8
3FFFF0601FFFF83FFFF0
1FFFF0600FFFF03FFFF0
1FFFF03007FFF03FFFF0
0FFFF03007FFE03FFFE0
0FFFF81803FFE03FFFE0
07FFF80803FFC03FFFE0
07FFF80C01FF803FFFC0
03FFFC0603FF003FFF80
01FFFC0383FE007FFF80
00FFFC00FFF8007FFF00
007FFE003FC0007FFE00
003FFE00000000FFFC00
001FFF00000000FFF800
000FFF80000001FFF000
0003FF80000003FFC000
0001FFC0000007FF8000
00007FE000000FFE0000
00001FF800003FF80000
000007FE0000FFE00000
000000FFC00FFF800000
0000001FFFFFFC000000
000000007FFF80000000
ENDCHAR
STARTCHAR 0048
ENCODING 72
SWIDTH 833 0
DWIDTH 80 0
BBX 74 87 1 -20
BITMAP
00000000002000000000
0000000000F000000000
0000000003F000000000
000000000FF800004000
000000003FFC0000C000
00000000FFFE00008000
00000003FFFF00038000
0000001FFFFF80070000
00000073FFFFF03E0000
000003C1FFFFFFFC0000
00000F80FFFFFFF80000
00003F00FFFFFFF00000
0000FE007FFFFFE00000
0003FE003FFFFFC00000
0007FC001FFFFF000000
001FFC000FFFFE000000
003FFC0003FFF8000000
003FFC00007FC0000000
007FFE00000000000000
007FFE00000000000000
00FFFE00000000000000
00FFFF00000000000000
00FFFF000003FF800000
00FFFF00001FFFF00000
00FFFF80007FFFFE0000
00FFFF8001FFFFFF0000
00FFFFC003FFFFFFC000
00FFFFC00FFFFFFFE000
00FFFFE01FFFFFFFF000
00FFFFF07FFFFFFFF800
007FFFF0F01FFFFFFC00
007FFFFB8003FFFFFE00
007FFFFE0000FFFFFE00
003FFFFE00007FFFFF00
003FFFFE00001FFFFF00
001FFFFF00000FFFFF80
001FFFFF80000FFFFF80
000FFFFF800007FFFF80
0007FFFFC00003FFFFC0
0007FFFFC00003FFFFC0
0003FFFFE00001FFFFC0
0001FFFFE00001FFFFC0
0001FFFFE00000FFFFC0
0FE0FFFFE00000FFFFC0
3FF07FFFE00000FFFFC0
3FF87FFFE000007FFFC0
7FFC3FFFE000007FFFC0
7FFC3FFFE000007FFFC0
FFFC1FFFE000007FFFC0
FFFC0FFFE000007FFFC0
FFFC0FFFC000007FFF80
FFFC07FFC000007FFF80
7FFC07FF8000007FFF00
7FF807FF0000007FFF00
7FF807FF0000007FFE00
3FF007FE0000007FFE00
3FE007FC0000007FFC00
1FC00FF80000007FF800
1F800FE00000007FF000
0FC01FC00000007FF000
03E07F00000000FFE000
01FFFC00FF0000FF8000
003FC007FFE000FF0000
0000001FFFF001FE0000
0000003FFFFC01FC0000
0000007FFFFE03F00000
000000FFFFFF03C00000
000001FFFFFF07800000
000003FFFFFF8E000000
000003FFFFFF90000000
000007FFFFFFE0000000
00000781FFFE00000000
000007007FF800000000
00000E001FE000000000
00000E000FC000000000
00000C00070000000000
00000C00020000000000
00000E00000004000000
0000060000000C000000
00000600000018000000
00000300000070000000
000003800000E0000000
000001E0000380000000
000000F0000F00000000
0000007E00FC00000000
0000001FFFF000000000
00000001FF8000000000
ENDCHAR
STARTCHAR 0049
ENCODING 73
SWIDTH 656 0
DWIDTH 63 0
BBX 59 71 1 -3
BITMAP
00001FE000002000
0000FFFC00003000
0003FFFF00001C00
000FFFFFE0000E00
001FFFFFF8000700
003FFFFFFF000300
007FFFFFFFC00380
00FFFFFFFFF00380
01FFFFFFFFFC0380
03FFFFFFFFFF8780
03FFFFFFFFFFFF80
03F03FFFFFFFFF80
07C007FFFFFFFF80
070000FFFFFFFF80
0600003FFFFFFF00
0E00000FFFFFFF00
0E000003FFFFFE00
0C000000FFFFFE00
0C0000001FFFFC00
0C00000007FFF000
0600000001FFE000
06000000003F0000
0600000000000000
0300000000000000
03800080003FC000
01C0018000FFF800
00F8078003FF0E00
003FFE0007FE0700
000FF0000FFC0300
000000001FFC0180
000000003FFE00C0
000000003FFE0040
000000007FFF0060
000000007FFF0020
000000007FFF0020
00000000FFFF8000
00000000FFFF8000
00000000FFFFC000
00000000FFFFC000
000000007FFFE000
000000007FFFE000
000000007FFFF000
000000007FFFF000
007F00003FFFF800
03FFE0003FFFF800
07FFF0001FFFFC00
0FFFFC001FFFFC00
1FFFFE000FFFFE00
3FFFFE000FFFFE00
38FFFF000FFFFE00
707FFF0007FFFF00
607FFF0007FFFF00
603FFF8003FFFF00
603FFF8003FFFF00
E01FFFC001FFFF00
C01FFFC001FFFF00
C01FFFC000FFFF00
C00FFFE000FFFF00
400FFFE0007FFF00
6007FFE0007FFE00
6007FFF0003FFE00
6003FFF0003FFC00
0003FFF0003FFC00
0001FFF8003FF800
0000FFF8003FF000
00007FFC003FE000
00003FFE007FC000
00001FFF00FF0000
000007FF81FC0000
000001FFFFF00000
0000000FFF000000
ENDCHAR
STARTCHAR 004A
ENCODING 74
SWIDTH 656 0
DWIDTH 63 0
BBX 65 87 -4 -21
BITMAP
000003FE0000000000
00001FFFC000000000
00007FFFF000000000
0001FFFFFC00000000
0007FFFFFF00000000
000FFFFFFFC0000000
001FFFFFFFE0000000
003FFFFFFFF8000000
007FFFFFFFFC000000
007FFFFFFFFE000600
00FFFFFFFFFF800600
01F81FFFFFFFC00600
01E007FFFFFFF00600
03C001FFFFFFF80E00
0380007FFFFFFE0E00
0380003FFFFFFF3E00
0300000FFFFFFFFC00
07000007FFFFFFFC00
06000001FFFFFFFC00
06000000FFFFFFF800
060000003FFFFFF000
060000001FFFFFF000
0600000007FFFFE000
0300000003FFFFC000
0300000000FFFF8000
03000000003FFE0000
038000000007F00000
018000000000000000
01C000000000000000
00E000000000FF0000
007000018007FFC000
003C0007000FF87000
001F003C003FF01800
0007FFF0007FE00C00
0000FF80007FF00400
0000000000FFF00600
0000000001FFF80200
0000000001FFF80300
0000000003FFFC0100
0000000003FFFC0180
0000000003FFFE0000
0000000007FFFF0000
0000000007FFFF0000
0000000007FFFF8000
0000000007FFFF8000
0000000007FFFFC000
0000000003FFFFC000
0000000003FFFFE000
0000000003FFFFE000
0000000001FFFFF000
0000000001FFFFF000
0000000001FFFFF800
0000000000FFFFF800
007F800000FFFFF800
01FFF000007FFFFC00
07FFFC00007FFFFC00
0FFFFE00003FFFFC00
1FFFFF00003FFFFE00
3FFFFF80001FFFFE00
3FFFFF80001FFFFE00
71FFFFC0000FFFFE00
60FFFFC0000FFFFE00
60FFFFE00007FFFE00
E07FFFE00007FFFE00
C07FFFE00003FFFE00
C07FFFF00003FFFE00
C03FFFF00001FFFE00
C03FFFF00001FFFE00
403FFFF80000FFFE00
401FFFF80000FFFC00
601FFFF800007FFC00
601FFFFC00007FF800
200FFFFC00003FF800
000FFFFC00003FF000
0007FFFE00001FF000
0007FFFE00001FE000
0003FFFE00001FC000
0003FFFF00001F8000
0001FFFF00001F0000
0000FFFF80001E0000
00007FFF80003C0000
00003FFFC000380000
00001FFFE000600000
00000FFFF801800000
000003FFFE06000000
000000FFFFF8000000
0000000FFF00000000
ENDCHAR
STARTCHAR 004B
ENCODING 75
SWIDTH 708 0
DWIDTH 68 0
BBX 65 67 1 -1
BITMAP
00000007FFC0000000
000001FFFFFE000000
00000FFF801F800000
00007FF80001E00000
0001FFE00000780000
0007FFC000001C0000
000FFF800000070000
003FFE000000038000
007FFE003FE001C000
00FFFC01FFFC00E000
01FFF807FFFF007000
03FFF80FFFFFC03000
07FFF01FFFFFE01800
07FFF03FFFFFF00C00
0FFFF07FFFFFF80C00
0FFFE07FFFFFFC0600
1FFFE0FFFFFFFC0200
1FFFE0F81FFFFE0300
1FFFE1E007FFFE0300
1FFFE1C003FFFF0100
3FFFE1C003FFFF0180
3FFFF18001FFFF0180
3FFFF38001FFFF8080
3FFFF38000FFFF8080
3FFFF38000FFFF8080
3FFFF30000FFFF8080
1FFFF90000FFFF8080
1FFFF90000FFFF8080
1FFFFD0000FFFF0000
1FFFFD0000FFC00000
0FFFFF0003F0000000
0FFFFF803FFC000000
0FFFFF83FFFF000000
07FFFFBFFFFFC00000
07FFFFF9FFFFE00000
03FFFFE01FFFF00000
03FFFFE00FFFF00000
01FFFFF007FFF80000
00FFFFF007FFF80000
007FFFF803FFF80000
003FFFF803FFF80000
001FFFFC03FFF80000
000FFFFC03FFF80000
0007FFFE03FFF80000
0003FFFE03FFF80000
0001FFFE03FFF80000
0000FFFE03FFF80000
00007FFE03FFF80000
0FC03FFE03FFF80000
1FF01FFE03FFFC0000
3FF80FFE03FFFC0000
7FFC07FE03FFFC0000
7FFC03FE01FFFC0000
FFFC03FE01FFFE0080
FFFC01FE01FFFF0780
FFFC00FE01FFFFFF00
FFFC00FC01FFFFFC00
7FFC00FC01FFFFF800
7FFC00F801FFFFE000
7FFC00F800FFFFC000
3FF800F000FFFF0000
1FF801F0007FFE0000
0FF801E0003FF80000
07FC03C0001FF00000
01FF1F00000FE00000
007FFC000003C00000
0007E0000000800000
ENDCHAR
STARTCHAR 004C
ENCODING 76
SWIDTH 583 0
DWIDTH 56 0
BBX 53 67 1 -1
BITMAP
00000FFE000000
0000FFFFF00000
0007F801FE0000
001FC0007F8000
003F80001FC000
00FE00000FF000
01FE000007F800
03FC000003FC00
07FC000003FE00
0FFC000003FF00
0FFC000001FF80
1FFC000001FF80
1FFC000003FFC0
3FFE000003FFC0
3FFE000007FFC0
3FFF000007FFC0
3FFF80000FFFC0
3FFF80001FFFE0
3FFFC0001FFFE0
3FFFE0003FFFC0
3FFFF0007FFFC0
3FFFF8007FFFC0
3FFFF800FFFFC0
3FFFFC00FFFF80
1FFFFE01FFFF80
1FFFFE01FFFF80
1FFFFF03FFFF00
0FFFFF03FFFE00
07FFFF83FFFE00
07FFFF83FFFC00
03FFFFC3FFF800
01FFFFC3FFF800
00FFFF83FFF000
007FFF83FFE000
003FFF81FFE018
003FFF81FFC010
001FFF00FF8030
000FFE00FF8060
0007FC007F80C0
0003F8003FC380
0003F0000FFF00
0003C00003F800
00078000000000
000E0000000000
001C0000000000
007FC000000000
00FFF000000000
01FFFC00000000
03FFFF00000060
0FFFFFC0000060
1FFFFFE0000060
1FFFFFF8000060
3FFFFFFC0000E0
71FFFFFF0000C0
607FFFFFC001C0
C03FFFFFF003C0
C00FFFFFFC0F80
C007FFFFFFFF80
8003FFFFFFFF00
8001FFFFFFFE00
00007FFFFFFE00
00003FFFFFFC00
00001FFFFFF800
000007FFFFE000
000001FFFFC000
0000007FFF0000
0000000FF80000
ENDCHAR
STARTCHAR 004D
ENCODING 77
SWIDTH 1020 0
DWIDTH 98 0
BBX 98 67 -1 -1
BITMAP
00007FC00003FE00001FE00000
0007FFFC001FFFC000FFFC0000
001FFFFF003FFFF003FFFF0000
003FFFFF807FFFFC07FFFF8000
00FFFFFFC0FFFFFE0C3FFF8000
01FFFFFFE1FFFFFF181FFFC000
03C0FFFFF1C7FFFF981FFFC000
03003FFFFB81FFFFB00FFFE000
06001FFFFF81FFFFF00FFFE000
0C000FFFFF00FFFFE00FFFE000
0C0007FFFF00FFFFE00FFFE000
1C0007FFFF007FFFE00FFFE000
1E0003FFFF007FFFE00FFFE000
1F0003FFFF007FFFE00FFFE000
3F8003FFFF007FFFE00FFFE000
3FC001FFFF003FFFE00FFFE000
3FF001FFFF803FFFE00FFFE000
3FF801FFFF803FFFE007FFE000
7FFC01FFFF803FFFE007FFE000
7FFF00FFFF803FFFE003FFE000
7FFF80FFFF803FFFE003FFF000
7FFFC0FFFF803FFFE001FFF800
7FFFE0FFFF803FFFE0007FFF80
7FFFE0FFFF803FFFE00000FF80
7FFFF0FFFFC03FFFE00001FC00
3FFFF0FFFFC03FFFE0000FE000
3FFFF8FFFFC03FFFE0003FC000
1FFFF8FFFFC03FFFE001FF8000
1FFFF8FFFFC03FFFE007FF0000
0FFFF8FFFFC03FFFE00FFF0000
07FFF8FFFFC03FFFE01FFF0000
03FFF8FFFFC03FFFE03FFE0000
01FFF8FFFFC03FFFE03FFE0000
00FFF8FFFFC03FFFE07FFE0000
007FF07FFFC03FFFE07FFE0000
001FF07FFFC03FFFE07FFE0000
0007E07FFF801FFFC07FFE0000
0003E07FFF801FFFC0FFFE0000
0003C07FFF001FFFC0FFFE0000
0007807FFF001FFF80FFFE0000
001E007FFE001FFF80FFFF0000
00F0007FFE001FFF00FFFF0000
0F80007FFC001FFF00FFFF0000
0800007FF8001FFE00FFFF0000
0000007FF0001FFE00FFFF0000
0002007FF0001FFC00FFFF0000
0007007FE0001FF800FFFF0000
0007807FC1801FF800FFFF0000
000FC07F83C01FF000FFFF0000
001FE07F07F01FE000FFFF0000
003FF07F07F81FC000FFFF0000
007FFC7E0FFC1F8000FFFF0000
007FFE7C1FFE1F8000FFFF0000
00FFFF783FFF1F0000FFFF8040
01FFFFF07FFF9E00007FFF81C0
03FFFFF07FFFDC00007FFFE380
07FFFFE0FFFFF800007FFFFE00
0EFFFFC13FFFF000007FFFFC00
0C7FFF831FFFE000003FFFF800
183FFF060FFFE000003FFFE000
301FFF0407FFC000001FFFC000
600FFE0803FF8000000FFF8000
E003FC1001FF00000007FE0000
4001F830007E00000003FC0000
0000F060003C00000001F80000
00007000001800000000E00000
00002000000800000000400000
ENDCHAR
STARTCHAR 004E
ENCODING 78
SWIDTH 760 0
DWIDTH 73 0
BBX 74 67 0 -1
BITMAP
00003FF000003FE00000
0003FFFF0001FFF80000
000FFFFFE007FFFE0000
001FFFFFF00FFFFF0000
007FFFFFFC1C7FFF8000
00FFFFFFFE103FFFC000
01C07FFFFF303FFFE000
01801FFFFF301FFFE000
03000FFFFFA01FFFE000
060007FFFFE01FFFF000
060003FFFFE00FFFF000
0E0001FFFFE00FFFF000
0F8001FFFFE00FFFF000
1FC000FFFFE00FFFF000
1FE000FFFFE00FFFF000
1FF000FFFFE007FFF000
1FF8007FFFE007FFF000
3FFC007FFFE007FFF000
3FFE007FFFE003FFF800
3FFF007FFFE003FFF800
3FFFC07FFFE001FFF800
3FFFE07FFFF000FFFC00
3FFFE03FFFF0007FFE00
3FFFF03FFFF0001FFFC0
3FFFF83FFFF000003FC0
1FFFF83FFFF00003F800
1FFFFC3FFFF0001FE000
0FFFFC3FFFF000FFC000
0FFFFC3FFFF003FFC000
07FFFC3FFFF00FFF8000
03FFFC3FFFF01FFF8000
01FFFC3FFFF03FFF0000
00FFFC3FFFF07FFF0000
007FF83FFFF07FFF0000
001FF81FFFE0FFFE0000
000FF81FFFE0FFFE0000
0003F01FFFE0FFFE0000
0001E01FFFE1FFFE0000
0001E01FFFE1FFFE0000
0003C01FFFC1FFFE0000
0007001FFFC1FFFE0000
007C001FFF81FFFE0000
07F0001FFF81FFFE0000
0400001FFF01FFFE0000
0000001FFF01FFFE0000
0001001FFE01FFFE0000
0003801FFC01FFFE0000
0007C01FF801FFFE0000
000FE01FF001FFFE0000
001FF01FE001FFFE0000
003FF81FC001FFFF0000
007FFC1F8001FFFF0000
00FFFE1F0001FFFF0000
01FFFF1E0001FFFF0040
03FFFF9C0000FFFF81C0
07FFFFD80000FFFFC380
0FFFFFF00000FFFFFE00
1DFFFFE00000FFFFFC00
38FFFFC000007FFFF800
707FFF8000007FFFE000
E03FFF0000003FFFC000
401FFE0000001FFF8000
0007FC0000000FFE0000
0003F800000007FC0000
0001F000000003F80000
0000E000000000E00000
00004000000000400000
ENDCHAR
STARTCHAR 004F
ENCODING 79
SWIDTH 802 0
DWIDTH 77 0
BBX 73 67 0 -1
BITMAP
00000003FFE000000000
0000007FFFFF80000000
000003CFFFFFF0000000
00000F1FFFFFFC000000
00003E1FFFFFFF000000
00007C3FFFFFFFC00000
0001FC3FFFFFFFF00000
0003F83FFFFFFFF80000
0007F83FFFFFFFFC0000
000FF83FFFFFFFFE0000
001FF83FFFFFFFFF0000
003FFC3FFFFFFFFF8000
003FFC1FFFFFFFFFC000
007FFC1FFFFFFFFFE000
00FFFE0FFFFFFFFFE000
00FFFE07FFFFFFFFF000
00FFFF03FFFFFFFFF800
01FFFF00FFFFFFFFF800
01FFFF803FFFFFFFFC00
01FFFF80000007FFFC00
01FFFFC00000003FFE00
01FFFFC000000007FE00
01FFFFE000000001FE00
01FFFFE0000000007F00
01FFFFF0000000003F00
00FFFFF0000000001F00
00FFFFF0000000000F00
007FFFF8000000000F00
007FFFF8000000000780
007FFFF8000000000380
403FFFF8000000000380
403FFFF8000000000380
601FFFF8000000000380
601FFFF0000000000180
200FFFF0000000000180
300FFFF0000000000180
1007FFE0000000000180
1807FFC0000000000180
0C07FF80000000000180
060FFE00000000000180
01FFF800000000000180
007FC000000000000100
00000000000000000100
0001FF00000000000300
000FFFF0000000000300
003FFFFC000000000200
007FFFFF800000000600
01FFFFFFC00000000600
03FFFFFFF00000000C00
07FFFFFFFC0000001C00
0FFFFFFFFF0000001800
1FFFFFFFFFC000003800
1C1FFFFFFFF000007000
3007FFFFFFF80000E000
6001FFFFFFFF0001E000
6000FFFFFFFFE00FC000
40003FFFFFFFFFFF8000
C0001FFFFFFFFFFF0000
C0000FFFFFFFFFFE0000
000003FFFFFFFFFC0000
000001FFFFFFFFF80000
0000007FFFFFFFF00000
0000003FFFFFFFC00000
0000000FFFFFFF000000
00000003FFFFFC000000
00000000FFFFF0000000
000000000FFE00000000
ENDCHAR
STARTCHAR 0050
ENCODING 80
SWIDTH 802 0
DWIDTH 77 0
BBX 74 87 0 -21
BITMAP
0000FFE000003FE00000
000FFFFF0001FFFE0000
003FFFFFC007FFFF0000
00E03FFFF00C3FFFC000
01800FFFF8181FFFC000
070007FFFC101FFFE000
0E0003FFFE301FFFE000
0E0003FFFF201FFFF000
1F0001FFFF601FFFF000
3F8001FFFF601FFFF000
3FC001FFFFE01FFFF000
7FE000FFFFE01FFFF000
7FF000FFFFC01FFFF000
FFF800FFFFC01FFFE000
FFFC00FFFFC01FFFE000
FFFE00FFFFC01FFFE000
FFFF007FFFC00FFFE000
FFFF807FFFC00FFFC000
FFFFC07FFFC00FFFC000
FFFFC07FFFC007FFC000
FFFFE07FFFC003FFC000
FFFFF07FFFC001FFE000
7FFFF07FFFC0007FF000
7FFFF87FFFC0001FFFC0
7FFFF87FFFC0001FFFC0
3FFFF87FFFC000FFC000
3FFFF87FFFC003FE0000
1FFFF87FFFC007FC0000
0FFFF87FFFC00FFF0000
07FFF07FFFC01FFFC000
03FFF07FFFC01FFFF000
01FFF07FFFC03FFFFC00
00FFE07FFFC03FFFFE00
007FE07FFFC03FFFFF00
001FC07FFFC03FFFFF80
0007807FFFC03FFFFF80
0007007FFFC03FFFFFC0
000E007FFFC01FFFFFC0
001C007FFFC01FFFFFC0
01F0007FFFC00FFFFFC0
0380007FFFC007FFFFC0
0000007FFFC003FFFFC0
00003FFFFFC001FFFFC0
0000FFFFFFC0007FFFC0
0003FFFFFFC0003FFF80
0007FFFFFFC0000FFF80
000FFFFFFFC00007FF80
001FFFFFFFC00001FF00
001FFFFFFFE00000FF00
003FFFFFFFF800007E00
007FFFFFFFFC00003E00
007FFFFFFFFF00003C00
00FFFFFFFFFF80003C00
00FFFFFFFFFFE0003800
00F03FFFFFFFF0007000
00C007FFFFFFFC007000
01C001FFFFFFFF00E000
0180007FFFFFFFC3C000
0180007FFFFFFFFF8000
0180007FFFFFFFFF0000
0000007FFFFFFFFE0000
0000003FFFFFFFFC0000
0000003FFFFFFFF80000
0000003FFFFFFFE00000
0000003FFF3FFFC00000
0000003FFF0FFF000000
0000003FFF01F8000000
0000003FFE0000000000
0000001FFE0000000000
0000001FFE0000000000
0000001FFE0000000000
0000001FFC0000000000
0000001FFC0000000000
0000001FFC0000000000
0000000FF80000000000
0000000FF80000000000
0000000FF80000000000
0000000FF00000000000
00000007F00000000000
00000007F00000000000
00000007E00000000000
00000007E00000000000
00000003E00000000000
00000003C00000000000
00000003C00000000000
00000001C00000000000
00000001800000000000
ENDCHAR
STARTCHAR 0051
ENCODING 81
SWIDTH 906 0
DWIDTH 87 0
BBX 86 67 0 -1
BITMAP
00000003FFF00000000000
0000007FFFFF8000000000
000003BFFFFFF800000000
00001E7FFFFFFE00000000
00007C7FFFFFFF80000000
0001F8FFFFFFFFE0000000
0003F0FFFFFFFFF0000000
000FF0FFFFFFFFFC000000
001FE0FFFFFFFFFE000000
003FE0FFFFFFFFFF000000
007FE0FFFFFFFFFF800000
007FE0FFFFFFFFFFC00000
00FFE0FFFFFFFFFFE00000
01FFF07FFFFFFFFFF00000
01FFF07FFFFFFFFFF00000
03FFF83FFFFFFFFFF80000
03FFFC0FFFFFFFFFFC0000
03FFFC07FFFFFFFFFC0000
07FFFE007FFFFFFFFE0000
07FFFF000000007FFE0000
07FFFF0000000007FE0000
07FFFF8000000001FF0000
07FFFF80000000007F0000
07FFFFC0000000003F0000
07FFFFE0000000001F8000
03FFFFE0000000000F8000
03FFFFF000000000078000
03FFFFF000000000038000
01FFFFF000000000038000
01FFFFF80000000001C000
00FFFFF80000000001C000
C07FFFF80000000001C000
C07FFFF80000000000C000
403FFFF80000000000C000
601FFFF80000000000C000
601FFFF00000000000C000
300FFFF00000000000C000
300FFFE00000000000C000
1807FFC00000000000C000
1803FFC00000000000C000
0C03FF8000000000008000
0603FE0000000000008000
0307FC0000000000018000
01FFF00000000000018000
003FC00000000000018000
00003FE000000000038000
0001FFFE0000000003800C
000FFFFF8000000007800C
001FFFFFF000000007800C
007FFFFFFC0000000F800C
00FFFFFFFF0000001B800C
01FFFFFFFFE000003BC00C
03FFFFFFFFF8000073C01C
07FFFFFFFFFF0001E3E01C
0FFFFFFFFFFFE00FE3F07C
0FFFFFFFFFFFFFFFC3FFFC
1E0FFFFFFFFFFFFF83FFFC
1C01FFFFFFFFFFFF03FFFC
38007FFFFFFFFFFE03FFF8
30001FFFFFFFFFFC03FFF8
600007FFFFFFFFF803FFF8
400003FFFFFFFFF003FFF8
0000007FFFFFFFC003FFF0
0000001FFFFFFF0001FFF0
00000007FFFFFC0001FFE0
00000000FFFFF00000FFC0
0000000007FF0000003F00
ENDCHAR
STARTCHAR 0052
ENCODING 82
SWIDTH 812 0
DWIDTH 78 0
BBX 75 67 1 -1
BITMAP
00007FE000007FC00000
0007FFFE0003FFF80000
001FFFFF8007FFFE0000
007FFFFFE01FFFFF0000
00E07FFFF0187FFF8000
03801FFFF8307FFFC000
07000FFFFC303FFFC000
0E0007FFFC603FFFE000
0E0003FFFE603FFFE000
1C0003FFFF603FFFE000
3E0003FFFFE03FFFF000
3F0001FFFFE03FFFF000
7F8001FFFFE03FFFF000
7FC001FFFFE03FFFF000
7FE000FFFFC01FFFF000
7FF000FFFFC01FFFF000
FFF800FFFFC01FFFF000
FFFC00FFFFC01FFFF000
FFFE00FFFFC00FFFF000
FFFF00FFFFC00FFFF000
FFFF807FFFC007FFF000
7FFF807FFFC003FFF000
7FFFC07FFFC001FFF000
7FFFE07FFFC0007FF800
7FFFE07FFFE0001FFC00
3FFFF07FFFE00003FFC0
1FFFF07FFFE0001FFFC0
1FFFF07FFFE007FC0000
0FFFF07FFFE1FFFE0000
07FFF07FFFFFFFFF0000
03FFF07FFFFFFFFF0000
03FFF07FFFE1FFFF8000
01FFF07FFFE0FFFF8000
00FFE07FFFE0FFFF8000
003FE07FFFE0FFFF8000
001FC07FFFE0FFFF8000
000FC07FFFE0FFFF8000
000F807FFFE0FFFF8000
000F007FFFE0FFFF8000
003C007FFFE0FFFF8000
07F0007FFFE0FFFF8000
1F80007FFFC0FFFF8000
0000007FFFC0FFFF8000
0000007FFFC0FFFF8000
0000007FFFC0FFFF8000
00F8007FFF80FFFF8000
03FE007FFF80FFFF8000
0FFF007FFF80FFFF8000
0FFF807FFF00FFFF8000
1FFFC07FFF00FFFF8000
1FFFC07FFF00FFFF8000
3FFFC07FFE00FFFF8000
3FFFC07FFE00FFFF8000
3FFFC07FFC00FFFF8000
3FFFC07FFC00FFFF8000
3FFFC07FF8007FFF8020
1FFF807FF0007FFFC0E0
1FFF00FFF0007FFFC380
1FF000FFE0007FFFFF00
0FE000FFC0007FFFFC00
0FC001FF80003FFFF000
07E001FF00003FFFE000
03E003FC00001FFF8000
01F007F800000FFE0000
00FC3FE0000003F80000
003FFF80000001F00000
0007F000000000400000
ENDCHAR
STARTCHAR 0053
ENCODING 83
SWIDTH 760 0
DWIDTH 73 0
BBX 67 67 3 -1
BITMAP
0000007FE000000000
000007FFFE00000000
00003FFFFF80000000
0000FFFFFFF0000000
0001FFFFFFFC000000
0007FFFFFFFF000060
000FFFFFFFFFC000C0
001FFFFFFFFFF000C0
003FFFFFFFFFFC00C0
007FFFFFFFFFFF0180
00FFFFFFFFFFFFE380
01FFFFFFFFFFFFFF00
03FFFFFFFFFFFFFF00
03FF00FFFFFFFFFE00
07F8001FFFFFFFFC00
0FE00003FFFFFFFC00
0F8000007FFFFFF800
1F0000000FFFFFE000
1E007FC001FFFFC000
3C03FFF0003FFF0000
3C07807C0007F80000
380E00080000000000
701C000000FFC00000
703800000FFFFC0000
603000003FFFFF8000
60200000FFFFFFE000
60600003FFFFFFF000
E060000FFFFFFFF800
C060001FFFFFFFFC00
C060007FFFFFFFFE00
C07000FFFFFFFF0F00
C07003FFFFFFFE0780
C0380FFFFFFFF80380
C03C3FFFFFFFF00180
C03FFFFFFFFFC000C0
C01FFFFFFFFF8000C0
E01FFFFFFFFE0000C0
E00FFFFFFFFC0000C0
600FFFFFFFF00000C0
7007FFFFFFE00000C0
7003FFFFFF800000C0
7801FFFFFE000001C0
7C007FFFF8000001C0
3E001FFFE0000003C0
3F0003FE00000007C0
3F8000000000000F80
1FE000000000001F80
1FF800000000007F80
1FFE0000000003FF80
0FFFC00000003FFF00
0FFFFE00001FFFFF00
07FFFFFFFFFFFFFE00
03FFFFFFFFFFFFFE00
03FFFFFFFFFFFFFC00
01FFFFFFFFFFFFFC00
00FFFFFFFFFFFFF800
007FFFFFFFFFFFF000
003FFFFFFFFFFFE000
001FFFFFFFFFFFC000
000FFFFFFFFFFF8000
0007FFFFFFFFFF0000
0003FFFFFFFFFC0000
0000FFFFFFFFF80000
00003FFFFFFFE00000
00000FFFFFFF800000
000001FFFFFC000000
0000000FFFC0000000
ENDCHAR
STARTCHAR 0054
ENCODING 84
SWIDTH 687 0
DWIDTH 66 0
BBX 65 69 0 -1
BITMAP
00007FE00000000000
0007FFFE0000000000
001FFFFFC000000000
007FFFFFF000000000
00FFFFFFFC000C0000
01FFFFFFFF00070000
07FFFFFFFFC000C000
07FFFFFFFFE0003000
0FFFFFFFFFF8001800
1FFFFFFFFFFC000C00
1FFFFFFFFFFF000600
3FFFFFFFFFFF800300
3FFFFFFFFFFFE00300
7F803FFFFFFFF00300
7C0007FFFFFFFC0300
780000FFFFFFFF0300
7000003FFFFFFF8300
6000000FFFFFFFE700
E0000003FFFFFFFF00
E0000001FFFFFFFF00
C0000001FFFFFFFE00
C00000031FFFFFFE00
4000000707FFFFFC00
6000000FC1FFFFF800
6000001FE07FFFF000
6000003FF01FFFC000
3000007FF801FE0000
380000FFFC00000000
1C0001FFFE00000000
0E0021FFFF80000000
0781E1FFFFC0000000
03FFC3FFFFE0000000
007F03FFFFF0000000
000003FFFFF0000000
000001FFFFF8000000
000001FFFFF8000000
000001FFFFFC000000
000000FFFFFC000000
000000FFFFFC000000
0000007FFFFC000000
0000003FFFF8000000
0000001FFFF8000000
0000000FFFF8000000
00000007FFF0000000
00000001FFE0000000
0003FE00FFC0000000
001FFFC07F80000000
007FFFF83E00000000
00FFFFFE0C00000000
01FFFFFF9800000000
03FFFFFFE000000180
07FFFFFFF800000180
0FFFFFFFFC00000300
0FFFFFFFFF00000300
1FFFFFFFFFC0000700
1FFFFFFFFFE0000600
1C1FFFFFFFF8000E00
3807FFFFFFFE001C00
3001FFFFFFFFE07C00
30007FFFFFFFFFF800
30003FFFFFFFFFF000
20000FFFFFFFFFE000
600003FFFFFFFFC000
600001FFFFFFFF8000
0000007FFFFFFF0000
0000001FFFFFFC0000
00000007FFFFF80000
00000000FFFFE00000
000000000FFE000000
ENDCHAR
STARTCHAR 0055
ENCODING 85
SWIDTH 656 0
DWIDTH 63 0
BBX 65 67 -2 0
BITMAP
000300000001000000
000780000003800000
000FE0000003800000
001FF0000007C00000
003FF800000FE00000
007FFC00001FF00000
00FFFE00001FF80000
01FFFF00003FFC0000
03FFFF00007FFE0000
07FFFF8001FFFF0000
0FFFFF8003FFFFC000
1FFFFF800FFFFFF000
3FFFFFC07FFFFFFE00
F1FFFFC07FFFFFFE00
E07FFFC007FFFFC000
007FFFC003FFFF8000
007FFFC001FFFF0000
003FFFC001FFFF0000
003FFFC000FFFF0000
003FFFC000FFFF0000
003FFFC000FFFF0000
003FFFC000FFFF0000
003FFFC000FFFF0000
003FFFC000FFFF0000
003FFFC000FFFF0000
003FFFC000FFFF0000
003FFFC000FFFF0000
003FFFC000FFFF0000
003FFFC000FFFF0000
003FFFC000FFFF0000
003FFFC000FFFF0000
003FFFC000FFFF0000
003FFFC000FFFF0000
003FFFC000FFFF0000
003FFFC000FFFF0000
003FFFC000FFFF0000
003FFFC000FFFF0000
003FFFC000FFFF0000
003FFFC000FFFF0000
003FFFC000FFFF0000
003FFFC000FFFF0000
003FFFC000FFFF0000
003FFFC000FFFF0000
003FFFC000FFFF0000
003FFFC000FFFF0000
003FFFC000FFFF0000
003FFFC000FFFF0000
003FFFC000FFFF0000
003FFFC001FFFF0000
003FFFC003FFFF0000
003FFFC006FFFF0000
007FFFF00CFFFF0080
00FFFFFC18FFFF8380
3FFFFFFF70FFFFC700
3FFFFFFFE0FFFFFE00
07FFFFFFC0FFFFFC00
00FFFFFF80FFFFF000
003FFFFF00FFFFE000
001FFFFC007FFFC000
0007FFF8007FFF8000
0003FFF0003FFF0000
0001FFE0001FFE0000
00007FC0000FFC0000
00003F800003F80000
00001F000001F00000
00000E000000E00000
000004000000400000
ENDCHAR
STARTCHAR 0056
ENCODING 86
SWIDTH 802 0
DWIDTH 77 0
BBX 74 67 1 -1
BITMAP
00007FF80000FF800000
0007FFFF8007FFF00000
001FFFFFE00FFFF80000
00607FFFF018FFFE0000
01C01FFFF8307FFF0000
038007FFFC203FFF8000
078007FFFE603FFF8000
0F0003FFFE603FFFC000
1F0001FFFF403FFFE000
1F8001FFFF401FFFE000
3FC001FFFFC01FFFE000
3FE000FFFFC01FFFE000
7FF000FFFFC01FFFF000
7FF800FFFFC01FFFF000
7FFC007FFFC00FFFF000
FFFE007FFFC00FFFF000
FFFF007FFFC007FFF000
FFFF807FFFC007FFF000
FFFFC07FFFC003FFE000
7FFFE07FFFC003FFE000
7FFFE07FFFC001FFE000
7FFFF07FFFC000FFF000
3FFFF07FFFC0003FF000
3FFFF07FFFC000EFFFC0
1FFFF07FFFC003C07FC0
0FFFF07FFFC00F800000
07FFF07FFFC01FE00000
03FFF07FFFC07FF00000
01FFF07FFF80FFFC0000
007FF07FFF80FFFE0000
003FE07FFF81FFFF0000
001FE07FFF01FFFFC000
000FC07FFE01FFFFE000
000F807FFC01FFFFF000
000F007FF801FFFFF800
001E00FFF001FFFFFC00
00F800FFE000FFFFFE00
1FE000FF8000FFFFFE00
1F0000FE00007FFFFF00
000000FC00003FFFFF00
000000F000001FFFFF00
0000018000000FFFFF00
00007FE0000007FFFF00
0003FFFC000003FFFF00
000FFFFF000000FFFF00
003FFFFFC000007FFF00
007FFFFFF000001FFF00
00FFFFFFF800000FFE00
01FFFFFFFE000007FE00
03FFFFFFFF000003FE00
0387FFFFFFC00001FC00
0601FFFFFFE00000FC00
06007FFFFFF00000F800
0C001FFFFFF80000F000
0C000FFFFFFE0000F000
180007FFFFFF0000E000
180003FFFFFF8001C000
000001FFFFFFE0038000
0000007FFFFFF0070000
0000003FFFFFFC1E0000
0000001FFFFFFFF80000
0000000FFFFFFFF00000
00000003FFFFFFC00000
00000001FFFFFF000000
000000007FFFFC000000
000000001FFFF0000000
0000000003FF00000000
ENDCHAR
STARTCHAR 0057
ENCODING 87
SWIDTH 1031 0
DWIDTH 99 0
BBX 96 67 1 -1
BITMAP
00007FE0001F80001FFC0000
0007FFFC003FE001FFFF8000
00183FFF007FF00707FFE000
00600FFFC0FFF80C03FFF800
00C007FFE1FFFC3001FFFC00
018007FFF3C03C6000FFFE00
078003FFFB000EE000FFFF00
070003FFFE0003C000FFFF80
0F0001FFFC0001C000FFFF80
1F8001FFFE00038000FFFFC0
1FC001FFFE00078000FFFFC0
3FE001FFFF000FC000FFFFC0
3FE000FFFF001FE0007FFFC0
7FF000FFFF001FE0007FFFC0
7FFC00FFFF803FF0007FFFC0
7FFE00FFFF807FF8007FFFC0
7FFF00FFFF807FF8003FFFC0
FFFF80FFFF80FFFC003FFFE0
FFFF80FFFF80FFFC001FFFE0
FFFFC0FFFF81FFFE000FFFE0
FFFFE0FFFF81FFFF0003FFF8
FFFFF0FFFF81FFFF0000FFFF
7FFFF0FFFF83FFFF80007000
7FFFF8FFFF83FFFFC001E000
7FFFF8FFFF83FFFFC003C000
3FFFF8FFFF83FFFFE00F8000
1FFFF8FFFF83FFFFE01FE000
0FFFF8FFFF83FFFFE03FF000
0FFFF8FFFF81FFFFF07FFC00
03FFF8FFFF01FFFFF07FFE00
01FFF8FFFF01FFFFF0FFFF00
00FFF0FFFF00FFFFF0FFFFC0
007FF0FFFE007FFFF0FFFFE0
001FE0FFFE007FFFF1FFFFF0
000FE0FFFC003FFFF1FFFFF8
0007C0FFFC001FFFF1FFFFFC
000780FFF8001FFFE1FFFFFC
000700FFF0000FFFE0FFFFFE
000E01FFE00007FFC0FFFFFF
001C01FFC00003FFC07FFFFF
007801FF800003FF807FFFFF
07E001FE000001FF003FFFFF
078003FC000000FE001FFFFF
000003E0000000FC000FFFFF
0007F700000000700007FFFF
001FFF00000000C00001FFFF
007FFFC0000000FF0000FFFF
00FFFFE0000000FFC0007FFF
01FFFFF8000001FFE0001FFE
03FFFFFE000001FFF8000FFE
07FFFFFF800003FFFC0007FE
07FFFFFFC00007FFFF0003FC
0FFFFFFFF0000FFFFF8001FC
0FFFFFFFFC003FFFFFC000F8
1FFFFFFFFF007FFFFFE00070
1FFFFFFFFFC1FFFFFFF00060
3C3FFFFFFFFFFFFFFFFC0060
380FFFFFFFFFDFFFFFFE00C0
3003FFFFFFFF87FFFFFF8380
7000FFFFFFFE01FFFFFFFF00
60003FFFFFFC00FFFFFFFE00
60001FFFFFF8007FFFFFFC00
200007FFFFF0001FFFFFF000
000001FFFFC0000FFFFFE000
0000007FFF800003FFFF8000
0000001FFE000000FFFE0000
00000003F00000001FE00000
ENDCHAR
STARTCHAR 0058
ENCODING 88
SWIDTH 656 0
DWIDTH 63 0
BBX 65 67 -1 -1
BITMAP
0000180000003F8000
00003F800001FFF000
00007FE000038FF800
0000FFF8000607FE00
0001FFFE000C0FFE00
0003FFFF80180FFF00
0007FFFFC0181FFF00
001FFFFFE0303FFF80
003FFFFFF0303FFF80
007FFFFFF8603FFF80
00FFFFFFF8607FFF80
01FFFFFFFC607FFF80
03FFFFFFFCC07FFF80
0780FFFFFEC07FFF00
0E003FFFFEC07FFF00
1C000FFFFEC03FFF00
300007FFFFC01FFE00
200003FFFF800FFC00
000003FFFF8003F000
000001FFFF80000000
000001FFFF80000000
000000FFFF80000000
000000FFFF80000000
000000FFFF80000000
0000007FFF80006000
0000007FFF80006000
0000007FFF80004000
0000007FFF8000C000
0000007FFF8003C000
0001FFFFFFFFFFC000
0007FFFFFFFFFFC000
000FFFFFFFFFFF8000
001FFFFFFFFFFF8000
003FFFFFFFFFFF0000
003FFFFFFFFFFE0000
003FFFFFFFFFFC0000
007FFFFFFFFFF00000
0078007FFF80000000
0060007FFF80000000
0060007FFF80000000
0040007FFF80000000
00C0007FFF80000000
00C0007FFF80000000
0000007FFF80000000
0000007FFFC0000000
0000007FFFC0000000
0000007FFFC0000000
07E0007FFFE0000000
1FF8007FFFE0000100
3FFC00FFFFF0000300
7FFE00FFFFF0000E00
7FFE00FFFFF8001C00
FFFF00FFFFFC007000
FFFF009FFFFF01E000
FFFF019FFFFFFFC000
FFFF019FFFFFFF0000
FFFF018FFFFFFE0000
FFFF0307FFFFFC0000
FFFE0303FFFFF80000
FFFE0601FFFFE00000
7FFC0600FFFFC00000
7FF00C007FFF800000
3FE018003FFF000000
1FC070000FFC000000
0FE3E00003F8000000
03FF800000F0000000
00FC00000020000000
ENDCHAR
STARTCHAR 0059
ENCODING 89
SWIDTH 760 0
DWIDTH 73 0
BBX 67 87 1 -21
BITMAP
0000FFC0001FE00000
0007FFF8007FFC0000
001FFFFF00FFFE0000
0060FFFF81C7FF8000
00803FFFC383FFC000
03001FFFE301FFE000
06000FFFF701FFE000
060007FFF600FFF000
0C0007FFFE00FFF800
1C0003FFFE00FFF800
1E0003FFFE00FFFC00
3F0003FFFE00FFFC00
3F8001FFFE00FFFE00
7FC001FFFE007FFE00
7FE001FFFF007FFF00
7FF001FFFF007FFF00
7FF801FFFF007FFF00
FFFE01FFFF007FFF80
FFFE01FFFF007FFF80
FFFF01FFFF007FFF80
FFFF81FFFF007FFF80
FFFFC1FFFF007FFFC0
7FFFC1FFFF007FFFC0
7FFFE1FFFF007FFFC0
7FFFE1FFFF007FFFC0
7FFFE1FFFF007FFFC0
3FFFE1FFFF007FFFE0
1FFFE1FFFF007FFFE0
1FFFE1FFFF007FFFE0
0FFFE1FFFF007FFFE0
07FFE1FFFF007FFFE0
03FFE1FFFF007FFFE0
01FFE1FFFE007FFFE0
00FFC1FFFE007FFFE0
007FC3FFFE007FFFE0
001FC3FFFC007FFFE0
000F83FFFC007FFFE0
000783FFF8007FFFE0
000703FFF0007FFFE0
000603FFC0007FFFE0
000C03FF80007FFFE0
001803FE00007FFFE0
00E003FC00007FFFE0
03C007F000007FFFE0
020007C000007FFFE0
0000070000007FFFE0
00007F0000007FFFE0
0001FFE000007FFFE0
0007FFF800007FFFE0
001FFFFC00007FFFE0
003FFFFF00007FFFE0
007FFFFF80107FFFE0
00FFFFFFC0607FFFC0
01FFFFFFE0C07FFFC0
01FFFFFFF1807FFFC0
03FFFFFFFB007FFFC0
0783FFFFFC007FFFC0
06007FFFF8007FFFC0
0C003FFFF0007FFF80
08000FFFE0007FFF80
180007FFC0007FFF80
100003FF80007FFF80
000001FF00007FFF00
000001FE00007FFF00
000000FC0000FFFF00
000000780000FFFE00
000000700000FFFE00
000000000000FFFE00
000000000000FFFC00
000000000000FFFC00
0001FF000000FFF800
0007FFE00001FFF800
000FFFF00001FFF000
001FFFF80001FFE000
001FFFF80001FFE000
003FFFFC0003FFC000
003FFFFC0003FF8000
003FFFFC0003FF0000
003FFFFC0007FE0000
001FFFF8000FFC0000
001FFFF8001FF80000
000FFFF0003FF00000
0007FFE0007FC00000
0003FF8001FF000000
0000FC001FFC000000
00003FFFFFE0000000
000001FFFC00000000
ENDCHAR
STARTCHAR 005A
ENCODING 90
SWIDTH 614 0
DWIDTH 59 0
BBX 62 87 -6 -21
BITMAP
0000003FFC000000
000007FFFFC00000
00001FFFFFF80000
00007C01FFFE0000
0001E0003FFF8000
000380001FFFE000
0006000007FFF000
000C000003FFF800
0018000003FFFC00
0038000001FFFE00
0030000000FFFF00
0060000000FFFF00
0060000000FFFF80
00E00000007FFF80
00C00000007FFFC0
00C00000007FFFC0
00C00000007FFFC0
00C00000007FFFC0
00C00000007FFFE0
00007E00003FFFE0
0001FF00003FFFE0
0003FF80003FFFE0
0003FFC0003FFFE0
0007FFC0003FFFC0
0007FFE0003FFFC0
0007FFE0007FFFC0
0007FFE0007FFFC0
0007FFC0007FFF80
0007FFC0007FFF80
0007FF80007FFF00
0007FF0000FFFE00
0003FE0000FFFC00
0003FC0001FFF800
0001F80003FFF000
0000F80007FFC000
00007C000FFF0000
00003F003FF00000
00000FFFFE000000
000003FFFF000000
00000F807FF00000
00003C000FFE0000
0000700007FF8000
0000E00003FFE000
0001800001FFF800
0003000000FFFC00
0003000000FFFE00
00060000007FFF00
00040000007FFF80
000C0000007FFFC0
000C0000007FFFE0
00080000003FFFE0
00080000003FFFF0
00000000003FFFF0
00000000003FFFF8
00000000003FFFF8
00000000003FFFF8
00000000003FFFF8
00000000003FFFF8
00000000001FFFF8
01FC0000001FFFFC
07FF8000001FFFFC
1FFFC000001FFFFC
1FFFF000001FFFFC
3FFFF000001FFFFC
73FFF800001FFFFC
63FFFC00001FFFF8
E1FFFC00001FFFF8
C1FFFE00001FFFF8
C0FFFE00001FFFF8
C0FFFE00003FFFF8
C0FFFE00003FFFF0
C0FFFF00003FFFF0
C0FFFF00003FFFF0
C07FFF00003FFFE0
C07FFF00003FFFE0
C07FFF00003FFFC0
003FFF00003FFF80
003FFF00007FFF80
001FFF00007FFF00
001FFF00007FFE00
000FFF0000FFFC00
0007FF8000FFF000
0003FF8001FFE000
0000FFC007FF8000
00003FF01FFE0000
00000FFFFFF00000
0000007FFE000000
ENDCHAR
STARTCHAR 005B
ENCODING 91
SWIDTH 312 0
DWIDTH 30 0
BBX 24 86 4 -20
BITMAP
FFFFFF
FFFFFF
FFFE00
FFFC00
FFFC00
FFFC00
FFFC00
FFFC00
FFFC00
FFFC00
FFFC00
FFFC00
FFFC00
FFFC00
FFFC00
FFFC00
FFFC00
FFFC00
FFFC00
FFFC00
FFFC00
FFFC00
FFFC00
FFFC00
FFFC00
FFFC00
FFFC00
FFFC00
FFFC00
FFFC00
FFFC00
FFFC00
FFFC00
FFFC00
FFFC00
FFFC00
FFFC00
FFFC00
FFFC00
FFFC00
FFFC00
FFFC00
FFFC00
FFFC00
FFFC00
FFFC00
FFFC00
FFFC00
FFFC00
FFFC00
FFFC00
FFFC00
FFFC00
FFFC00
FFFC00
FFFC00
FFFC00
FFFC00
FFFC00
FFFC00
FFFC00
FFFC00
FFFC00
FFFC00
FFFC00
FFFC00
FFFC00
FFFC00
FFFC00
FFFC00
FFFC00
FFFC00
FFFC00
FFFC00
FFFC00
FFFC00
FFFC00
FFFC00
FFFC00
FFFC00
FFFC00
FFFC00
FFFC00
FFFE00
FFFFFF
FFFFFF
ENDCHAR
STARTCHAR 005C
ENCODING 92
SWIDTH 250 0
DWIDTH 24 0
BBX 26 67 -1 -1
BITMAP
FE000000
FF000000
7F000000
7F000000
7F000000
7F800000
3F800000
3F800000
3FC00000
1FC00000
1FC00000
1FC00000
1FE00000
0FE00000
0FE00000
0FF00000
07F00000
07F00000
07F00000
07F80000
03F80000
03F80000
03FC0000
01FC0000
01FC0000
01FC0000
01FE0000
00FE0000
00FE0000
00FF0000
007F0000
007F0000
007F0000
003F8000
003F8000
003F8000
003FC000
001FC000
001FC000
001FC000
000FE000
000FE000
000FE000
000FF000
0007F000
0007F000
0007F800
0003F800
0003F800
0003F800
0003FC00
0001FC00
0001FC00
0001FE00
0000FE00
0000FE00
0000FE00
0000FF00
00007F00
00007F00
00007F80
00003F80
00003F80
00003F80
00003FC0
00001FC0
00001FC0
ENDCHAR
STARTCHAR 005D
ENCODING 93
SWIDTH 322 0
DWIDTH 31 0
BBX 25 86 2 -20
BITMAP
FFFFFF80
FFFFFF80
003FFF80
001FFF80
001FFF80
001FFF80
001FFF80
001FFF80
001FFF80
001FFF80
001FFF80
001FFF80
001FFF80
001FFF80
001FFF80
001FFF80
001FFF80
001FFF80
001FFF80
001FFF80
001FFF80
001FFF80
001FFF80
001FFF80
001FFF80
001FFF80
001FFF80
001FFF80
001FFF80
001FFF80
001FFF80
001FFF80
001FFF80
001FFF80
001FFF80
001FFF80
001FFF80
001FFF80
001FFF80
001FFF80
001FFF80
001FFF80
001FFF80
001FFF80
001FFF80
001FFF80
001FFF80
001FFF80
001FFF80
001FFF80
001FFF80
001FFF80
001FFF80
001FFF80
001FFF80
001FFF80
001FFF80
001FFF80
001FFF80
001FFF80
001FFF80
001FFF80
001FFF80
001FFF80
001FFF80
001FFF80
001FFF80
001FFF80
001FFF80
001FFF80
001FFF80
001FFF80
001FFF80
001FFF80
001FFF80
001FFF80
001FFF80
001FFF80
001FFF80
001FFF80
001FFF80
001FFF80
001FFF80
003FFF80
FFFFFF80
FFFFFF80
ENDCHAR
STARTCHAR 005E
ENCODING 94
SWIDTH 583 0
DWIDTH 56 0
BBX 42 26 7 37
BITMAP
0000FFC00000
0001FFE00000
0001FFE00000
0003FFF00000
0003FFF80000
0007FFF80000
000FFFFC0000
000FFFFE0000
001FFFFE0000
003FFFFF0000
003FF3FF8000
007FF1FF8000
007FE1FFC000
00FFC0FFC000
01FFC07FE000
01FF807FF000
03FF003FF000
07FE001FF800
07FE000FFC00
0FFC000FFC00
1FF80007FE00
1FF80003FE00
3FF00003FF00
3FE00001FF80
7FE00000FF80
FFC000007FC0
ENDCHAR
STARTCHAR 005F
ENCODING 95
SWIDTH 489 0
DWIDTH 47 0
BBX 47 5 0 -14
BITMAP
FFFFFFFFFFFE
FFFFFFFFFFFE
FFFFFFFFFFFE
FFFFFFFFFFFE
FFFFFFFFFFFE
ENDCHAR
STARTCHAR 0060
ENCODING 96
SWIDTH 218 0
DWIDTH 21 0
BBX 15 14 2 57
BITMAP
FF80
FF80
7FC0
7FC0
7FC0
7FC0
7FE0
7FE0
7FF0
03F0
0078
001C
000E
0002
ENDCHAR
STARTCHAR 0061
ENCODING 97
SWIDTH 489 0
DWIDTH 47 0
BBX 43 51 4 0
BITMAP
000001800000
000007800000
00000FC00000
00003FF00000
0000FFF80000
0003FFFC0000
000FFFFF0000
003FFFFFC000
00FDFFFFF000
03FCFFFFFC00
07FC7FFFFFC0
0FFC3FFFFFC0
1FFC0FFFFC00
3FFC03FFF800
7FFC03FFF800
7FFC03FFF000
FFFC03FFF000
FFFC03FFF000
FFFC03FFF000
FFFC03FFF000
FFFC03FFF000
FFFC03FFF000
FFFC03FFF000
FFFC03FFF000
FFFC03FFF000
FFFC03FFF000
FFFC03FFF000
FFFC03FFF000
FFFC03FFF000
FFFC03FFF000
FFFC03FFF000
FFFC03FFF000
FFFC03FFF000
FFFC03FFF000
FFFC03FFF000
FFFC03FFF000
FFFC03FFF000
FFFC03FFF000
FFFC03FFF800
FFFC03FFF800
FFFE0FFFFC60
7FFE3FFFFFC0
7FFFF1FFFF80
7FFFE1FFFF00
3FFF80FFFC00
3FFF00FFF800
1FFC007FF000
0FF8003FE000
03F0000F8000
01E000070000
000000020000
ENDCHAR
STARTCHAR 0062
ENCODING 98
SWIDTH 489 0
DWIDTH 47 0
BBX 42 67 2 -1
BITMAP
0000007C0000
00003FFC0000
0007FF800000
801FFE000000
C03FFC000000
40FFF8000000
60FFF8000000
31FFF0000000
13FFF0000000
1BFFF0000000
0BFFF0000000
0FFFF0000000
0FFFF0000000
07FFF0000000
07FFF0000000
07FFF0000000
07FFF0000000
07FFF000E000
03FFF001F000
03FFF007F800
03FFF00FFC00
03FFF03FFE00
03FFF07FFF00
03FFF1FFFF00
03FFF3FFFF80
03FFFFFFFF80
03FFFC1FFF80
03FFF01FFF80
03FFF01FFFC0
03FFF00FFFC0
03FFF00FFFC0
03FFF00FFFC0
03FFF00FFFC0
03FFF00FFFC0
03FFF00FFFC0
03FFF00FFFC0
03FFF00FFFC0
03FFF00FFFC0
03FFF00FFFC0
03FFF00FFFC0
03FFF00FFFC0
03FFF00FFFC0
03FFF00FFFC0
03FFF00FFFC0
03FFF00FFFC0
03FFF00FFFC0
03FFF00FFFC0
03FFF00FFFC0
03FFF00FFFC0
03FFF00FFF80
07FFF00FFF80
07FFF00FFF80
07FFF80FFF00
0FFFFC0FFF00
7FFFFE0FFE00
3FFFFF8FFC00
0FFFFFCFF800
03FFFFEFF000
00FFFFFFC000
003FFFFE0000
001FFFF00000
0007FFC00000
0003FF000000
0001FC000000
0000F8000000
000070000000
000020000000
ENDCHAR
STARTCHAR 0063
ENCODING 99
SWIDTH 395 0
DWIDTH 38 0
BBX 34 51 4 0
BITMAP
000000C000
000007E000
00003FE000
0001FFF000
000FFFF000
007FFFF800
03FDFFF800
0FFDFFFC00
1FFCFFFC00
3FFCFFFE00
7FFC7FFE00
7FFC7FFF00
7FFC3FFF00
7FFC3FFF80
FFFC1FFF80
FFFC1FFE00
FFFC0FFC00
FFFC0FF000
FFFC0FC000
FFFC070000
FFFC060000
FFFC000000
FFFC000000
FFFC000000
FFFC000000
FFFC000000
FFFC000000
FFFC000000
FFFC000000
FFFC000000
FFFC000000
FFFE000000
FFFE000000
FFFE000000
FFFF000000
FFFF800000
7FFF800040
7FFFE000C0
7FFFF00180
7FFFFC0600
3FFFFFFC00
1FFFFFF000
1FFFFFE000
0FFFFF8000
03FFFE0000
01FFFC0000
007FF00000
003FE00000
000FC00000
0007800000
0001000000
ENDCHAR
STARTCHAR 0064
ENCODING 100
SWIDTH 489 0
DWIDTH 47 0
BBX 40 66 3 -1
BITMAP
001FC00000
00FFC00000
03E0000000
07C0000000
0F80000000
1F80000000
1FC0000000
3FC0000000
3FF0000000
3FFC000000
3FFF800000
3FFFF00000
3FFFFE0000
3FFFFFC000
1FFFFFF000
1FFFFFFC00
0FFFFFFF00
0FFFFFFF80
07FFFFFFE0
01FFFFFFF0
00FFFFFFF0
003FFFFFF8
000FFFFFFC
0001FFFFFC
0000FFFFFC
0000C7FFFE
0003C1FFFE
0FFFC07FFE
0FFFC07FFE
0FFFC03FFE
0FFFC03FFF
0FFFC03FFF
0FFFC03FFF
0FFFC03FFF
0FFFC03FFF
0FFFC03FFF
0FFFC03FFF
0FFFC03FFF
0FFFC03FFF
0FFFC03FFF
0FFFC03FFF
0FFFC03FFF
0FFFC03FFF
0FFFC03FFF
0FFFC03FFF
0FFFC03FFF
0FFFC03FFF
0FFFC03FFF
0FFFC03FFE
0FFFC03FFE
0FFFC03FFE
0FFFE03FFE
1FFFF03FFC
1FFFF83FFC
3FFFFE3FFC
FFFFFF3FF8
7FFFFFFFF0
0FFFFFFFC0
01FFFFFE00
007FFFE000
001FFF8000
000FFE0000
0003FC0000
0001F80000
0000F00000
0000300000
ENDCHAR
STARTCHAR 0065
ENCODING 101
SWIDTH 416 0
DWIDTH 40 0
BBX 36 50 4 0
BITMAP
0000018000
000007C000
00003FE000
0000FFE000
0007FFF000
001FFFF000
007FFFF800
01FFFFFC00
07FCFFFC00
0FFCFFFE00
1FFC7FFE00
3FFC7FFF00
3FFC3FFF80
3FFC3FFF80
7FFC1FFFC0
7FFC0FFFC0
7FFC0FFFE0
7FFC07FFC0
7FFC07FF00
7FFC03FE00
7FFC03F800
FFFC01E000
FFFC03C000
FFFC0F0000
FFFC1E0000
FFFC780000
FFFCE00000
FFFFC00000
FFFF000000
FFFE000000
FFFE000000
FFFE000000
7FFE000000
7FFF000000
7FFF800000
7FFFC00000
7FFFE00010
3FFFF00070
3FFFF801C0
1FFFFF0780
1FFFFFFF00
0FFFFFFC00
07FFFFF800
03FFFFE000
01FFFFC000
00FFFF8000
007FFE0000
001FFC0000
0007F80000
0001F00000
ENDCHAR
STARTCHAR 0066
ENCODING 102
SWIDTH 322 0
DWIDTH 31 0
BBX 28 87 1 -21
BITMAP
001F8060
007FE060
00FFF060
01FFF860
01FFFC60
03FFFE60
03FFFFE0
03FFFFE0
03FFFFE0
07FFFFE0
07FFFFE0
079FFFC0
070FFFC0
0303FF80
0301FF00
03807E00
03800000
03C00000
03E00000
03F00000
03FC0000
03FF0000
03FFE000
03FFFFF0
07FFFFF0
07FFFFF0
1FFFFFF0
FFFFFFF0
FFFFFFF0
07FFFC00
07FFFC00
07FFFC00
07FFFC00
07FFFC00
07FFFC00
03FFFC00
03FFFC00
03FFFC00
03FFFC00
03FFFC00
03FFFC00
03FFFC00
03FFFC00
03FFFC00
03FFFC00
03FFFC00
03FFFC00
01FFFC00
01FFF800
01FFF800
01FFF800
01FFF800
01FFF800
01FFF800
01FFF000
00FFF000
00FFF000
00FFF000
00FFF000
00FFF000
00FFE000
00FFE000
00FFE000
007FE000
007FE000
007FC000
007FC000
007FC000
003FC000
003FC000
003F8000
003F8000
003F8000
003F8000
001F8000
001F8000
001F0000
001F0000
001F0000
000F0000
000F0000
000E0000
000E0000
000E0000
000E0000
00060000
00040000
ENDCHAR
STARTCHAR 0067
ENCODING 103
SWIDTH 489 0
DWIDTH 47 0
BBX 41 71 4 -20
BITMAP
000002000000
00000F000000
00001F800000
00007FE00000
0001FFF00000
0007FFF80000
000FFFFE0000
003FFFFF8000
00FFFFFFE000
01FFFFFFFC00
07FDFFFFFF80
0FFC7FFFFF80
1FFC3FFFFC00
7FFC0FFFF800
7FFC03FFF800
FFFC03FFF000
FFFC03FFF000
FFFC03FFF000
FFFC03FFF000
FFFC03FFF000
FFFC03FFF000
FFFC03FFF000
FFFC03FFF000
FFFC03FFF000
FFFC03FFF000
FFFC03FFF000
FFFC03FFF000
FFFC03FFF000
FFFC03FFF000
FFFC03FFF000
FFFC03FFF000
FFFC03FFF000
FFFC03FFF000
FFFC03FFF000
FFFC03FFF000
FFFC03FFF000
FFFC03FFF000
FFFC03FFF000
FFFC03FFF000
FFFC07FFF000
FFFE0FFFF000
7FFE3DFFF000
7FFFF1FFF000
7FFFE1FFF800
3FFF81FFFC00
3FFF01FFFC00
1FFC00FFFE00
0FF800FFFF00
07F000FFFF00
03C0007FFF00
0080007FFF80
0000003FFF80
0000003FFF80
0000001FFF80
0000001FFF80
07F0001FFF80
1FFC000FFF80
3FFE000FFF80
3FFF0007FF80
7FFF0007FF00
7FFF0007FF00
7FFF0007FE00
7FFF0007FE00
3FFF0007FC00
3FFF000FF800
3FFE001FF000
1FF8003FC000
0FE000FF8000
07F007FE0000
00FFFFF80000
000FFF800000
ENDCHAR
STARTCHAR 0068
ENCODING 104
SWIDTH 489 0
DWIDTH 47 0
BBX 42 87 1 -21
BITMAP
000003FC0000
00007FFC0000
0003FF800000
001FFE000000
C03FFC000000
407FF8000000
20FFF8000000
31FFF0000000
13FFF0000000
1BFFF0000000
0BFFF0000000
0FFFF0000000
0FFFF0000000
07FFF0000000
07FFF0000000
07FFF0000000
07FFF0000000
03FFF0003000
03FFF000F800
03FFF001FC00
03FFF007FE00
03FFF00FFE00
03FFF01FFF00
03FFF07FFF00
03FFF0FFFF80
03FFF3FFFF80
03FFF61FFF80
03FFFC1FFF80
03FFF00FFFC0
03FFF00FFFC0
03FFF00FFFC0
03FFF00FFFC0
03FFF00FFFC0
03FFF00FFFC0
03FFF00FFFC0
03FFF00FFFC0
03FFF00FFFC0
03FFF00FFFC0
03FFF00FFFC0
03FFF00FFFC0
03FFF00FFFC0
03FFF00FFFC0
03FFF00FFFC0
03FFF00FFFC0
03FFF00FFFC0
03FFF00FFFC0
03FFF00FFFC0
03FFF00FFFC0
03FFF00FFFC0
03FFF00FFFC0
03FFF00FFFC0
03FFF00FFFC0
03FFF00FFFC0
03FFF00FFFC0
07FFF00FFFC0
07FFF00FFFC0
0FFFF88FFF80
7FFFFF0FFF80
7FFFFE0FFF80
0FFFF80FFF80
07FFF00FFF80
01FFE00FFF80
00FFC00FFF00
007F800FFF00
003F000FFF00
001E001FFE00
000C001FFE00
0000001FFE00
0000001FFC00
0000001FFC00
0000001FF800
0000003FF800
0000003FF000
0000003FE000
0000007FC000
0000007F8000
0000007F0000
000000FE0000
000001FC0000
000001F80000
000003E00000
000007800000
00001E000000
000038000000
0000E0000000
0003C0000000
000300000000
ENDCHAR
STARTCHAR 0069
ENCODING 105
SWIDTH 291 0
DWIDTH 28 0
BBX 27 67 1 -1
BITMAP
003E0000
00FF8000
01FFC000
03FFE000
03FFE000
03FFF000
03FFF000
03FFF000
03FFE000
03FFE000
01FFC000
00FF8000
007F0000
003C0000
00180000
00000000
00000000
00080000
001C0000
003E0000
00FF0000
01FFC000
03FFE000
0FFFF000
1FFFFC00
3FFFFF80
E7FFFF80
83FFF800
03FFF000
03FFF000
03FFF000
03FFF000
03FFF000
03FFF000
03FFF000
03FFF000
03FFF000
03FFF000
03FFF000
03FFF000
03FFF000
03FFF000
03FFF000
03FFF000
03FFF000
03FFF000
03FFF000
03FFF000
03FFF000
03FFF000
03FFF000
03FFF000
03FFF000
03FFF000
03FFF000
03FFF060
03FFF8C0
03FFFF80
03FFFF00
01FFFC00
01FFF800
00FFF000
00FFE000
007F8000
003F0000
001E0000
00040000
ENDCHAR
STARTCHAR 006A
ENCODING 106
SWIDTH 291 0
DWIDTH 28 0
BBX 30 84 -4 -18
BITMAP
0003F000
000FF800
001FFE00
001FFE00
003FFF00
003FFF00
003FFF00
003FFF00
003FFE00
001FFE00
001FFC00
000FF800
0007F000
0003E000
00018000
00000000
00000000
00004000
0001E000
0003F000
0007F800
000FFC00
003FFE00
007FFF80
00FFFFE0
03FFFFFC
077FFFFC
043FFF80
003FFF80
003FFF00
003FFF00
003FFF00
003FFF00
003FFF00
003FFF00
003FFF00
003FFF00
003FFF00
003FFF00
003FFF00
003FFF00
003FFF00
003FFF00
003FFF00
003FFF00
003FFF00
003FFF00
003FFF00
003FFF00
003FFF00
003FFF00
003FFF00
003FFF00
003FFF00
003FFF00
003FFF00
003FFF00
003FFF00
003FFF00
003FFF00
003FFF00
003FFF00
003FFF00
003FFF00
003FFF00
003FFF00
003FFF00
003FFF00
003FFF00
003FFF80
003FFF80
003FFFC0
003FFFC0
003FFF40
003FFF20
003FFF30
003FFE10
007FFC18
007FF80C
007FF004
00FFE000
03FF8000
FFFC0000
FFC00000
ENDCHAR
STARTCHAR 006B
ENCODING 107
SWIDTH 510 0
DWIDTH 49 0
BBX 50 67 1 -1
BITMAP
000003FC000000
00007FFC000000
0003FF80000000
001FFE00000000
C03FFC00000000
407FF800000000
20FFF800000000
31FFF000000000
13FFF000000000
1BFFF000000000
0BFFF000000000
0FFFF000000000
0FFFF000000000
07FFF000000000
07FFF000000000
07FFF000000000
07FFF000000000
03FFF000700000
03FFF000F80000
03FFF001FE0000
03FFF007FF0000
03FFF00FFF8000
03FFF01FFFC000
03FFF07FFFC000
03FFF0FFFFE000
03FFF3FFFFE000
03FFF63FFFE000
03FFFC1FFFC000
03FFF00FFF8000
03FFF007FE0000
03FFF003FC0000
03FFF001F00000
03FFF001E00000
03FFF001F00000
03FFF007F80000
03FFF00FFC0000
03FFF03FFE0000
03FFF07FFE0000
03FFF1FFFF0000
03FFF3FFFF0000
03FFFEFFFF8000
03FFF87FFF8000
03FFF03FFF8000
03FFF03FFFC000
03FFF01FFFC000
03FFF01FFFC000
03FFF00FFFE000
03FFF00FFFE000
03FFF00FFFE000
03FFF007FFE000
03FFF007FFF000
03FFF007FFF000
03FFF007FFF000
03FFF003FFF000
03FFF003FFF800
07FFF003FFF8C0
0FFFF983FFFF80
7FFFFF03FFFF00
7FFFFE01FFFE00
0FFFF801FFF800
03FFF001FFF000
01FFC000FFE000
007F8000FFC000
003F00007F0000
001E00003E0000
000C00001C0000
00000000080000
ENDCHAR
STARTCHAR 006C
ENCODING 108
SWIDTH 291 0
DWIDTH 28 0
BBX 28 66 1 -1
BITMAP
000007F0
00007FF0
0003FF80
000FFE00
C03FFC00
407FF800
20FFF800
31FFF000
13FFF000
1BFFF000
0BFFF000
0FFFF000
0FFFF000
07FFF000
07FFF000
07FFF000
07FFF000
03FFF000
03FFF000
03FFF000
03FFF000
03FFF000
03FFF000
03FFF000
03FFF000
03FFF000
03FFF000
03FFF000
03FFF000
03FFF000
03FFF000
03FFF000
03FFF000
03FFF000
03FFF000
03FFF000
03FFF000
03FFF000
03FFF000
03FFF000
03FFF000
03FFF000
03FFF000
03FFF000
03FFF000
03FFF000
03FFF000
03FFF000
03FFF000
03FFF000
03FFF000
03FFF000
03FFF000
03FFF000
03FFF000
07FFF010
7FFFF870
3FFFFFE0
0FFFFF80
03FFFF00
01FFFC00
00FFF800
003FF000
001FC000
000F8000
00070000
ENDCHAR
STARTCHAR 006D
ENCODING 109
SWIDTH 750 0
DWIDTH 72 0
BBX 70 51 1 0
BITMAP
00180000C00000C000
003E0001F00001E000
007F0003F80003F000
00FFC007FC000FF000
01FFC00FFE001FF800
03FFE01FFF003FFC00
07FFF03FFF00FFFF00
0FFFF07FFF81FFFF80
1FFFF0FFFF83FFFFE0
7FFFF3FFFF8FFFFFF0
FFFFF79FFF9CFFFFF0
C7FFFE1FFFF07FFF80
03FFF81FFFC07FFF00
03FFF01FFF807FFF00
03FFF01FFF807FFF00
03FFF01FFF807FFE00
03FFF01FFF807FFE00
03FFF01FFF807FFE00
03FFF01FFF807FFE00
03FFF01FFF807FFE00
03FFF01FFF807FFE00
03FFF01FFF807FFE00
03FFF01FFF807FFE00
03FFF01FFF807FFE00
03FFF01FFF807FFE00
03FFF01FFF807FFE00
03FFF01FFF807FFE00
03FFF01FFF807FFE00
03FFF01FFF807FFE00
03FFF01FFF807FFE00
03FFF01FFF807FFE00
03FFF01FFF807FFE00
03FFF01FFF807FFE00
03FFF01FFF807FFE00
03FFF01FFF807FFE00
03FFF01FFF807FFE00
03FFF01FFF807FFE00
03FFF01FFF807FFE00
03FFF01FFFC07FFF00
03FFF81FFFC03FFF04
07FFF83FFFE03FFF8C
3FFFFDFFFFF03FFFF8
1FFFFCFFFFE03FFFE0
07FFE03FFF803FFFC0
01FFC00FFE001FFF80
00FF8007FC001FFF00
003F0001F8000FFC00
001E0000F00007F800
000E0000700003F000
00040000200001E000
000400002000000000
ENDCHAR
STARTCHAR 006E
ENCODING 110
SWIDTH 531 0
DWIDTH 51 0
BBX 49 51 1 0
BITMAP
00180000100000
003E0000380000
007F8000FC0000
00FFC001FE0000
01FFE003FF0000
03FFE00FFF8000
07FFF01FFFC000
0FFFF03FFFF000
1FFFF0FFFFF800
3FFFF9FFFFFE00
7FFFFB1FFFFE00
C7FFFE1FFFE000
83FFF80FFFC000
01FFF80FFFC000
01FFF80FFFC000
01FFF80FFFC000
01FFF80FFFC000
01FFF80FFFC000
01FFF80FFFC000
01FFF80FFFC000
01FFF80FFFC000
01FFF80FFFC000
01FFF80FFFC000
01FFF80FFFC000
01FFF80FFFC000
01FFF80FFFC000
01FFF80FFFC000
01FFF80FFFC000
01FFF80FFFC000
01FFF80FFFC000
01FFF80FFFC000
01FFF80FFFC000
01FFF80FFFC000
01FFF80FFFC000
01FFF80FFFC000
01FFF80FFFC000
01FFF80FFFC000
01FFF80FFFC000
03FFF80FFFC000
03FFF80FFFC080
07FFFC0FFFE100
3FFFFE0FFFFE00
1FFFFC0FFFFC00
03FFF007FFF800
01FFC007FFE000
007F8003FFC000
003F0003FF8000
001F0001FF0000
000E0000FC0000
00040000380000
00000000100000
ENDCHAR
STARTCHAR 006F
ENCODING 111
SWIDTH 468 0
DWIDTH 45 0
BBX 40 50 3 0
BITMAP
0000000600
0000000F00
0000001FC0
0000007FE0
000001FFF0
000007FFF8
00003FFFF8
0003FFFFFC
1FFF8FFFFC
1FFF83FFFE
1FFF80FFFE
1FFF807FFE
1FFF807FFE
1FFF807FFE
1FFF803FFE
1FFF803FFF
1FFF803FFF
1FFF803FFF
1FFF803FFF
1FFF803FFF
1FFF803FFF
1FFF803FFF
1FFF803FFF
1FFF803FFF
1FFF803FFF
1FFF803FFF
1FFF803FFF
1FFF803FFF
1FFF803FFF
1FFF803FFE
1FFF803FFE
1FFF803FFE
1FFF803FFE
1FFF803FFE
1FFF803FFE
1FFFC03FFC
1FFFE03FFC
3FFFF83FFC
7FFFFC3FF8
FFFFFF3FF0
7FFFFFBFE0
0FFFFFFF80
03FFFFFC00
00FFFFE000
003FFF8000
000FFE0000
0007FC0000
0001F80000
0000F00000
0000700000
ENDCHAR
STARTCHAR 0070
ENCODING 112
SWIDTH 531 0
DWIDTH 51 0
BBX 45 79 2 -20
BITMAP
001F00000000
007F00000000
01E000000000
078000000000
0F8000000000
0FC000000000
1FE000000000
1FFC00000000
3FFF00000200
3FFF80000700
3FFFE0001F00
3FFFE0007F80
3FFFF000FFC0
3FFFF803FFC0
3FFFF807FFE0
1FFFF81FFFE0
1FFFFC7FFFE0
0FFFFCFFFFF0
07FFFFDFFFF0
03FFFF03FFF0
00FFFC03FFF0
00FFFC03FFF8
00FFFC01FFF8
00FFFC01FFF8
00FFFC01FFF8
00FFFC01FFF8
00FFFC01FFF8
00FFFC01FFF8
00FFFC01FFF8
00FFFC01FFF8
00FFFC01FFF8
00FFFC01FFF8
00FFFC01FFF8
00FFFC01FFF8
00FFFC01FFF8
00FFFC01FFF8
00FFFC01FFF8
00FFFC01FFF8
01FFFC01FFF8
0FFFFC01FFF8
1FFFFC01FFF8
3FFFFC01FFF8
3FFFFE01FFF8
7FFFFF81FFF8
7FFFFFC1FFF0
FFFFFFE1FFF0
FFFFFFF9FFE0
FFFFFFFDFFC0
E1FFFFFFFF80
C07FFFFFFE00
807FFFFFF000
807FFFFFC000
807FFFFF8000
807FFFFE0000
007FFFFC0000
007FFBF80000
007FF8F80000
003FF8700000
003FF8100000
003FF8000000
003FF8000000
003FF0000000
003FF0000000
001FF0000000
001FF0000000
001FF0000000
001FF0000000
001FE0000000
000FE0000000
000FE0000000
000FE0000000
000FC0000000
0007C0000000
0007C0000000
000780000000
000780000000
000380000000
000300000000
000300000000
ENDCHAR
STARTCHAR 0071
ENCODING 113
SWIDTH 489 0
DWIDTH 47 0
BBX 42 71 4 -20
BITMAP
000002000000
000007000000
00001F800000
00003FE00000
0000FFF00000
0001FFFC0000
0007FFFE0000
001FFFFF8000
007FFFFFE000
03FFFFFFFC00
0FFDFFFFFFC0
1FFC7FFFFFC0
3FFC3FFFFC00
7FFC0FFFF800
FFFC03FFF800
FFFC03FFF000
FFFC03FFF000
FFFC03FFF000
FFFC03FFF000
FFFC03FFF000
FFFC03FFF000
FFFC03FFF000
FFFC03FFF000
FFFC03FFF000
FFFC03FFF000
FFFC03FFF000
FFFC03FFF000
FFFC03FFF000
FFFC03FFF000
FFFC03FFF000
FFFC03FFF000
FFFC03FFF000
FFFC03FFF000
FFFC03FFF000
FFFC03FFF000
FFFC03FFF000
FFFE03FFF000
FFFE03FFF000
FFFE03FFF000
FFFF03FFF000
FFFF07FFF000
7FFF8DFFF000
7FFFF9FFF000
7FFFE1FFF000
7FFFC1FFF000
3FFF81FFF000
3FFE01FFF000
1FFC01FFF000
0FF801FFE000
07F001FFE000
01E001FFE000
00C000FFE000
000000FFE000
000000FFE000
000000FFC000
000000FFC000
0000007FC000
0000007FC000
0000007FC000
0000007F8000
0000003F8000
0000003F8000
0000003F8000
0000001F8000
0000001F0000
0000001F0000
0000000F0000
0000000F0000
0000000E0000
000000060000
000000060000
ENDCHAR
STARTCHAR 0072
ENCODING 114
SWIDTH 437 0
DWIDTH 42 0
BBX 41 50 1 0
BITMAP
000400000000
001F00004000
003F8000E000
007FC001E000
00FFE003F000
01FFF007F000
03FFF00FF800
07FFF81FFC00
0FFFF83FFC00
1FFFF87FFE00
3FFFF8FFFF00
7FFFFDFFFF00
C3FFFF7FFF80
81FFFE3FFF80
01FFFC3FFF80
01FFFC1FFF00
00FFFC0FFE00
00FFFC0FFC00
00FFFC07F800
00FFFC07F000
00FFFC03E000
00FFFC03C000
00FFFC018000
00FFFC010000
00FFFC000000
00FFFC000000
00FFFC000000
00FFFC000000
00FFFC000000
00FFFC000000
00FFFC000000
00FFFC000000
00FFFC000000
00FFFC000000
00FFFC000000
00FFFC000000
00FFFC001000
01FFFC003000
01FFFE00E000
07FFFE018000
7FFFFF870000
1FFFFFFE0000
03FFFFF80000
00FFFFF00000
003FFFE00000
000FFF800000
0007FF000000
0003FE000000
0001F8000000
000070000000
ENDCHAR
STARTCHAR 0073
ENCODING 115
SWIDTH 489 0
DWIDTH 47 0
BBX 42 64 3 -1
BITMAP
00003FF00000
0001FFFE0000
0007E00F8000
000F0001C000
001C00006000
003800003000
007000001800
00E000000C00
00C000000E00
00C000000600
018000000600
018000000700
018000000700
000010000700
000038000F00
00007C000F00
0000FF001F00
0001FFC07F00
0003FFFFFF00
0007FFFFFF00
000FFFFFFE00
001FFFFFFE00
003FFFFFFC00
0077FFFFFC00
00E3FFFFF800
01E0FFFFF800
03E07FFFF000
07E01FFFE000
0FE007FFC000
1FE000FC8000
1FF00001F000
3FF00003FC00
3FF80003FE00
7FF80007FF00
7FFC001FFF00
7FFE003FFF80
7FFF80FFFF80
7FFFFFFFFFC0
7FFFFFFFFFC0
3FFFE03FFFC0
3FFF000FFFC0
1FFE0007FFC0
0FF80003FFC0
07F00001FF80
03F00001FF80
00E00001FF00
00400000FF00
00FFC000FE00
00FFF800FC00
01FFFF00F800
01FFFF80F000
03FFFFE0E000
03FFFFF9C000
07FFFFFD8000
0FFFFFFF0000
0FFFFFFE0000
1FFFFFFC0000
3FFFFFF80000
3FFFFFF00000
701FFFE00000
E001FFC00000
40001F800000
000007800000
000001000000
ENDCHAR
STARTCHAR 0074
ENCODING 116
SWIDTH 343 0
DWIDTH 33 0
BBX 30 64 2 -1
BITMAP
00003000
00003000
00007000
00007000
00007000
0000F000
0000F000
0000F000
0001F000
0001F000
0003F000
0003F000
0007F000
0007F000
000FF000
001FF000
001FF000
003FF000
007FF000
007FF000
00FFFFFC
01FFFFFC
03FFFFFC
07FFFFFC
1FFFFFFC
7FFFFFFC
FFFFFFFC
03FFF000
03FFF000
03FFF000
03FFF000
03FFF000
03FFF000
03FFF000
03FFF000
03FFF000
03FFF000
03FFF000
03FFF000
03FFF000
03FFF000
03FFF000
03FFF000
03FFF000
03FFF000
03FFF000
03FFF000
03FFF000
03FFF000
03FFF000
03FFF804
03FFFC3C
07FFFFF0
7FFFFFE0
3FFFFFC0
07FFFF80
01FFFE00
00FFFC00
003FF800
001FF000
000FE000
00078000
00030000
00020000
ENDCHAR
STARTCHAR 0075
ENCODING 117
SWIDTH 531 0
DWIDTH 51 0
BBX 49 51 1 0
BITMAP
000C0000100000
001F0000180000
003F80003C0000
007FC0007C0000
00FFC0007E0000
03FFE000FF8000
07FFE003FFC000
0FFFF00FFFF000
1FFFF03FFFFC00
3FFFF07FFFFE00
7FFFF80FFFF000
87FFF80FFFE000
03FFF807FFE000
01FFF807FFE000
01FFF807FFE000
01FFF807FFE000
01FFF807FFE000
01FFF807FFE000
01FFF807FFE000
01FFF807FFE000
01FFF807FFE000
01FFF807FFE000
01FFF807FFE000
01FFF807FFE000
01FFF807FFE000
01FFF807FFE000
01FFF807FFE000
01FFF807FFE000
01FFF807FFE000
01FFF807FFE000
01FFF807FFE000
01FFF807FFE000
01FFF807FFE000
01FFF807FFE000
01FFF807FFE000
01FFF807FFE000
01FFF807FFE000
01FFF807FFE000
03FFF80FFFE000
03FFF81FFFE080
07FFF877FFF180
3FFFFFC7FFFF00
1FFFFF87FFFE00
07FFFE07FFF800
03FFFC03FFF000
00FFF803FFE000
007FE001FFC000
003FC000FF8000
001F00007F0000
000E00001E0000
00080000040000
ENDCHAR
STARTCHAR 0076
ENCODING 118
SWIDTH 510 0
DWIDTH 49 0
BBX 43 59 2 -1
BITMAP
003FC0000000
01FFC0000000
07E040000000
0F8000000000
1F8000000000
3F8000000000
3FC000000000
7FE000000000
7FFC00000000
7FFF00007000
7FFFC000F800
FFFFE003FC00
7FFFE007FE00
7FFFF01FFF00
7FFFF03FFF00
7FFFF0FFFF80
3FFFFBFFFFC0
3FFFFFBFFFC0
0FFFFE1FFFC0
07FFF80FFFC0
03FFF80FFFC0
03FFF80FFFE0
03FFF80FFFE0
03FFF80FFFE0
03FFF80FFFE0
03FFF80FFFE0
03FFF80FFFE0
03FFF80FFFE0
03FFF80FFFE0
03FFF80FFFE0
03FFF80FFFE0
03FFF80FFFE0
03FFF80FFFE0
03FFF80FFFE0
03FFF80FFFE0
03FFF80FFFE0
03FFF80FFFE0
03FFF80FFFE0
03FFF80FFFE0
03FFF80FFFE0
03FFF80FFFE0
03FFF80FFFC0
03FFF80FFFC0
03FFF80FFFC0
03FFFC0FFFC0
0FFFFE0FFF80
3FFFFF0FFF00
1FFFFF8FFE00
07FFFFEFFC00
01FFFFFFF800
007FFFFFE000
001FFFFF0000
000FFFF80000
0003FFE00000
0001FF800000
0000FE000000
00007C000000
000038000000
000010000000
ENDCHAR
STARTCHAR 0077
ENCODING 119
SWIDTH 729 0
DWIDTH 70 0
BBX 64 58 2 -1
BITMAP
003F800000000000
01FF800000000000
07C0000000000000
1F00000000000000
3F00000000000000
3F00000000000000
7F80000000000000
7FE0000000000000
FFFC000000000000
FFFF0000700001C0
FFFF8001F80007E0
FFFFC003FC001FF0
FFFFE00FFE003FF0
FFFFE03FFF00FFF8
FFFFF07FFF01FFFC
7FFFF1FFFF87FFFC
7FFFF3FFFFCFFFFE
3FFFFF3FFFF87FFE
1FFFFC1FFFE07FFF
0FFFF00FFFC03FFF
03FFF00FFFC03FFF
03FFF00FFFC03FFF
03FFF00FFFC03FFF
03FFF00FFFC03FFF
03FFF00FFFC03FFF
03FFF00FFFC03FFF
03FFF00FFFC03FFF
03FFF00FFFC03FFF
03FFF00FFFC03FFF
03FFF00FFFC03FFF
03FFF00FFFC03FFF
03FFF00FFFC03FFF
03FFF00FFFC03FFF
03FFF00FFFC03FFF
03FFF00FFFC03FFF
03FFF00FFFC03FFF
03FFF00FFFC03FFF
03FFF00FFFC03FFF
03FFF00FFFC03FFF
03FFF00FFFC03FFF
03FFF00FFFC03FFF
03FFF00FFFC03FFF
03FFF00FFFC03FFF
03FFF00FFFC03FFF
03FFF00FFFC03FFE
03FFF00FFFE03FFC
03FFF00FFFF83FF8
07FFF81FFFFE3FF0
7FFFFC3FFFFFBFC0
1FFFFF7FFFFFFE00
07FFF81FFFFFF800
03FFE003FFFFC000
00FFC000FFFF0000
007F80003FFE0000
007F00001FF80000
003E000007F00000
001C000003E00000
0018000001C00000
ENDCHAR
STARTCHAR 0078
ENCODING 120
SWIDTH 468 0
DWIDTH 45 0
BBX 47 51 -1 -1
BITMAP
000700004002
000FC0007006
001FF000F806
003FF800FE0C
007FF801FFFC
00FFFC01FFFC
01FFFE01FFFC
03FFFE03FFF8
07FFFF03FFF8
0FFFFF07FFF0
1FFFFF87FFE0
3DFFFF85FFE0
607FFFCC7FC0
003FFFC81F00
001FFFD80000
001FFFF80000
000FFFF00000
000FFFF00000
0007FFF00000
0007FFF80000
0003FFF80000
0003FFFC0000
0003FFFC0000
0001FFFC0000
0001FFFE0000
0000FFFE0000
0000FFFF0000
00007FFF0000
00007FFF8000
00003FFF8000
00003FFFC000
00001FFFC000
00001FFFE000
00001FFFE000
00001FFFF000
00003FFFF000
000027FFF800
000027FFF800
03F063FFF800
07FE43FFFC00
0FFFC1FFFE02
1FFF81FFFFBE
3FFF80FFFFF8
3FFF80FFFFE0
3FFF007FFF80
7FFF007FFE00
7FFE003FF800
7FFE003FE000
60FE001F0000
801C001C0000
800400000000
ENDCHAR
STARTCHAR 0079
ENCODING 121
SWIDTH 510 0
DWIDTH 49 0
BBX 42 79 2 -21
BITMAP
007C00000000
01FC00000000
07C000000000
0F0000000000
1E0000000000
3F0000000000
7F8000000000
7FE000000000
7FF800000000
FFFE00003800
FFFF80007800
FFFFC001FC00
FFFFC003FE00
FFFFE00FFF00
7FFFE01FFF00
7FFFF03FFF80
7FFFF0FFFF80
3FFFF1FFFF80
1FFFF71FFFC0
0FFFFE0FFFC0
03FFF80FFFC0
03FFF00FFFC0
03FFF00FFFC0
03FFF00FFFC0
03FFF00FFFC0
03FFF00FFFC0
03FFF00FFFC0
03FFF00FFFC0
03FFF00FFFC0
03FFF00FFFC0
03FFF00FFFC0
03FFF00FFFC0
03FFF00FFFC0
03FFF00FFFC0
03FFF00FFFC0
03FFF00FFFC0
03FFF00FFFC0
03FFF00FFFC0
03FFF00FFFC0
03FFF00FFFC0
03FFF00FFFC0
03FFF00FFFC0
03FFF00FFFC0
03FFF00FFFC0
03FFF00FFFC0
03FFF00FFFC0
03FFF80FFFC0
03FFF84FFFC0
07FFFFCFFFC0
3FFFFF0FFFC0
1FFFFE0FFFC0
07FFFC0FFF80
03FFF00FFF80
00FFE00FFF80
007FC00FFF80
003F800FFF00
001F000FFF00
000F000FFF00
000E000FFE00
0004000FFE00
0000000FFE00
0000001FFC00
0000001FFC00
0000001FF800
0000001FF000
0000003FE000
0000003FE000
0000003FC000
0000007F8000
0000007F0000
000000FC0000
000001F80000
000003E00000
000007C00000
00000F000000
00001C000000
000070000000
0001C0000000
000100000000
ENDCHAR
STARTCHAR 007A
ENCODING 122
SWIDTH 385 0
DWIDTH 37 0
BBX 35 71 0 -20
BITMAP
0000080000
00003C0000
00007E0000
0000FF0000
0001FF8000
0007FFC000
000FFFC000
001FFFE000
003FFFF000
007FFFF000
01FFFFF800
03FFFFF800
070FFFF800
0C03FFF800
0001FFF800
0001FFF800
0000FFF000
0000FFF000
0000FFE000
0000FFE000
0000FFC000
0000FF0000
0000FE0000
0001F80380
0003E00F00
0007F07800
001FFFE000
01FFFFC000
07F0FFE000
0FC07FF000
0F81FFF800
06073FFC00
001C1FFE00
00381FFF00
00F01FFF00
01E01FFF80
03C01FFF80
07C00FFF80
07800FFFC0
0F800FFFC0
1F000FFFC0
1F000FFFC0
3E000FFFE0
3E000FFFE0
7E000FFFE0
7E000FFFE0
7E000FFFE0
7C000FFFE0
FC000FFFE0
FC000FFFE0
FC000FFFE0
FC000FFFE0
FC000FFFE0
FC000FFFC0
FC000FFFC0
FC000FFFC0
FC000FFFC0
FC000FFF80
FC000FFF80
7C000FFF00
7C001FFF00
7E001FFE00
3E001FFC00
3E001FFC00
1F003FF800
0F003FF000
0F807FE000
07C07FC000
03E0FF0000
00FFFC0000
001FE00000
ENDCHAR
STARTCHAR 007B
ENCODING 123
SWIDTH 322 0
DWIDTH 31 0
BBX 24 86 4 -20
BITMAP
0000FF
000FFF
003FFE
007FFC
00FFF8
01FFF0
01FFE0
03FFE0
03FFC0
03FFC0
03FFC0
03FFC0
03FFC0
03FFC0
03FFC0
03FFC0
03FFC0
03FFC0
03FFC0
03FFC0
03FFC0
03FFC0
03FFC0
03FFC0
03FFC0
03FFC0
03FFC0
03FFC0
03FFC0
03FFC0
03FFC0
03FFC0
03FFC0
03FFC0
03FFC0
07FF80
07FF80
07FF80
07FF80
0FFF00
1FFE00
3FFC00
FFF000
FFF000
3FFC00
1FFE00
0FFF00
07FF80
07FF80
07FF80
07FF80
03FFC0
03FFC0
03FFC0
03FFC0
03FFC0
03FFC0
03FFC0
03FFC0
03FFC0
03FFC0
03FFC0
03FFC0
03FFC0
03FFC0
03FFC0
03FFC0
03FFC0
03FFC0
03FFC0
03FFC0
03FFC0
03FFC0
03FFC0
03FFC0
03FFC0
03FFC0
03FFC0
03FFE0
01FFE0
01FFE0
00FFF0
007FF8
003FFE
000FFF
0000FF
ENDCHAR
STARTCHAR 007C
ENCODING 124
SWIDTH 218 0
DWIDTH 21 0
BBX 10 67 5 -1
BITMAP
FFC0
FFC0
FFC0
FFC0
FFC0
FFC0
FFC0
FFC0
FFC0
FFC0
FFC0
FFC0
FFC0
FFC0
FFC0
FFC0
FFC0
FFC0
FFC0
FFC0
FFC0
FFC0
FFC0
FFC0
FFC0
FFC0
FFC0
FFC0
FFC0
FFC0
FFC0
FFC0
FFC0
FFC0
FFC0
FFC0
FFC0
FFC0
FFC0
FFC0
FFC0
FFC0
FFC0
FFC0
FFC0
FFC0
FFC0
FFC0
FFC0
FFC0
FFC0
FFC0
FFC0
FFC0
FFC0
FFC0
FFC0
FFC0
FFC0
FFC0
FFC0
FFC0
FFC0
FFC0
FFC0
FFC0
FFC0
ENDCHAR
STARTCHAR 007D
ENCODING 125
SWIDTH 322 0
DWIDTH 31 0
BBX 24 86 3 -20
BITMAP
FF0000
FFF000
7FFE00
1FFF00
0FFF00
07FF80
07FF80
07FFC0
03FFC0
03FFC0
03FFC0
03FFC0
03FFC0
03FFC0
03FFC0
03FFC0
03FFC0
03FFC0
03FFC0
03FFC0
03FFC0
03FFC0
03FFC0
03FFC0
03FFC0
03FFC0
03FFC0
03FFC0
03FFC0
03FFC0
03FFC0
03FFC0
03FFC0
03FFC0
01FFC0
01FFE0
01FFE0
01FFE0
01FFE0
00FFF0
007FF8
003FFC
001FFF
000FFF
003FFC
007FF8
00FFF0
01FFF0
01FFE0
01FFE0
01FFE0
01FFC0
03FFC0
03FFC0
03FFC0
03FFC0
03FFC0
03FFC0
03FFC0
03FFC0
03FFC0
03FFC0
03FFC0
03FFC0
03FFC0
03FFC0
03FFC0
03FFC0
03FFC0
03FFC0
03FFC0
03FFC0
03FFC0
03FFC0
03FFC0
03FFC0
03FFC0
03FFC0
07FFC0
07FF80
0FFF80
0FFF00
1FFF00
7FFE00
FFF800
FF0000
ENDCHAR
STARTCHAR 007E
ENCODING 126
SWIDTH 437 0
DWIDTH 42 0
BBX 38 14 5 36
BITMAP
0040000000
00F0000004
01F800000C
01FE000038
03FF800070
07FFE001F0
0FFFFC07E0
1FFFFFFFC0
1FFFFFFF80
3F807FFF00
7C000FFE00
F00001FE00
C000007C00
8000001800
ENDCHAR
STARTCHAR 00A0
ENCODING 160
SWIDTH 479 0
DWIDTH 46 0
BBX 0 0 0 0
BITMAP
ENDCHAR
STARTCHAR 00A1
ENCODING 161
SWIDTH 364 0
DWIDTH 35 0
BBX 19 68 8 -18
BITMAP
00C000
00C000
01E000
01F000
03F000
07F800
0FFC00
1FFF00
7FFFC0
FFFFE0
FFFFC0
1FFF00
0FFC00
07F800
03F000
01F000
01E000
00E000
00C000
000000
000000
000000
000000
004000
00C000
00C000
00E000
00E000
01E000
01E000
01F000
01F000
03F000
03F000
03F800
03F800
07F800
07F800
07FC00
07FC00
0FFC00
0FFE00
0FFE00
0FFE00
1FFE00
1FFF00
1FFF00
1FFF00
1FFF00
3FFF80
3FFF80
3FFF80
3FFF80
3FFF80
3FFF80
3FFFC0
3FFFC0
3FFFC0
3FFFC0
3FFFC0
3FFFC0
3FFFC0
3FFF80
1FFF80
1FFF80
0FFF00
07FE00
03F800
ENDCHAR
STARTCHAR 00A2
ENCODING 162
SWIDTH 562 0
DWIDTH 54 0
BBX 51 65 5 -7
BITMAP
000000C0000000
000001C0000000
000001C0000000
000001C0000000
000001C0000000
000001C0000000
000001C0000000
000001C0000000
00007FC0030000
0007FFE0070000
001FF9F01F8000
007FE1F83FC000
00FFC1CCFFE000
01FF81C5FFF020
03FF81C7FFFFE0
07FF01C5FFFFC0
0FFF01DCFFFF80
1FFF01FC3FFF00
1FFE01FC1FFE00
3FFE01FC03F800
3FFE01FE000000
7FFC01FF000000
7FFC07FF800000
7FFC0FFF800000
FFFC0FFFC00000
FFFC0FFFE00000
FFFC0FFFE00000
FFFC0FFFF00000
FFFC0FFFF00000
FFFC0FFFF80000
FFFC07FFFC0000
FFFC07FFFC0000
FFFC03FFFE0000
FFFC01FFFE0000
FFFC01FFFF0000
FFFC01FFFF0000
FFFC01FFFF0000
FFFC31FFFF0000
FFFC31DFFF0000
7FFC31DFFF8000
7FFC19CFFF0000
7FFC19CFFF0060
3FFC0DC7FF0040
3FFE0DC7FF0040
1FFE07C7FE00C0
1FFE03C7FE0080
0FFF01C7FC0080
0FFF01CFF80180
07FF81FFE00100
03FF81DF800200
01FFC1C0000600
00FFE1C0000C00
007FF1C0001800
001FFDC0003000
0007FFC000C000
0001FFC0038000
00007FC01E0000
000007FFF00000
000001FF000000
000001C0000000
000001C0000000
000001C0000000
000001C0000000
000001C0000000
00000100000000
ENDCHAR
STARTCHAR 00A3
ENCODING 163
SWIDTH 604 0
DWIDTH 58 0
BBX 53 67 3 -1
BITMAP
000001FFF80000
00001FFFFF8000
0000FF003FF000
0003F80003FC00
000FE000007E00
001FC000003F00
003F8000001F80
00FF0000000FC0
00FF0000003FE0
01FF000000FFE0
03FF000003FFF0
03FF00000FFFF0
07FF00001FFFF0
07FF80001FFFF0
0FFF80003FFFF8
0FFFC0003FFFF8
0FFFC0003FFFF8
0FFFE0003FFFF0
0FFFF0003FFFF0
0FFFF8003FFFF0
0FFFFC003FFFE0
0FFFFC001FFFE0
0FFFFE000FFFC0
0FFFFF0007FF80
0FFFFF8001FE00
07FFFF80000000
07FFFFC0000000
03FFFFC0000000
03FFFFE0000000
01FFFFE0000000
00FFFFE0000000
007FFFE0000000
003FFFF0000000
001FFFE0000000
FFFFFFFFFFFF80
FFFFFFFFFFFF80
0003FFE0000000
0001FFC0000000
0001FF80000000
0000FF00000000
0000FC00000000
0000F800000000
0001E000000000
00038000000000
00040000000000
001FE000000000
003FFC00000000
00FFFF00000000
01FFFFC0000000
03FFFFF0000018
0FFFFFF8000018
0FFFFFFE000010
1FFFFFFF800030
3FFFFFFFC00030
3C7FFFFFF00070
303FFFFFFC00E0
300FFFFFFF83E0
2007FFFFFFFFE0
6001FFFFFFFFC0
6000FFFFFFFF80
60003FFFFFFF80
00001FFFFFFF00
000007FFFFFE00
000003FFFFF800
000000FFFFF000
0000001FFFC000
00000003FC0000
ENDCHAR
STARTCHAR 00A4
ENCODING 164
SWIDTH 635 0
DWIDTH 61 0
BBX 43 43 9 10
BITMAP
0C00FFE00400
1E07FFF80E00
3E0FFFFE1F00
7F3FFFFF3F80
FFFFFFFFFFC0
FFFFFFFFFFE0
7FFFFFFFFFC0
3FFFFFFFFF80
1FFFFFFFFF00
1FFFFFFFFE00
1FFFFFFFFF00
3FFF807FFF00
3FFF001FFF80
7FFC000FFF80
7FF80007FFC0
FFF80003FFC0
FFF00001FFC0
FFF00001FFC0
FFE00001FFE0
FFE00000FFE0
FFE00000FFE0
FFE00000FFE0
FFE00000FFE0
FFE00000FFE0
FFE00001FFE0
FFE00001FFE0
FFF00001FFC0
7FF00003FFC0
7FF80007FFC0
7FFC000FFFC0
3FFE001FFF80
3FFF807FFF80
1FFFFFFFFF00
1FFFFFFFFE00
1FFFFFFFFF00
3FFFFFFFFF80
7FFFFFFFFFC0
FFFFFFFFFFC0
FFFFFFFFFFC0
7FBFFFFFBF80
3F1FFFFE1F00
1E07FFF80E00
0C00FFC00400
ENDCHAR
STARTCHAR 00A5
ENCODING 165
SWIDTH 635 0
DWIDTH 61 0
BBX 61 66 -1 0
BITMAP
FFFFFFFC003FFFF8
FFFFFFFC003FFFF8
1FFFFF800001FFE0
03FFFE0000007FC0
01FFFE0000007F80
00FFFE0000007F00
00FFFE0000007E00
007FFE0000007C00
003FFF0000007800
003FFF000000F000
001FFF800000F000
001FFF800000E000
000FFF800001C000
000FFFC00003C000
0007FFC000038000
0007FFE000078000
0003FFE000070000
0001FFF0000F0000
0001FFF0000E0000
0000FFF8001C0000
0000FFF8003C0000
00007FFC00380000
00007FFC00780000
00003FFE00700000
00003FFE00F00000
00001FFF01E00000
00001FFF01C00000
00000FFF83C00000
000007FF83800000
000007FFC7800000
000003FFC7000000
000003FFEF000000
000001FFFE000000
000FFFFFFFFFE000
000FFFFFFFFFE000
000FFFFFFFFFE000
000000FFFC000000
000000FFFC000000
000000FFFC000000
000000FFFC000000
000000FFFC000000
000000FFFC000000
000000FFFC000000
000000FFFC000000
000FFFFFFFFFE000
000FFFFFFFFFE000
000FFFFFFFFFE000
000000FFFC000000
000000FFFC000000
000000FFFC000000
000000FFFC000000
000000FFFC000000
000000FFFC000000
000000FFFC000000
000000FFFC000000
000000FFFC000000
000000FFFC000000
000000FFFC000000
000000FFFC000000
000000FFFC000000
000000FFFC000000
000001FFFC000000
000001FFFC000000
000003FFFF000000
00007FFFFFF80000
00007FFFFFF80000
ENDCHAR
STARTCHAR 00A6
ENCODING 166
SWIDTH 218 0
DWIDTH 21 0
BBX 10 67 5 -1
BITMAP
FFC0
FFC0
FFC0
FFC0
FFC0
FFC0
FFC0
FFC0
FFC0
FFC0
FFC0
FFC0
FFC0
FFC0
FFC0
FFC0
FFC0
FFC0
FFC0
FFC0
FFC0
FFC0
FFC0
FFC0
FFC0
FFC0
0000
0000
0000
0000
0000
0000
0000
0000
0000
0000
0000
0000
0000
0000
0000
FFC0
FFC0
FFC0
FFC0
FFC0
FFC0
FFC0
FFC0
FFC0
FFC0
FFC0
FFC0
FFC0
FFC0
FFC0
FFC0
FFC0
FFC0
FFC0
FFC0
FFC0
FFC0
FFC0
FFC0
FFC0
FFC0
ENDCHAR
STARTCHAR 00A7
ENCODING 167
SWIDTH 604 0
DWIDTH 58 0
BBX 46 87 6 -21
BITMAP
00003FF80000
0001FFFF8000
000FE00FE000
001F8001F800
003E0000FC00
007C00007E00
00F80001FF00
01F80003FF00
03F00007FF80
03F0000FFF80
07F0001FFF80
07F0001FFF80
0FF0001FFF80
0FF8001FFF00
0FFC000FFF00
0FFE0007FE00
0FFF8001F800
0FFFE0000000
0FFFFC000000
0FFFFF800000
0FFFFFE00000
0FFFFFFC0000
07FFFFFF8000
07FFFFFFE000
03FFFFFFF800
01FFFFFFFE00
00FFFFFFFF00
007FFFFFFF80
007FFFFFFFC0
00BFFFFFFFE0
030FFFFFFFF0
0601FFFFFFF0
0E007FFFFFF8
0C000FFFFFF8
1C0003FFFFF8
3C00007FFFFC
3C00001FFFFC
7C000007FFFC
7C000000FFFC
7E0000003FFC
FF0000000FFC
FF80000003FC
FFE0000001FC
FFF0000001F8
FFFC000000F8
FFFF000000F8
FFFFC00000F0
FFFFF80000F0
FFFFFE0000E0
FFFFFF8001E0
7FFFFFE001C0
7FFFFFFC0380
3FFFFFFF0700
3FFFFFFFCE00
1FFFFFFFF800
0FFFFFFFF800
07FFFFFFFC00
01FFFFFFFE00
007FFFFFFF00
001FFFFFFF00
0007FFFFFF80
0000FFFFFF80
00003FFFFF80
000007FFFF80
000001FFFFC0
0000007FFFC0
0000000FFFC0
00000007FFC0
00FC0001FFC0
03FF0000FFC0
07FFC0007FC0
07FFC0003FC0
0FFFE0003F80
0FFFE0001F80
0FFFE0001F80
0FFFE0001F80
0FFFC0001F00
0FFF80001F00
07FF00003E00
07FE00003E00
03FC00007C00
01F80000F800
00F80001F000
007E0007E000
001F803F8000
0007FFFE0000
00007FE00000
ENDCHAR
STARTCHAR 00A8
ENCODING 168
SWIDTH 385 0
DWIDTH 37 0
BBX 34 14 1 60
BITMAP
0300003000
0300003000
0780007800
0FC000FC00
1FE001FE00
3FF003FF00
FFFC0FFFC0
FFFC0FFFC0
3FF003FF00
1FE001FE00
0FC000FC00
0780007800
0300003000
0300003000
ENDCHAR
STARTCHAR 00A9
ENCODING 169
SWIDTH 781 0
DWIDTH 75 0
BBX 69 67 3 -1
BITMAP
00000007FF80000000
000000FFFFF8000000
000007FFFFFF000000
00001FFFFFFFC00000
00007FFFFFFFF00000
0000FFFFFFFFFC0000
0003FFFFFFFFFE0000
0007FFF800FFFF8000
000FFF80000FFFC000
001FFE000001FFE000
003FF80000007FF000
007FE00000003FF800
00FFC00000000FFC00
01FF8000000007FE00
03FE0000000003FE00
03FC0000000001FF00
07F8007F008000FF80
0FF801FF8180007F80
0FF007FF83C0007FC0
1FE00FF047C0003FC0
1FE01FE02FE0001FE0
3FC03FC073F0801FE0
3FC03FC0E1FF000FE0
3F807F81E07C000FF0
7F807F87F0000007F0
7F00FF8FF0000007F0
7F00FF8FF8000007F8
7F00FF9FF8000003F8
7F00FF9FFC000003F8
FF01FF1FFC000003F8
FE01FF0FFE000003F8
FE01FF0FFF000003F8
FE01FF0FFF000003F8
FE01FF07FF000003F8
FE01FF03FF800003F8
FE01FF03FF800003F8
FE00FF11FF800003F8
FF00FF10FF800003F8
7F00FF107F800003F8
7F00FF887F808003F8
7F007F883F008007F8
7F007F843F008007F0
7F803F843E010007F0
3F803FC37801000FF0
3FC01FC08002000FE0
3FC00FE00006001FE0
1FE007F0000C001FE0
1FE003F80038003FC0
0FF000FE01E0003FC0
0FF8003FFFC0007F80
07FC0007FE0000FF80
07FE0000000001FF00
03FF0000000003FE00
01FF8000000007FC00
00FFC00000000FFC00
00FFE00000003FF800
007FF80000007FF000
003FFE000001FFE000
000FFF80000FFFC000
0007FFF800FFFF8000
0003FFFFFFFFFE0000
0001FFFFFFFFFC0000
00007FFFFFFFF00000
00001FFFFFFFC00000
000007FFFFFF000000
000000FFFFF8000000
00000007FF80000000
ENDCHAR
STARTCHAR 00AA
ENCODING 170
SWIDTH 375 0
DWIDTH 36 0
BBX 30 35 5 33
BITMAP
00018000
0003C000
000FE000
003FF800
00FFFE00
03FFFF80
0FDFFFF0
1FCFFFF8
3FC7FFC0
7FC3FF80
FFC1FF80
FFC1FF80
FFC1FF80
FFC1FF80
FFC1FF80
FFC1FF80
FFC1FF80
FFC1FF80
FFC1FF80
FFC1FF80
FFC1FF80
FFC1FF80
FFC1FF80
FFC1FF80
FFC1FF80
FFC1FF80
FFC1FF80
FFC1FFC4
FFE7FFFC
7FF9FFF0
7FF0FFE0
3FE07FC0
3F803F00
0F001E00
06000C00
ENDCHAR
STARTCHAR 00AB
ENCODING 171
SWIDTH 395 0
DWIDTH 38 0
BBX 29 36 4 7
BITMAP
0000C008
00018018
00038038
00070070
000F00F0
001E01E0
003E03E0
007C03C0
00FC07C0
01FC0FC0
03F81F80
07F83F80
0FF07F00
0FF0FF00
1FE1FE00
3FE3FE00
7FE7FC00
FFC7FC00
FFC7FC00
7FE7FE00
3FE3FE00
1FF1FE00
0FF0FF00
07F07F00
03F83F80
01F81F80
00FC0FC0
00FC07C0
007E03C0
003E01E0
001E00E0
000F00F0
00070070
00038038
00018018
0000C008
ENDCHAR
STARTCHAR 00AC
ENCODING 172
SWIDTH 958 0
DWIDTH 92 0
BBX 83 30 4 -6
BITMAP
0FC00000700601C0000000
3DE00000F3060380000000
70700000C3060300000000
60380000C3060700000000
60180000C3060E00000000
60180000C3060C00000000
60000F07FFC61C01E0C060
60003FC7FFC63803F0C060
700030E0C306700618C060
38006060C306700C186060
1C006060C306E00C0C60C0
0F804060C307F00C0C60C0
03E0C030C307B00C0C60C0
00F0C030C307B80C0C3180
0038C030C307180FFC3180
0018C030C3061C0C003180
001C4020C3060C0C003180
C00C4020C3060E0C001B00
C00C4060C306060C001B00
E01C6060C306070C0C1B00
60186060C306030C0C1F00
703860C0C30601860C0E00
3FF031C0C38601C7180E00
1FE03F80C1C600C3F00E00
02000E0000000000C00C00
0000000000000000000C00
0000000000000000000C00
0000000000000000001C00
000000000000000000F800
000000000000000000F000
ENDCHAR
STARTCHAR 00AD
ENCODING 173
SWIDTH 437 0
DWIDTH 42 0
BBX 26 8 8 21
BITMAP
FFFFFFC0
FFFFFFC0
FFFFFFC0
FFFFFFC0
FFFFFFC0
FFFFFFC0
FFFFFFC0
FFFFFFC0
ENDCHAR
STARTCHAR 00AE
ENCODING 174
SWIDTH 781 0
DWIDTH 75 0
BBX 69 67 3 -1
BITMAP
00000007FF80000000
000000FFFFF8000000
000007FFFFFF000000
00001FFFFFFFC00000
00007FFFFFFFF00000
0000FFFFFFFFFC0000
0003FFFFFFFFFE0000
0007FFF800FFFF8000
000FFF80000FFFC000
001FFE000001FFE000
003FF80000007FF000
007FE00000003FF800
00FFC00000000FFC00
01FF8000000007FE00
03FE0000000003FE00
03FC0000000001FF00
07F80000000000FF80
0FF800000000007F80
0FF003F801F8007FC0
1FE01CFF07FE003FC0
1FE0207F88FF001FE0
3FC0403FC8FF001FE0
3FC0603FD8FF800FE0
3F80F01FF0FF800FF0
7F80F81FF0FF8007F0
7F01FC1FF0FF8007F0
7F01FE1FF07F8007F8
7F01FF1FF07F8003F8
7F01FF9FF03F8003F8
FF00FFCFF01FC003F8
FE00FFCFF00FF003F8
FE007FCFF0023003F8
FE003FCFFFFE0003F8
FE001FCFFFFF0003F8
FE000FCFF1FF0003F8
FE00078FF1FF0003F8
FE00070FF1FF0003F8
FF001C0FF1FF0003F8
7F00200FF1FF0003F8
7F00000FF1FF0003F8
7F003E0FE1FF0007F8
7F007F0FE1FF0007F0
7F80FF0FE1FF0007F0
3F80FF0FC1FF000FF0
3FC0FF0FC1FF000FE0
3FC0FF1F81FF081FE0
1FE07C1F81FFB01FE0
1FE0701F00FFC03FC0
0FF0303E00FF803FC0
0FF81878007E007F80
07FC0FE0001800FF80
07FE0000000001FF00
03FF0000000003FE00
01FF8000000007FC00
00FFC00000000FFC00
00FFE00000003FF800
007FF80000007FF000
003FFE000001FFE000
000FFF80000FFFC000
0007FFF800FFFF8000
0003FFFFFFFFFE0000
0001FFFFFFFFFC0000
00007FFFFFFFF00000
00001FFFFFFFC00000
000007FFFFFF000000
000000FFFFF8000000
00000007FF80000000
ENDCHAR
STARTCHAR 00AF
ENCODING 175
SWIDTH 270 0
DWIDTH 26 0
BBX 0 0 0 0
BITMAP
ENDCHAR
STARTCHAR 00B0
ENCODING 176
SWIDTH 270 0
DWIDTH 26 0
BBX 22 20 2 48
BITMAP
00FE00
07FF80
0FFFE0
1FFFF0
3F83F0
7E00F8
7C007C
78003C
F8003C
F0003C
F0003C
F8003C
78003C
7C007C
7E00F8
3F03F0
1FFFF0
0FFFC0
07FF80
00FE00
ENDCHAR
STARTCHAR 00B1
ENCODING 177
SWIDTH 583 0
DWIDTH 56 0
BBX 48 55 4 0
BITMAP
00001FF80000
00001FF80000
00001FF80000
00001FF80000
00001FF80000
00001FF80000
00001FF80000
00001FF80000
00001FF80000
00001FF80000
00001FF80000
00001FF80000
00001FF80000
00001FF80000
00001FF80000
00001FF80000
FFFFFFFFFFFF
FFFFFFFFFFFF
FFFFFFFFFFFF
FFFFFFFFFFFF
FFFFFFFFFFFF
FFFFFFFFFFFF
FFFFFFFFFFFF
FFFFFFFFFFFF
FFFFFFFFFFFF
FFFFFFFFFFFF
00001FF80000
00001FF80000
00001FF80000
00001FF80000
00001FF80000
00001FF80000
00001FF80000
00001FF80000
00001FF80000
00001FF80000
00001FF80000
00001FF80000
00001FF80000
00001FF80000
00001FF80000
00001FF80000
00001FF80000
000000000000
000000000000
FFFFFFFFFFFF
FFFFFFFFFFFF
FFFFFFFFFFFF
FFFFFFFFFFFF
FFFFFFFFFFFF
FFFFFFFFFFFF
FFFFFFFFFFFF
FFFFFFFFFFFF
FFFFFFFFFFFF
FFFFFFFFFFFF
ENDCHAR
STARTCHAR 00B2
ENCODING 178
SWIDTH 333 0
DWIDTH 32 0
BBX 28 37 1 29
BITMAP
00FFC000
03FFF800
0E07FE00
1801FF00
3000FFC0
7000FFC0
70007FE0
F0007FE0
FF007FF0
FFC07FF0
FFE07FF0
FFE07FF0
FFE0FFF0
FFE0FFE0
7FC0FFE0
3FC1FFE0
1F03FFC0
0007FF80
000FFF00
001FFC00
003FF000
007F8010
00F80010
01C00010
02000010
0C000030
10000070
1FFFFFE0
3FFFFFE0
23FFFFE0
61FFFFE0
60FFFFC0
703FFFC0
701FFF80
780FFF80
7803FE00
0000FC00
ENDCHAR
STARTCHAR 00B3
ENCODING 179
SWIDTH 312 0
DWIDTH 30 0
BBX 29 37 0 29
BITMAP
007FE000
0383FC00
0E00FF00
1E00FF80
3F007FC0
3FC07FE0
3FE07FE0
7FE07FE0
7FE07FE0
3FE07FE0
3FE07FE0
1FE07FE0
0F807FE0
00007FE0
00007FC0
00007F80
00007F00
0001FC00
03FFE000
0001FE00
00007F80
00007FE0
00003FF0
00003FF8
1F003FF8
3FC03FF8
7FC03FF8
7FC03FF8
FFC03FF8
7FC03FF8
7F803FF8
7F003FF0
3E003FF0
3E007FE0
0F01FF80
07FFFE00
00FFE000
ENDCHAR
STARTCHAR 00B4
ENCODING 180
SWIDTH 218 0
DWIDTH 21 0
BBX 15 14 2 57
BITMAP
0306
03FE
07FE
07FC
07FC
0FFC
0FFC
0FFC
1FFC
1FFC
3F00
7800
E000
8000
ENDCHAR
STARTCHAR 00B5
ENCODING 181
SWIDTH 531 0
DWIDTH 51 0
BBX 49 71 1 -20
BITMAP
000C0000100000
001F0000180000
003F80003C0000
007FC0007C0000
00FFC0007E0000
03FFE000FF8000
07FFE003FFC000
0FFFF00FFFF000
1FFFF03FFFFC00
3FFFF07FFFFE00
7FFFF80FFFF000
87FFF80FFFE000
03FFF807FFE000
01FFF807FFE000
01FFF807FFE000
01FFF807FFE000
01FFF807FFE000
01FFF807FFE000
01FFF807FFE000
01FFF807FFE000
01FFF807FFE000
01FFF807FFE000
01FFF807FFE000
01FFF807FFE000
01FFF807FFE000
01FFF807FFE000
01FFF807FFE000
01FFF807FFE000
01FFF807FFE000
01FFF807FFE000
01FFF807FFE000
01FFF807FFE000
01FFF807FFE000
01FFF807FFE000
01FFF807FFE000
01FFF807FFE000
01FFF807FFE000
01FFF807FFE000
01FFF80FFFE000
01FFF81FFFE080
01FFF877FFF180
01FFFFC7FFFF00
01FFFF87FFFE00
01FFFF07FFFC00
01FFFC07FFF800
01FFF803FFF000
01FFF003FFE000
01FFF001FFC000
01FFF000FF8000
01FFE0007F0000
01FFE0001E0000
01FFE0000C0000
01FFE000000000
01FFE000000000
00FFE000000000
00FFE000000000
00FFE000000000
00FFC000000000
00FFC000000000
00FFC000000000
007F8000000000
007F8000000000
007F8000000000
007F0000000000
003F0000000000
003F0000000000
003E0000000000
001E0000000000
001E0000000000
000C0000000000
000C0000000000
ENDCHAR
STARTCHAR 00B6
ENCODING 182
SWIDTH 604 0
DWIDTH 58 0
BBX 49 87 4 -21
BITMAP
001FFFFFFFFF80
00FFFFFFFFFF80
03FFFFC1FFF000
07FFFFC1FFE000
0FFFFFC1FFC000
0FFFFFC1FFC000
1FFFFFC1FFC000
3FFFFFC1FFC000
3FFFFFC1FFC000
7FFFFFC1FFC000
7FFFFFC1FFC000
7FFFFFC1FFC000
FFFFFFC1FFC000
FFFFFFC1FFC000
FFFFFFC1FFC000
FFFFFFC1FFC000
FFFFFFC1FFC000
FFFFFFC1FFC000
FFFFFFC1FFC000
FFFFFFC1FFC000
FFFFFFC1FFC000
FFFFFFC1FFC000
FFFFFFC1FFC000
FFFFFFC1FFC000
FFFFFFC1FFC000
7FFFFFC1FFC000
7FFFFFC1FFC000
7FFFFFC1FFC000
7FFFFFC1FFC000
3FFFFFC1FFC000
3FFFFFC1FFC000
1FFFFFC1FFC000
0FFFFFC1FFC000
07FFFFC1FFC000
03FFFFC1FFC000
01FFFFC1FFC000
00FFFFC1FFC000
001FFFC1FFC000
0001FFC1FFC000
0001FFC1FFC000
0001FFC1FFC000
0001FFC1FFC000
0001FFC1FFC000
0001FFC1FFC000
0001FFC1FFC000
0001FFC1FFC000
0001FFC1FFC000
0001FFC1FFC000
0001FFC1FFC000
0001FFC1FFC000
0001FFC1FFC000
0001FFC1FFC000
0001FFC1FFC000
0001FFC1FFC000
0001FFC1FFC000
0001FFC1FFC000
0001FFC1FFC000
0001FFC1FFC000
0001FFC1FFC000
0001FFC1FFC000
0001FFC1FFC000
0001FFC1FFC000
0001FFC1FFC000
0001FFC1FFC000
0001FFC1FFC000
0001FFC1FFC000
0001FFC1FFC000
0001FFC1FFC000
0001FFC1FFC000
0001FFC1FFC000
0001FFC1FFC000
0001FFC1FFC000
0001FFC1FFC000
0001FFC1FFC000
0001FFC1FFC000
0001FFC1FFC000
0001FFC1FFC000
0001FFC1FFC000
0001FFC1FFC000
0001FFC1FFC000
0001FFC1FFC000
0001FFC1FFC000
0003FFC1FFC000
0003FFC1FFE000
000FFFC1FFF000
00FFFFC1FFFF80
00FFFFC1FFFF80
ENDCHAR
STARTCHAR 00B7
ENCODING 183
SWIDTH 208 0
DWIDTH 20 0
BBX 10 10 5 19
BITMAP
1E00
7F80
7F80
FFC0
FFC0
FFC0
FFC0
7F80
7F80
1E00
ENDCHAR
STARTCHAR 00B8
ENCODING 184
SWIDTH 270 0
DWIDTH 26 0
BBX 0 0 0 0
BITMAP
ENDCHAR
STARTCHAR 00B9
ENCODING 185
SWIDTH 250 0
DWIDTH 24 0
BBX 24 34 2 30
BITMAP
000780
000780
000F80
001F80
003F80
00FF80
03FF80
FFFF80
FFFF80
01FF80
01FF80
01FF80
01FF80
01FF80
01FF80
01FF80
01FF80
01FF80
01FF80
01FF80
01FF80
01FF80
01FF80
01FF80
01FF80
01FF80
01FF80
01FF80
01FF80
01FF80
01FF80
01FF80
7FFFFF
7FFFFF
ENDCHAR
STARTCHAR 00BA
ENCODING 186
SWIDTH 364 0
DWIDTH 35 0
BBX 28 35 3 33
BITMAP
00000400
00001F00
00003F80
0001FFC0
000FFFC0
1FFFFFE0
1FF9FFE0
1FF87FF0
1FF83FF0
1FF83FF0
1FF83FF0
1FF83FF0
1FF83FF0
1FF83FF0
1FF83FF0
1FF83FF0
1FF83FF0
1FF83FF0
1FF83FF0
1FF83FF0
1FF83FF0
1FF83FF0
1FF83FF0
1FF83FF0
1FFC3FE0
1FFE3FE0
3FFF3FC0
FFFFFFC0
1FFFFF00
07FFFC00
00FFF000
007FC000
001F0000
000E0000
00040000
ENDCHAR
STARTCHAR 00BB
ENCODING 187
SWIDTH 395 0
DWIDTH 38 0
BBX 29 36 5 7
BITMAP
80080000
C00C0000
60060000
70070000
38078000
3C03C000
3E03E000
1F01F000
1F81F800
0FC0FC00
0FC0FE00
07E0FF00
07F07F80
07F87FC0
03FC3FE0
03FE3FF0
01FF1FF8
01FF9FF8
01FF9FF8
01FF3FF8
03FE3FF0
03FC3FE0
07F87FC0
07F07F80
0FE0FF00
0FC0FE00
0FC0FC00
1F81F800
1F01F000
3E03E000
3C03C000
78078000
70070000
60060000
C00C0000
80080000
ENDCHAR
STARTCHAR 00BC
ENCODING 188
SWIDTH 697 0
DWIDTH 67 0
BBX 62 68 2 -3
BITMAP
0000000000002000
0000000000007000
0007800000007800
000780000000F800
000F80000000F000
001F80000001E000
003F80000003E000
00FF80000003C000
03FF80000007C000
FFFF800000078000
FFFF8000000F0000
01FF8000001F0000
01FF8000001E0000
01FF8000003E0000
01FF8000007C0000
01FF800000780000
01FF800000F80000
01FF800000F00000
01FF800001F00000
01FF800003E00000
01FF800003C00000
01FF800007C00000
01FF800007800000
01FF80000F000000
01FF80001F000000
01FF80001E000000
01FF80003E000000
01FF80003C000000
01FF800078000000
01FF8000F8000000
01FF8000F0000000
01FF8001F0000000
01FF8003E0007F00
01FF8003C000FF00
7FFFFF07C000FF00
7FFFFF078001FF00
0000000F8003FF00
0000001F0007FF00
0000001E0007FF00
0000003E000BFF00
0000003C0013FF00
0000007C0033FF00
000000F80023FF00
000000F00043FF00
000001F00083FF00
000001E00183FF00
000003E00103FF00
000007C00203FF00
000007800403FF00
00000F800C03FF00
00000F000803FF00
00001F001003FF00
00003E002003FF00
00003C006003FF00
00007C004003FF00
0000F8008003FF00
0000F8018003FF00
0001F001FFFFFFFC
0001E001FFFFFFFC
0003E0000003FF00
0007C0000003FF00
000780000003FF00
000F80000003FF00
000F00000003FF00
001F00000003FF00
003E000000FFFFFC
003C000000000000
001C000000000000
ENDCHAR
STARTCHAR 00BD
ENCODING 189
SWIDTH 718 0
DWIDTH 69 0
BBX 63 68 2 -1
BITMAP
0000000000018000
000000000001C000
000780000003E000
000F80000003C000
000F80000007C000
001F8000000F8000
003F8000000F8000
00FF8000001F0000
03FF8000003E0000
FFFF8000003E0000
FFFF8000007C0000
01FF8000007C0000
01FF800000F80000
01FF800001F00000
01FF800001F00000
01FF800003E00000
01FF800003C00000
01FF800007C00000
01FF80000F800000
01FF80000F800000
01FF80001F000000
01FF80003E000000
01FF80003E000000
01FF80007C000000
01FF80007C000000
01FF8000F8000000
01FF8001F0000000
01FF8001F0000000
01FF8003E0000000
01FF8003C0000000
01FF8007C00FF800
01FF800F807FFF00
01FF800F81C0FFC0
01FF801F03003FE0
7FFFFF3E06001FF0
7FFFFF3E0E001FF8
0000007C0E000FFC
000000781FF00FFC
000000F81FF80FFE
000001F01FFC0FFE
000001F01FFC0FFE
000003E01FFC0FFE
000003C01FFC0FFE
000007C00FFC1FFE
00000F8007F81FFE
00000F8003E03FFC
00001F0000007FFC
00003E000000FFF8
00003E000001FFF0
00007C000003FFE0
000078000007FF80
0000F800000FFE02
0001F000001FF002
0001F000003F8002
0003E00000780002
0003C00000C00006
0007C0000180000E
000F8000023FFFFE
000F800007FFFFFC
001F0000047FFFFC
003E00000C1FFFFC
003E00000E0FFFFC
007C00000E07FFF8
007800000F03FFF0
00F800000F00FFF0
01F0000007007FE0
00F0000000001F80
0020000000000000
ENDCHAR
STARTCHAR 00BE
ENCODING 190
SWIDTH 718 0
DWIDTH 69 0
BBX 67 67 2 0
BITMAP
000000000000180000
007FE00000001E0000
0383FC0000003E0000
0E00FF0000007C0000
1E00FF8000007C0000
3F007FC00000F80000
3FC07FE00001F00000
3FE07FE00001F00000
7FE07FE00003E00000
3FF07FE00003E00000
3FE07FE00007C00000
3FE07FE0000F800000
1FE07FE0000F800000
0F807FE0001F000000
00007FC0001E000000
00007F80003E000000
00007F00007C000000
0001FC00007C000000
03FFE00000F8000000
0003FC0001F0000000
0000FF8001F0000000
00007FC003E0000000
00007FE003E0000000
00007FF007C0000000
00007FF00F80000000
1F007FF00F80000000
3FC07FF01F00000000
7FC07FF81E00000000
7FC07FF03E00000000
FFC07FF07C00000000
7FC07FF07C00000000
7F807FE0F80003F800
7F007FE1F00007F800
3E00FFC1F0000FF800
1F03FF03E0000FF800
07FFFC03C0001FF800
00FFC007C0003FF800
0000000F80007FF800
0000000F80007FF800
0000001F0000BFF800
0000001E00013FF800
0000003E00013FF800
0000007C00023FF800
0000007C00043FF800
000000F800083FF800
000001F000083FF800
000001F000103FF800
000003E000203FF800
000003C000603FF800
000007C000403FF800
00000F8000803FF800
00000F8001003FF800
00001F0003003FF800
00001E0002003FF800
00003E0004003FF800
00007C000C003FF800
000078000FFFFFFFE0
0000F8000FFFFFFFE0
0001F00000003FF800
0001F00000003FF800
0003E00000003FF800
0003C00000003FF800
0007C00000003FF800
000F800000003FF800
000F800000003FF800
000F0000000FFFFFE0
000200000000000000
ENDCHAR
STARTCHAR 00BF
ENCODING 191
SWIDTH 437 0
DWIDTH 42 0
BBX 37 68 3 -18
BITMAP
0000400000
0000E00000
0001F00000
0001F00000
0003F80000
0007FC0000
000FFE0000
003FFF8000
007FFFC000
00FFFFE000
00FFFFE000
003FFF8000
000FFE0000
0007FC0000
0003F80000
0001F00000
0001F00000
0000E00000
0000400000
0000000000
0000000000
0000000000
0000000000
0007F00000
001FFC0000
003C1E0000
00700E0000
0060070000
00C0070000
00C0030000
00C0070000
00C0078000
00C00F8000
00C00F0000
00C01F0000
00C03F0000
0000FF0000
0001FE0000
0007FE0000
000FFC0000
003FFC0000
00FFF80000
01FFF80000
07FFF80000
0FFFF00000
1FFFF00000
3FFFE03F00
7FFFE0FF80
7FFFC1FFE0
FFFFC3FFE0
FFFF83FFF0
FFFF83FFF0
FFFF83FFF0
FFFF03FFF8
FFFF03FFF8
FFFF03FFF8
FFFF01FFF0
FFFF00FFF0
7FFF003FF0
7FFF0001F0
3FFF0000E0
1FFF8001C0
0FFF8001C0
07FFC00380
03FFF00600
00FFFC1C00
003FFFE000
0007FF0000
ENDCHAR
STARTCHAR 00C0
ENCODING 192
SWIDTH 750 0
DWIDTH 72 0
BBX 0 0 0 0
BITMAP
ENDCHAR
STARTCHAR 00C1
ENCODING 193
SWIDTH 750 0
DWIDTH 72 0
BBX 0 0 0 0
BITMAP
ENDCHAR
STARTCHAR 00C2
ENCODING 194
SWIDTH 750 0
DWIDTH 72 0
BBX 0 0 0 0
BITMAP
ENDCHAR
STARTCHAR 00C3
ENCODING 195
SWIDTH 750 0
DWIDTH 72 0
BBX 0 0 0 0
BITMAP
ENDCHAR
STARTCHAR 00C4
ENCODING 196
SWIDTH 750 0
DWIDTH 72 0
BBX 0 0 0 0
BITMAP
ENDCHAR
STARTCHAR 00C5
ENCODING 197
SWIDTH 750 0
DWIDTH 72 0
BBX 0 0 0 0
BITMAP
ENDCHAR
STARTCHAR 00C6
ENCODING 198
SWIDTH 979 0
DWIDTH 94 0
BBX 0 0 0 0
BITMAP
ENDCHAR
STARTCHAR 00C7
ENCODING 199
SWIDTH 729 0
DWIDTH 70 0
BBX 0 0 0 0
BITMAP
ENDCHAR
STARTCHAR 00C8
ENCODING 200
SWIDTH 781 0
DWIDTH 75 0
BBX 0 0 0 0
BITMAP
ENDCHAR
STARTCHAR 00C9
ENCODING 201
SWIDTH 781 0
DWIDTH 75 0
BBX 0 0 0 0
BITMAP
ENDCHAR
STARTCHAR 00CA
ENCODING 202
SWIDTH 781 0
DWIDTH 75 0
BBX 0 0 0 0
BITMAP
ENDCHAR
STARTCHAR 00CB
ENCODING 203
SWIDTH 781 0
DWIDTH 75 0
BBX 0 0 0 0
BITMAP
ENDCHAR
STARTCHAR 00CC
ENCODING 204
SWIDTH 656 0
DWIDTH 63 0
BBX 0 0 0 0
BITMAP
ENDCHAR
STARTCHAR 00CD
ENCODING 205
SWIDTH 656 0
DWIDTH 63 0
BBX 0 0 0 0
BITMAP
ENDCHAR
STARTCHAR 00CE
ENCODING 206
SWIDTH 656 0
DWIDTH 63 0
BBX 0 0 0 0
BITMAP
ENDCHAR
STARTCHAR 00CF
ENCODING 207
SWIDTH 656 0
DWIDTH 63 0
BBX 0 0 0 0
BITMAP
ENDCHAR
STARTCHAR 00D0
ENCODING 208
SWIDTH 781 0
DWIDTH 75 0
BBX 0 0 0 0
BITMAP
ENDCHAR
STARTCHAR 00D1
ENCODING 209
SWIDTH 760 0
DWIDTH 73 0
BBX 0 0 0 0
BITMAP
ENDCHAR
STARTCHAR 00D2
ENCODING 210
SWIDTH 802 0
DWIDTH 77 0
BBX 0 0 0 0
BITMAP
ENDCHAR
STARTCHAR 00D3
ENCODING 211
SWIDTH 802 0
DWIDTH 77 0
BBX 0 0 0 0
BITMAP
ENDCHAR
STARTCHAR 00D4
ENCODING 212
SWIDTH 802 0
DWIDTH 77 0
BBX 0 0 0 0
BITMAP
ENDCHAR
STARTCHAR 00D5
ENCODING 213
SWIDTH 802 0
DWIDTH 77 0
BBX 0 0 0 0
BITMAP
ENDCHAR
STARTCHAR 00D6
ENCODING 214
SWIDTH 802 0
DWIDTH 77 0
BBX 0 0 0 0
BITMAP
ENDCHAR
STARTCHAR 00D7
ENCODING 215
SWIDTH 583 0
DWIDTH 56 0
BBX 44 44 6 1
BITMAP
000000000400
030000000C00
078000001E00
0FC000003F00
1FE000007F80
3FF00000FFC0
7FF80001FFE0
FFFC0003FFF0
7FFE0007FFE0
3FFF000FFFC0
1FFF801FFF80
0FFFC03FFF00
07FFE07FFE00
03FFF0FFFC00
01FFF9FFF800
00FFFFFFF000
007FFFFFE000
003FFFFFC000
001FFFFF8000
000FFFFF0000
0007FFFE0000
0003FFFC0000
0001FFF80000
0003FFFC0000
0007FFFE0000
000FFFFF0000
001FFFFF8000
003FFFFFC000
007FFFFFE000
00FFFFFFF000
01FFF9FFF800
03FFF0FFFC00
07FFE07FFE00
0FFFC03FFF00
1FFF801FFF80
3FFF000FFFC0
7FFE0007FFE0
FFFC0003FFF0
7FF80001FFE0
1FF00000FFC0
0FE000007F80
07C000003F00
038000001E00
010000000C00
ENDCHAR
STARTCHAR 00D8
ENCODING 216
SWIDTH 802 0
DWIDTH 77 0
BBX 0 0 0 0
BITMAP
ENDCHAR
STARTCHAR 00D9
ENCODING 217
SWIDTH 656 0
DWIDTH 63 0
BBX 0 0 0 0
BITMAP
ENDCHAR
STARTCHAR 00DA
ENCODING 218
SWIDTH 656 0
DWIDTH 63 0
BBX 0 0 0 0
BITMAP
ENDCHAR
STARTCHAR 00DB
ENCODING 219
SWIDTH 656 0
DWIDTH 63 0
BBX 0 0 0 0
BITMAP
ENDCHAR
STARTCHAR 00DC
ENCODING 220
SWIDTH 656 0
DWIDTH 63 0
BBX 0 0 0 0
BITMAP
ENDCHAR
STARTCHAR 00DD
ENCODING 221
SWIDTH 760 0
DWIDTH 73 0
BBX 0 0 0 0
BITMAP
ENDCHAR
STARTCHAR 00DE
ENCODING 222
SWIDTH 802 0
DWIDTH 77 0
BBX 0 0 0 0
BITMAP
ENDCHAR
STARTCHAR 00DF
ENCODING 223
SWIDTH 531 0
DWIDTH 51 0
BBX 45 87 1 -21
BITMAP
001F80180000
007FE0180000
00FFF8180000
01FFFC180000
01FFFE180000
03FFFFB80000
03FFFFF80000
03FFFFF80000
07FFFFF80000
067FFFF00000
061FFFF00000
060FFFE00000
0603FFE00000
0600FFC00000
07003F000000
070000000000
078000000800
07E000001C00
07F000003C00
07FC00007E00
07FE0000FF00
07FF8001FF80
07FFC003FF80
07FFE00FFFC0
0FFFF01FFFE0
0FFFF83FFFE0
1FFFF87FFFF0
FFFFF9FFFFF0
FFFFFB9FFFF0
07FFFE07FFF0
07FFFC07FFF0
07FFF803FFF0
07FFF803FFF0
07FFF803FFF0
07FFF803FFF0
07FFF803FFF0
07FFF803FFF0
07FFF803FFE0
07FFF803FFE0
07FFF803FFC0
07FFF803FF80
07FFF803FF00
03FFF803FE00
03FFF807FC00
03FFF807F000
03FFF80FC000
03FFF81FE000
03FFF83FFC00
03FFF87FFF00
03FFF9FFFFC0
01FFFBFFFFE0
01FFFC1FFFE0
01FFF00FFFF0
01FFF007FFF0
01FFF007FFF8
01FFF003FFF8
01FFF003FFF8
00FFF003FFF8
00FFF003FFF8
00FFE003FFF8
00FFE003FFF8
00FFE003FFF8
00FFE003FFF8
00FFE003FFF8
007FE003FFF8
007FE003FFF8
007FE003FFF8
007FC003FFF0
007FC003FFF0
003FC003FFF0
003FC003FFE0
003FC003FFE0
003FE003FFC0
003FA003FFC0
001FA003FF80
001FB007FF00
001F9007FE00
001F880FFC00
001F041FF800
001F03FFE000
000F00FF0000
000F00000000
000F00000000
000E00000000
000E00000000
000600000000
000600000000
ENDCHAR
STARTCHAR 00E0
ENCODING 224
SWIDTH 489 0
DWIDTH 47 0
BBX 0 0 0 0
BITMAP
ENDCHAR
STARTCHAR 00E1
ENCODING 225
SWIDTH 489 0
DWIDTH 47 0
BBX 0 0 0 0
BITMAP
ENDCHAR
STARTCHAR 00E2
ENCODING 226
SWIDTH 489 0
DWIDTH 47 0
BBX 0 0 0 0
BITMAP
ENDCHAR
STARTCHAR 00E3
ENCODING 227
SWIDTH 489 0
DWIDTH 47 0
BBX 0 0 0 0
BITMAP
ENDCHAR
STARTCHAR 00E4
ENCODING 228
SWIDTH 489 0
DWIDTH 47 0
BBX 0 0 0 0
BITMAP
ENDCHAR
STARTCHAR 00E5
ENCODING 229
SWIDTH 489 0
DWIDTH 47 0
BBX 0 0 0 0
BITMAP
ENDCHAR
STARTCHAR 00E6
ENCODING 230
SWIDTH 635 0
DWIDTH 61 0
BBX 0 0 0 0
BITMAP
ENDCHAR
STARTCHAR 00E7
ENCODING 231
SWIDTH 395 0
DWIDTH 38 0
BBX 0 0 0 0
BITMAP
ENDCHAR
STARTCHAR 00E8
ENCODING 232
SWIDTH 416 0
DWIDTH 40 0
BBX 0 0 0 0
BITMAP
ENDCHAR
STARTCHAR 00E9
ENCODING 233
SWIDTH 416 0
DWIDTH 40 0
BBX 0 0 0 0
BITMAP
ENDCHAR
STARTCHAR 00EA
ENCODING 234
SWIDTH 416 0
DWIDTH 40 0
BBX 0 0 0 0
BITMAP
ENDCHAR
STARTCHAR 00EB
ENCODING 235
SWIDTH 416 0
DWIDTH 40 0
BBX 0 0 0 0
BITMAP
ENDCHAR
STARTCHAR 00EC
ENCODING 236
SWIDTH 291 0
DWIDTH 28 0
BBX 0 0 0 0
BITMAP
ENDCHAR
STARTCHAR 00ED
ENCODING 237
SWIDTH 291 0
DWIDTH 28 0
BBX 0 0 0 0
BITMAP
ENDCHAR
STARTCHAR 00EE
ENCODING 238
SWIDTH 291 0
DWIDTH 28 0
BBX 0 0 0 0
BITMAP
ENDCHAR
STARTCHAR 00EF
ENCODING 239
SWIDTH 291 0
DWIDTH 28 0
BBX 0 0 0 0
BITMAP
ENDCHAR
STARTCHAR 00F0
ENCODING 240
SWIDTH 489 0
DWIDTH 47 0
BBX 0 0 0 0
BITMAP
ENDCHAR
STARTCHAR 00F1
ENCODING 241
SWIDTH 531 0
DWIDTH 51 0
BBX 0 0 0 0
BITMAP
ENDCHAR
STARTCHAR 00F2
ENCODING 242
SWIDTH 468 0
DWIDTH 45 0
BBX 0 0 0 0
BITMAP
ENDCHAR
STARTCHAR 00F3
ENCODING 243
SWIDTH 468 0
DWIDTH 45 0
BBX 0 0 0 0
BITMAP
ENDCHAR
STARTCHAR 00F4
ENCODING 244
SWIDTH 468 0
DWIDTH 45 0
BBX 0 0 0 0
BITMAP
ENDCHAR
STARTCHAR 00F5
ENCODING 245
SWIDTH 468 0
DWIDTH 45 0
BBX 0 0 0 0
BITMAP
ENDCHAR
STARTCHAR 00F6
ENCODING 246
SWIDTH 468 0
DWIDTH 45 0
BBX 0 0 0 0
BITMAP
ENDCHAR
STARTCHAR 00F7
ENCODING 247
SWIDTH 583 0
DWIDTH 56 0
BBX 49 58 3 0
BITMAP
00000180000000
000001C0000000
000003C0000000
000003E0000000
000007F0000000
00000FF8000000
00001FFC000000
00003FFE000000
0000FFFF800000
0001FFFFC00000
0000FFFF800000
00007FFE000000
00001FF8000000
00000FF0000000
000007F0000000
000003E0000000
000003C0000000
000001C0000000
00000180000000
00000000000000
00000000000000
00000000000000
00000000000000
00000000000000
FFFFFFFFFFFF80
FFFFFFFFFFFF80
FFFFFFFFFFFF80
FFFFFFFFFFFF80
FFFFFFFFFFFF80
FFFFFFFFFFFF80
FFFFFFFFFFFF80
FFFFFFFFFFFF80
FFFFFFFFFFFF80
FFFFFFFFFFFF80
00000000000000
00000000000000
00000000000000
00000000000000
00000000000000
00000180000000
000001C0000000
000003C0000000
000003E0000000
000007F0000000
00000FF8000000
00001FFC000000
00003FFE000000
0001FFFF800000
0001FFFFC00000
0000FFFF800000
00007FFE000000
00001FF8000000
00000FF0000000
000007F0000000
000003E0000000
000003C0000000
000001C0000000
00000180000000
ENDCHAR
STARTCHAR 00F8
ENCODING 248
SWIDTH 468 0
DWIDTH 45 0
BBX 0 0 0 0
BITMAP
ENDCHAR
STARTCHAR 00F9
ENCODING 249
SWIDTH 531 0
DWIDTH 51 0
BBX 0 0 0 0
BITMAP
ENDCHAR
STARTCHAR 00FA
ENCODING 250
SWIDTH 531 0
DWIDTH 51 0
BBX 0 0 0 0
BITMAP
ENDCHAR
STARTCHAR 00FB
ENCODING 251
SWIDTH 531 0
DWIDTH 51 0
BBX 0 0 0 0
BITMAP
ENDCHAR
STARTCHAR 00FC
ENCODING 252
SWIDTH 531 0
DWIDTH 51 0
BBX 0 0 0 0
BITMAP
ENDCHAR
STARTCHAR 00FD
ENCODING 253
SWIDTH 510 0
DWIDTH 49 0
BBX 0 0 0 0
BITMAP
ENDCHAR
STARTCHAR 00FE
ENCODING 254
SWIDTH 531 0
DWIDTH 51 0
BBX 0 0 0 0
BITMAP
ENDCHAR
STARTCHAR 00FF
ENCODING 255
SWIDTH 510 0
DWIDTH 49 0
BBX 0 0 0 0
BITMAP
ENDCHAR
STARTCHAR 0131
ENCODING 305
SWIDTH 291 0
DWIDTH 28 0
BBX 0 0 0 0
BITMAP
ENDCHAR
STARTCHAR 0141
ENCODING 321
SWIDTH 583 0
DWIDTH 56 0
BBX 0 0 0 0
BITMAP
ENDCHAR
STARTCHAR 0142
ENCODING 322
SWIDTH 291 0
DWIDTH 28 0
BBX 0 0 0 0
BITMAP
ENDCHAR
STARTCHAR 0152
ENCODING 338
SWIDTH 979 0
DWIDTH 94 0
BBX 0 0 0 0
BITMAP
ENDCHAR
STARTCHAR 0153
ENCODING 339
SWIDTH 666 0
DWIDTH 64 0
BBX 0 0 0 0
BITMAP
ENDCHAR
STARTCHAR 0160
ENCODING 352
SWIDTH 760 0
DWIDTH 73 0
BBX 0 0 0 0
BITMAP
ENDCHAR
STARTCHAR 0161
ENCODING 353
SWIDTH 489 0
DWIDTH 47 0
BBX 0 0 0 0
BITMAP
ENDCHAR
STARTCHAR 0178
ENCODING 376
SWIDTH 760 0
DWIDTH 73 0
BBX 0 0 0 0
BITMAP
ENDCHAR
STARTCHAR 017D
ENCODING 381
SWIDTH 614 0
DWIDTH 59 0
BBX 0 0 0 0
BITMAP
ENDCHAR
STARTCHAR 017E
ENCODING 382
SWIDTH 385 0
DWIDTH 37 0
BBX 0 0 0 0
BITMAP
ENDCHAR
STARTCHAR 0192
ENCODING 402
SWIDTH 604 0
DWIDTH 58 0
BBX 61 89 -4 -21
BITMAP
0000000001FFF000
000000000FFFFE00
000000007FFC1F80
00000000FFF00FC0
00000003FFE01FE0
00000007FFC03FF0
0000000FFFC07FF0
0000000FFF80FFF8
0000001FFF81FFF8
0000003FFF01FFF8
0000003FFF01FFF8
0000003FFF01FFF8
0000007FFF01FFF0
0000007FFE00FFF0
0000007FFE007FC0
000000FFFE003F80
000000FFFE000000
000000FFFE000000
000000FFFE000000
000000FFFC000000
000000FFFC000000
000000FFFC000000
000000FFFC000000
000000FFFC000000
000000FFFC000000
000000FFFC000000
000000FFFC000000
000001FFFC000000
000001FFFC000000
000001FFFC000000
000001FFFC000000
000001FFFC000000
000001FFFC000000
000001FFFC000000
000001FFFC000000
001FFFFFFFFFF000
001FFFFFFFFFF000
000001FFFE000000
000001FFFE000000
000001FFFC000000
000001FFFC000000
000001FFFC000000
000003FFFC000000
000003FFFC000000
000003FFFC000000
000003FFFC000000
000003FFFC000000
000003FFFC000000
000003FFFC000000
000003FFFC000000
000003FFFC000000
000003FFFC000000
000003FFFC000000
000003FFFC000000
000003FFFC000000
000003FFF8000000
000003FFF8000000
000003FFF8000000
000003FFF8000000
000007FFF8000000
000007FFF8000000
000007FFF8000000
000007FFF8000000
000007FFF8000000
000007FFF8000000
000007FFF8000000
000007FFF8000000
000007FFF8000000
000007FFF8000000
000007FFF8000000
000007FFF8000000
000007FFF8000000
000007FFF0000000
0FC007FFF0000000
3FF007FFF0000000
7FF807FFF0000000
FFF80FFFF0000000
FFFC0FFFE0000000
FFFC0FFFE0000000
FFFC0FFFC0000000
FFFC1FFFC0000000
FFF81FFF80000000
FFF01FFF80000000
7FC03FFF00000000
3F807FFE00000000
1F80FFF800000000
0FE1FFE000000000
03FFFF8000000000
007FF00000000000
ENDCHAR
STARTCHAR 02BA
ENCODING 698
SWIDTH 1000 0
DWIDTH 96 0
BBX 0 0 0 0
BITMAP
ENDCHAR
STARTCHAR 02C6
ENCODING 710
SWIDTH 354 0
DWIDTH 34 0
BBX 0 0 0 0
BITMAP
ENDCHAR
STARTCHAR 02C7
ENCODING 711
SWIDTH 270 0
DWIDTH 26 0
BBX 0 0 0 0
BITMAP
ENDCHAR
STARTCHAR 02D8
ENCODING 728
SWIDTH 270 0
DWIDTH 26 0
BBX 0 0 0 0
BITMAP
ENDCHAR
STARTCHAR 02D9
ENCODING 729
SWIDTH 1000 0
DWIDTH 96 0
BBX 0 0 0 0
BITMAP
ENDCHAR
STARTCHAR 02DA
ENCODING 730
SWIDTH 270 0
DWIDTH 26 0
BBX 0 0 0 0
BITMAP
ENDCHAR
STARTCHAR 02DB
ENCODING 731
SWIDTH 1000 0
DWIDTH 96 0
BBX 0 0 0 0
BITMAP
ENDCHAR
STARTCHAR 02DC
ENCODING 732
SWIDTH 354 0
DWIDTH 34 0
BBX 0 0 0 0
BITMAP
ENDCHAR
STARTCHAR 2013
ENCODING 8211
SWIDTH 489 0
DWIDTH 47 0
BBX 44 8 1 21
BITMAP
FFFFFFFFFFF0
FFFFFFFFFFF0
FFFFFFFFFFF0
FFFFFFFFFFF0
FFFFFFFFFFF0
FFFFFFFFFFF0
FFFFFFFFFFF0
FFFFFFFFFFF0
ENDCHAR
STARTCHAR 2014
ENCODING 8212
SWIDTH 760 0
DWIDTH 73 0
BBX 71 8 1 21
BITMAP
FFFFFFFFFFFFFFFFFE
FFFFFFFFFFFFFFFFFE
FFFFFFFFFFFFFFFFFE
FFFFFFFFFFFFFFFFFE
FFFFFFFFFFFFFFFFFE
FFFFFFFFFFFFFFFFFE
FFFFFFFFFFFFFFFFFE
FFFFFFFFFFFFFFFFFE
ENDCHAR
STARTCHAR 2018
ENCODING 8216
SWIDTH 343 0
DWIDTH 33 0
BBX 19 36 7 31
BITMAP
0000C0
000180
000300
000700
000600
000C00
000C00
001800
001800
003800
003000
007000
007000
007000
00F000
00F000
00F000
01F800
01F800
03F800
03F800
07FC00
0FFE00
1FFF00
3FFF80
FFFFE0
FFFFE0
7FFFC0
1FFF00
0FFE00
07FC00
03F800
01F000
00E000
00E000
004000
ENDCHAR
STARTCHAR 2019
ENCODING 8217
SWIDTH 343 0
DWIDTH 33 0
BBX 19 37 7 28
BITMAP
004000
00E000
00E000
01F000
03F800
07FC00
0FFE00
1FFF00
7FFFC0
FFFFE0
FFFFE0
3FFF80
1FFF00
0FFE00
07FC00
03F800
03F800
03F000
03F000
01E000
01E000
01E000
01C000
01C000
01C000
018000
018000
030000
030000
020000
060000
0C0000
0C0000
180000
300000
600000
400000
ENDCHAR
STARTCHAR 201A
ENCODING 8218
SWIDTH 343 0
DWIDTH 33 0
BBX 19 36 7 -19
BITMAP
004000
00E000
00E000
01F000
03F800
07FC00
0FFE00
1FFF80
7FFFC0
FFFFE0
7FFFC0
3FFF00
1FFE00
0FFE00
07FC00
03F800
03F800
03F000
01F000
01E000
01E000
01E000
01C000
01C000
018000
018000
038000
030000
030000
060000
060000
0C0000
180000
300000
600000
400000
ENDCHAR
STARTCHAR 201C
ENCODING 8220
SWIDTH 583 0
DWIDTH 56 0
BBX 41 37 7 30
BITMAP
000020000080
000060000380
0000C0000700
000180000E00
000300001C00
000600001800
000E00003000
000C00003000
001C00007000
001800006000
00180000E000
00380000E000
00380000E000
00380001C000
00780001C000
00780001C000
00F80003E000
00F80003E000
00F80007E000
01F80007E000
01FC000FE000
03FC000FF000
03FE001FF000
07FE003FF800
0FFF003FFC00
1FFFC0FFFE00
7FFFF1FFFF80
FFFFF3FFFF80
7FFFE1FFFF00
1FFF807FFC00
07FF003FF800
03FC001FF000
01F8000FE000
00F80007C000
00F00003C000
006000038000
006000018000
ENDCHAR
STARTCHAR 201D
ENCODING 8221
SWIDTH 583 0
DWIDTH 56 0
BBX 41 37 7 28
BITMAP
006000010000
006000038000
00F000038000
01F80007C000
01F8000FE000
03FC001FF000
07FF003FF800
1FFF807FFC00
7FFFE1FFFF00
FFFFF3FFFF80
7FFFE3FFFF80
3FFFC0FFFE00
0FFF007FFC00
07FE003FF800
07FE001FF000
03FC000FF000
03FC000FE000
01F8000FE000
01F80007C000
01F00007C000
01F000078000
01E000078000
01E000078000
01E000070000
01C000070000
01C000060000
018000060000
0180000E0000
0380000C0000
0300000C0000
070000180000
060000380000
0C0000300000
180000600000
300000C00000
600001800000
400001000000
ENDCHAR
STARTCHAR 201E
ENCODING 8222
SWIDTH 583 0
DWIDTH 56 0
BBX 41 36 7 -18
BITMAP
004000018000
00E000038000
01E000038000
01F00007C000
03F8000FE000
07FC001FF000
0FFE003FF800
1FFF807FFE00
7FFFE1FFFF80
FFFFE3FFFF80
7FFFC1FFFF80
3FFF00FFFE00
1FFE003FFC00
0FFC001FF800
07FC001FF000
03F8000FF000
03F8000FE000
03F0000FC000
01F00007C000
01E00007C000
01E000078000
01C000078000
01C000070000
01C000070000
018000070000
018000060000
030000060000
0300000C0000
0300000C0000
0600000C0000
060000180000
0C0000100000
180000300000
300000600000
600000C00000
400001800000
ENDCHAR
STARTCHAR 2020
ENCODING 8224
SWIDTH 593 0
DWIDTH 57 0
BBX 49 86 4 -20
BITMAP
000001F0000000
000007FC000000
00001FFE000000
00001FFF000000
00003FFF800000
00003FFF800000
00007FFF800000
00007FFF800000
00003FFF800000
00003FFF000000
00001FFF000000
00001FFF000000
00001FFE000000
00000FFE000000
00000FFC000000
000007FC000000
000007F8000000
000003F8000000
000003F8000000
000001F0000000
078001F000FC00
1FF001E003FE00
3FFC00E00FFF00
7FFF00E03FFF00
7FFFC0E0FFFF80
FFFFF8C7FFFF80
FFFFFFFFFFFF80
FFFFFFFFFFFF80
FFFFFCC7FFFF80
7FFFE0C0FFFF80
7FFF00C03FFF00
3FFC00E00FFF00
1FF000E003FE00
07C001E0007800
000001F0000000
000003F0000000
000007F8000000
00000FFC000000
00001FFE000000
00003FFF000000
00007FFFC00000
0001FFFFE00000
0000FFFFE00000
0000FFFFC00000
00007FFFC00000
00007FFF800000
00003FFF800000
00003FFF800000
00001FFF000000
00001FFF000000
00001FFF000000
00000FFE000000
00000FFE000000
00000FFE000000
000007FC000000
000007FC000000
000007FC000000
000003FC000000
000003F8000000
000003F8000000
000003F8000000
000001F8000000
000001F0000000
000001F0000000
000001F0000000
000000F0000000
000000F0000000
000000F0000000
000000E0000000
000000E0000000
000000E0000000
000000E0000000
00000060000000
00000060000000
00000060000000
00000060000000
00000060000000
00000060000000
00000060000000
00000040000000
00000040000000
00000040000000
00000040000000
00000040000000
00000040000000
00000040000000
ENDCHAR
STARTCHAR 2021
ENCODING 8225
SWIDTH 593 0
DWIDTH 57 0
BBX 49 87 4 -21
BITMAP
000003F0000000
000007FC000000
00001FFE000000
00001FFF000000
00003FFF800000
00003FFF800000
00007FFF800000
00007FFF800000
00007FFF800000
00003FFF800000
00003FFF000000
00003FFF000000
00001FFF000000
00001FFE000000
00000FFE000000
00000FFC000000
000007FC000000
000007F8000000
000003F8000000
000003F0000000
0F8001F0007800
1FE001F003FE00
3FF801E00FFF00
7FFF00E03FFF80
7FFFC0E0FFFF80
FFFFF8C3FFFF80
FFFFFFFFFFFF80
FFFFFFFFFFFF80
FFFFF8C7FFFF80
7FFFC0C0FFFF80
7FFF00E03FFF80
3FFC00E00FFF00
1FF001E003FE00
0F8001F0007C00
000001F0000000
000003F8000000
000007F8000000
000007FC000000
00000FFE000000
00001FFF000000
00003FFF800000
00007FFFC00000
0000FFFFE00000
0001FFFFE00000
0000FFFFC00000
00007FFF800000
00003FFF000000
00001FFE000000
00000FFE000000
000007FC000000
000007F8000000
000003F0000000
000003F0000000
0F8001E0007800
1FE001E003FE00
3FF800E00FFF00
7FFE00C07FFF80
7FFFC0C1FFFF80
FFFFF0FFFFFF80
FFFFFFFFFFFF80
FFFFFFFFFFFF80
FFFFF8C7FFFF80
7FFFC0E0FFFF80
7FFF00E03FFF00
3FFC01E007FF00
1FF001F001FE00
078001F0007800
000003F0000000
000003F8000000
000007F8000000
000007FC000000
00000FFC000000
00000FFE000000
00001FFE000000
00001FFF000000
00003FFF000000
00003FFF000000
00003FFF800000
00007FFF800000
00007FFF800000
00007FFF800000
00003FFF800000
00003FFF800000
00001FFF000000
00001FFE000000
000007FC000000
000003F0000000
ENDCHAR
STARTCHAR 2022
ENCODING 8226
SWIDTH 406 0
DWIDTH 39 0
BBX 28 28 5 15
BITMAP
000E0000
000E0000
001E0000
001F0000
003F8000
003F8000
007FC000
00FFE000
01FFF000
03FFF800
0FFFFE00
1FFFFF00
7FFFFFC0
FFFFFFF0
FFFFFFF0
7FFFFFC0
1FFFFF00
0FFFFC00
03FFF800
01FFF000
00FFE000
007FC000
007FC000
003F8000
001F8000
001F0000
000E0000
000E0000
ENDCHAR
STARTCHAR 2026
ENCODING 8230
SWIDTH 979 0
DWIDTH 94 0
BBX 82 19 6 -1
BITMAP
0040000000C00000008000
00E0000000C0000001C000
00E0000001E0000001C000
01F0000003F0000003E000
03F8000003F0000007F000
07FC000007F800000FF800
0FFE00001FFE00001FFC00
1FFF00003FFF00003FFE00
7FFFC000FFFFC000FFFF80
FFFFE001FFFFE001FFFFC0
7FFFC000FFFFC000FFFF80
1FFF00003FFF00003FFE00
0FFC00001FFC00001FFC00
07F8000007F800000FF800
03F8000007F8000007F000
01F0000003F0000003E000
01F0000001E0000001E000
00E0000001E0000001C000
0040000000C00000008000
ENDCHAR
STARTCHAR 2030
ENCODING 8240
SWIDTH 979 0
DWIDTH 94 0
BBX 92 65 1 0
BITMAP
000000000000800000000000
001FE0000001E00000000000
00FFFC000003E00000000000
01F87F000003C00000000000
07F03F800007C00000000000
0FF03FC00007800000000000
1FF03FE0000F800000000000
1FF03FF0001F000000000000
3FF03FF0001E000000000000
7FF03FF8003E000000000000
7FF03FF8007C000000000000
7FF03FFC0078000000000000
FFF03FFC00F8000000000000
FFF03FFC00F0000000000000
FFF03FFC01F0000000000000
FFF03FFC03E0000000000000
FFF03FFC03C0000000000000
FFF03FFC07C0000000000000
FFF03FFC0F80000000000000
7FF03FFC0F00000000000000
7FF03FF81F00000000000000
7FF03FF83E00000000000000
3FF03FF03C00000000000000
1FF03FE07C00000000000000
1FF03FE07800000000000000
0FF03FC0F800000000000000
07F03F81F000000000000000
01F87E01E000000000000000
00FFFC03E000000000000000
001FE007C000000000000000
000000078000000000000000
0000000F8000000000000000
0000000F0000000000000000
0000001F0000000000000000
0000003E01FE0000007F8000
0000003C07FFC00003FFF000
0000007C1F87E0000FC3F800
000000F83F03F8001FC0FE00
000000F07F03FC003F80FF00
000001F0FF03FE007F80FF80
000003E1FF03FF00FF80FF80
000003E3FF03FF01FF80FFC0
000007C3FF03FF81FF80FFE0
00000787FF03FF83FF80FFE0
00000F87FF03FF83FF80FFE0
00001F07FF03FFC3FF80FFF0
00001E0FFF03FFC7FF80FFF0
00003E0FFF03FFC7FF80FFF0
00007C0FFF03FFC7FF80FFF0
00007C0FFF03FFC7FF80FFF0
0000F80FFF03FFC7FF80FFF0
0000F00FFF03FFC7FF80FFF0
0001F00FFF03FFC7FF80FFF0
0003E007FF03FFC3FF80FFF0
0003C007FF03FF83FF80FFE0
0007C007FF03FF83FF80FFE0
000F8003FF03FF01FF80FFC0
000F8003FF03FF01FF80FFC0
001F0001FF03FE00FF80FF80
003E0000FF03FC007F80FF00
003E00007F03FC003F80FE00
007C00003F03F0001F80FC00
007800001F87E0000FC1F800
0018000007FFC00003FFE000
0000000001FE0000007F8000
ENDCHAR
STARTCHAR 2039
ENCODING 8249
SWIDTH 270 0
DWIDTH 26 0
BBX 18 36 4 7
BITMAP
0000C0
000180
000380
000700
000F00
001E00
003E00
007E00
00FC00
01FC00
03F800
07F800
0FF000
0FF000
1FF000
3FE000
7FE000
FFC000
FFC000
7FE000
3FE000
1FF000
0FF000
0FF000
07F800
03F800
01FC00
00FC00
007E00
003E00
001E00
000F00
000700
000380
000180
0000C0
ENDCHAR
STARTCHAR 203A
ENCODING 8250
SWIDTH 270 0
DWIDTH 26 0
BBX 17 36 5 7
BITMAP
800000
C00000
E00000
700000
780000
3C0000
3E0000
1F0000
1F8000
1FC000
0FE000
0FF000
07F800
07F800
03FC00
03FE00
03FF00
01FF80
01FF80
03FF00
03FE00
07FC00
07FC00
07F800
0FF000
0FE000
1FC000
1F8000
3F0000
3E0000
3C0000
780000
700000
E00000
C00000
800000
ENDCHAR
STARTCHAR 2122
ENCODING 8482
SWIDTH 958 0
DWIDTH 92 0
BBX 84 35 4 32
BITMAP
00FE000000040000002000
07FFC000007FC0FF03FC00
0FFFF03001FFF1FFC7FE00
1FFFFC0C033FFB7FC8FF00
3FFFFE02020FFA3FE8FF00
7FFFFF810407FE3FF0FF00
7FFFFFC10603FE1FF0FF00
703FFFF08F03FE1FF0FF00
C007FFF98F83FE1FF0FF00
C001FFFF0FC1FE1FF0FF00
80017FFF0FE1FE1FF07F80
80039FFE0FF1FF1FF07F80
C007C7FC0FF9FF1FF00FE0
400FE1F80FF9FF1FF00780
600FF0000FF9FF1FF01E00
30DFF80007FDFF1FF07E00
0F1FFC0003F9FF1FF0FC00
001FFE0001F9FF0FF1FC00
000FFE0000F9FF0FF1FC00
000FFE000031FF0FF3FC00
0007FE000021FE0FF3FC00
0003FE0001C1FE0FE3FC00
0000FC000601FC0FE3FC00
03F878000001F80FC3FC00
0FFF20000020F80F83FC00
1FFFC0000030F30F83FC00
3FFFE0008078E78F03FC00
3FFFF80100FCC7CE03FC00
63FFFC0101FE8FFC03FE30
40FFFF8203FF9FFC01FFE0
407FFFFE05FF2FF801FF80
401FFFFC04FE47F000FF00
0007FFF8083C43E000FE00
0001FFE0001881C0007800
00003F8000080040001000
ENDCHAR
STARTCHAR 2215
ENCODING 8725
SWIDTH 166 0
DWIDTH 16 0
BBX 44 68 -14 -1
BITMAP
000000000080
0000000000E0
0000000001F0
0000000003E0
0000000003E0
0000000007C0
0000000007C0
000000000F80
000000001F00
000000001F00
000000003E00
000000007C00
000000007C00
00000000F800
00000000F800
00000001F000
00000003E000
00000003E000
00000007C000
000000078000
0000000F8000
0000001F0000
0000001F0000
0000003E0000
0000007C0000
0000007C0000
000000F80000
000000F80000
000001F00000
000003E00000
000003E00000
000007C00000
00000F800000
00000F800000
00001F000000
00001F000000
00003E000000
00007C000000
00007C000000
0000F8000000
0000F0000000
0001F0000000
0003E0000000
0003E0000000
0007C0000000
000F80000000
000F80000000
001F00000000
001E00000000
003E00000000
007C00000000
007C00000000
00F800000000
00F000000000
01F000000000
03E000000000
03C000000000
07C000000000
0F8000000000
0F8000000000
1F0000000000
1E0000000000
3E0000000000
7C0000000000
780000000000
F80000000000
F00000000000
100000000000
ENDCHAR
STARTCHAR 2219
ENCODING 8729
SWIDTH 208 0
DWIDTH 20 0
BBX 10 10 5 19
BITMAP
1E00
7F80
7F80
FFC0
FFC0
FFC0
FFC0
7F80
7F80
1E00
ENDCHAR
STARTCHAR F000
ENCODING 61440
SWIDTH 1000 0
DWIDTH 96 0
BBX 0 0 0 0
BITMAP
ENDCHAR
STARTCHAR F001
ENCODING 61441
SWIDTH 604 0
DWIDTH 58 0
BBX 48 87 1 -21
BITMAP
001F80200000
007FE0200000
00FFF0200000
01FFFC200000
01FFFE300000
03FFFF300000
03FFFFF00000
03FFFFE00000
03FFFFE00000
07FFFFE00000
07FFFFE00000
073FFFE00000
060FFFC00000
0207FF800000
0301FF800000
03007E000000
038000002000
03C000003000
03E000007800
03F00001FC00
03FC0003FE00
03FF001FFF00
03FFC07FFFC0
03FFFFFFFFF0
07FFFFFFFFF8
07FFFFFFFFFC
1FFFFE1FFFE0
FFFFFC1FFFC0
FFFFFC1FFFC0
07FFFC1FFF80
07FFFC1FFF80
07FFFC1FFF80
07FFFC1FFF80
07FFFC1FFF80
07FFFC1FFF80
03FFFC1FFF80
03FFFC1FFF80
03FFFC1FFF80
03FFFC1FFF80
03FFFC1FFF80
03FFFC1FFF80
03FFFC1FFF80
03FFFC1FFF80
03FFFC1FFF80
03FFFC1FFF80
03FFFC1FFF80
03FFFC1FFF80
01FFF81FFF80
01FFF81FFF80
01FFF81FFF80
01FFF81FFF80
01FFF81FFF80
01FFF81FFF80
01FFF81FFF80
01FFF01FFF80
00FFF01FFFC1
00FFF01FFFE3
00FFF00FFFFE
00FFF00FFFFC
00FFE00FFFF0
00FFE00FFFE0
00FFE007FFC0
00FFE007FF80
007FE003FF00
007FC001FE00
007FC000FC00
007FC0007800
007FC0003000
003FC0000000
003FC0000000
003F80000000
003F80000000
003F80000000
003F80000000
001F80000000
001F00000000
001F00000000
001F00000000
001F00000000
000F00000000
000F00000000
000E00000000
000E00000000
000E00000000
000E00000000
000600000000
000400000000
ENDCHAR
STARTCHAR F002
ENCODING 61442
SWIDTH 593 0
DWIDTH 57 0
BBX 54 87 1 -21
BITMAP
001F00200000FC
007FE020001FFC
00FFF020007FE0
01FFF82001FF80
01FFFC6007FF00
03FFFF700FFF00
03FFFFF83FFE00
03FFFFF83FFE00
03FFFFE47FFE00
07FFFFE4FFFE00
07FFFFE2FFFC00
073FFFE2FFFC00
060FFFC1FFFC00
0207FFC1FFFC00
0201FF81FFFC00
03007E00FFFC00
03000000FFFC00
03800000FFFC00
03C00000FFFC00
03F00000FFFC00
03FC0000FFFC00
03FFC000FFFC00
03FFFFF0FFFC00
03FFFFF0FFFC00
07FFFFF0FFFC00
07FFFFF0FFFC00
1FFFFFF0FFFC00
FFFFFFF0FFFC00
FFFFFFF0FFFC00
07FFFC00FFFC00
07FFFC00FFFC00
07FFFC00FFFC00
07FFFC00FFFC00
07FFFC00FFFC00
07FFFC00FFFC00
03FFFC00FFFC00
03FFFC00FFFC00
03FFFC00FFFC00
03FFFC00FFFC00
03FFFC00FFFC00
03FFFC00FFFC00
03FFFC00FFFC00
03FFFC00FFFC00
03FFFC00FFFC00
03FFFC00FFFC00
03FFFC00FFFC00
03FFFC00FFFC00
01FFFC00FFFC00
01FFF800FFFC00
01FFF800FFFC00
01FFF800FFFC00
01FFF800FFFC00
01FFF800FFFC00
01FFF800FFFC00
01FFF000FFFE00
00FFF000FFFE04
00FFF00FFFFF1C
00FFF00FFFFFF8
00FFF003FFFFF0
00FFF001FFFFE0
00FFE0007FFF80
00FFE0003FFF00
00FFE0001FFE00
007FE0000FFC00
007FE00007F800
007FC00003E000
007FC00001C000
007FC000008000
003FC000000000
003FC000000000
003F8000000000
003F8000000000
003F8000000000
003F8000000000
001F8000000000
001F0000000000
001F0000000000
001F0000000000
001F0000000000
000F0000000000
000F0000000000
000E0000000000
000E0000000000
000E0000000000
000E0000000000
00060000000000
00040000000000
ENDCHAR
ENDFONT
